<?xml version="1.0" encoding="utf-8"?>
<!-- Generator: Adobe Illustrator 24.2.3, SVG Export Plug-In . SVG Version: 6.00 Build 0)  -->
<svg version="1.1" xmlns="http://www.w3.org/2000/svg" xmlns:xlink="http://www.w3.org/1999/xlink" x="0px" y="0px" width="699.2px"
	 height="452.4px" viewBox="0 0 699.2 452.4" style="enable-background:new 0 0 699.2 452.4;" xml:space="preserve">
<style type="text/css">
	.st0{fill:#FFFFFF;}
	.st1{fill:#CD163F;}
	.st2{fill:#001641;}
</style>
<g id="Layer_3">
</g>
<g id="traeger">
	<g id="Layer_1_1_">
	</g>
</g>
<g id="Yeti">
</g>
<g id="Layer_4">
</g>
<g id="Layer_5">
</g>
<g id="Layer_6">
</g>
<g id="Layer_7">
</g>
<g id="Layer_8">
</g>
<g id="Layer_9">
</g>
<g id="Layer_10">
</g>
<g id="Layer_11">
	<g>
		<polygon class="st0" points="425.7,234.1 268.5,234.1 347.1,105.8 		"/>
		<g>
			<path class="st1" d="M425.7,234.1H268.5l78.6-128.3L425.7,234.1z M371.8,221.2c0-0.2,0-0.4-0.1-0.5l0,0l-38.8-62.9
				c0,0-0.3-0.6-1-0.6c-0.4,0-0.8,0.2-1,0.6l0,0l-39.7,64.6h16.2l23.6-38.5c0,0,0.3-0.6,1-0.6c0.3,0,0.6,0.2,0.8,0.4l0.2,0.2
				l19.7,32.2l0,0c0.1,0.2,0.2,0.4,0.2,0.6c0,0.6-0.5,1.2-1.2,1.2h-11.1c-0.6,0-1.2-0.5-1.2-1.2c0-0.2,0.1-0.4,0.2-0.6h0l3.8-6.1
				l-8.1-13.3l-14.8,24c0,0-0.2,0.4-0.2,0.6c0,1.1,1.1,1.1,1.1,1.1h14.2h20.8h14.2l0,0C371.3,222.3,371.8,221.8,371.8,221.2z
				 M384.7,222.3h16l-39.6-64.7c-0.2-0.3-0.6-0.6-1-0.6c-0.7,0-1,0.6-1,0.6l-10.4,16.9l8.1,13.1l2.3-3.8c0,0,0.3-0.6,1-0.6
				c0.4,0,0.8,0.2,1,0.6L384.7,222.3z"/>
			<path class="st2" d="M0,259.9c3.9-0.8,11.8-1.5,19.3-1.5c9.1,0,14.7,0.9,19.5,3.7c4.5,2.4,7.8,6.9,7.8,13c0,5.8-3.4,11.1-10.8,14
				v0.2c7.5,2,13.1,7.7,13.1,16.2c0,6.1-2.7,10.8-6.9,14c-4.8,3.8-12.8,6-25.9,6c-7.3,0-12.8-0.5-16.2-1V259.9 M14.8,285.1h4.9
				c7.9,0,12-3.2,12-8.1c0-5-3.8-7.6-10.6-7.6c-3.3,0-5.2,0.2-6.4,0.5V285.1 M14.8,314.3c1.5,0.3,3.2,0.3,5.8,0.3
				c6.7,0,12.7-2.7,12.7-9.6c0-6.7-6-9.3-13.4-9.3h-5.1V314.3z"/>
			<path class="st2" d="M68.8,305.6c0.5,6.3,6.5,9.2,13.5,9.2c5.1,0,9.2-0.7,13.2-2.1l2,10.1c-4.9,2-10.9,3-17.3,3
				c-16.3,0-25.5-9.4-25.5-24.5c0-12.1,7.6-25.5,24.1-25.5c15.4,0,21.3,12,21.3,23.9c0,2.6-0.3,4.8-0.5,6L68.8,305.6 M86.3,295.4
				c0-3.5-1.6-9.7-8.3-9.7c-6.4,0-8.9,5.8-9.3,9.7H86.3z"/>
			<path class="st2" d="M107,292.3c0-6-0.2-11-0.4-15.3h12.9l0.7,6.7h0.3c1.9-3.1,6.8-7.7,14.8-7.7c9.8,0,17.1,6.6,17.1,20.6v28.2
				h-14.9v-26.5c0-6.2-2.2-10.4-7.5-10.4c-4.1,0-6.6,2.8-7.6,5.6c-0.4,1-0.5,2.3-0.5,3.7v27.6H107V292.3z"/>
			<path class="st2" d="M150.7,334.2c3.8-0.3,6.9-1.2,8.8-3.1c2.2-2.3,2.9-6.1,2.9-15.5v-38.5h14.9v42c0,10.4-2.3,16.7-6.8,20.8
				c-4.4,4-11.4,5.9-18.4,5.9L150.7,334.2 M169.6,270.8c-5,0-8.2-3.5-8.2-7.9c0-4.5,3.3-7.9,8.4-7.9c5.1,0,8.2,3.4,8.3,7.9
				c0,4.4-3.2,7.9-8.4,7.9H169.6z"/>
			<path class="st2" d="M226.8,313.3c0,4.5,0.2,8.9,0.8,11.5h-13.4l-0.9-4.8H213c-3.1,3.8-8,5.9-13.7,5.9c-9.7,0-15.5-7-15.5-14.7
				c0-12.4,11.2-18.3,28.1-18.3v-0.6c0-2.6-1.4-6.2-8.7-6.2c-4.9,0-10,1.7-13.2,3.5l-2.7-9.5c3.3-1.9,9.9-4.3,18.6-4.3
				c15.9,0,20.9,9.4,20.9,20.6V313.3 M212.4,302.3c-7.8,0-13.9,1.8-13.9,7.5c0,3.8,2.6,5.7,5.9,5.7c3.6,0,6.8-2.5,7.7-5.5
				c0.2-0.8,0.3-1.7,0.3-2.6V302.3z"/>
			<path class="st2" d="M234.7,292.3c0-6-0.2-11-0.4-15.3h12.6l0.6,6.5h0.3c2-3.1,6.3-7.6,14.5-7.6c6.3,0,11.1,3.2,13.1,8.2h0.2
				c1.9-2.5,3.9-4.5,6.3-5.9c2.7-1.5,5.6-2.3,9.1-2.3c9.2,0,16.2,6.4,16.2,20.7v28.2h-14.5v-25.9c0-6.9-2.3-11-7-11
				c-3.5,0-5.9,2.3-7,5.2c-0.3,1.1-0.5,2.5-0.5,3.7v28h-14.4v-26.8c0-6-2.2-10.1-7-10.1c-3.8,0-6.1,2.9-7,5.3
				c-0.5,1.2-0.6,2.5-0.6,3.8v27.8h-14.5V292.3z"/>
			<path class="st2" d="M322.2,270.8c-5,0-8.2-3.5-8.2-7.9c0-4.5,3.3-7.9,8.4-7.9c5.1,0,8.2,3.4,8.3,7.9c0,4.4-3.3,7.9-8.4,7.9
				H322.2 M314.9,324.9v-47.8h14.9v47.8H314.9z"/>
			<path class="st2" d="M337.8,292.3c0-6-0.2-11-0.4-15.3h12.9l0.7,6.7h0.3c2-3.1,6.7-7.7,14.8-7.7c9.8,0,17.1,6.6,17.1,20.6v28.2
				h-14.8v-26.5c0-6.2-2.2-10.4-7.6-10.4c-4.1,0-6.6,2.8-7.6,5.6c-0.4,1-0.5,2.3-0.5,3.7v27.6h-14.8V292.3z"/>
			<path class="st2" d="M471.2,299.6c-0.3-7.9-0.6-17.4-0.6-27.1h-0.2c-2.1,8.4-4.9,17.8-7.4,25.5l-8,25.7h-11.7l-7-25.4
				c-2.1-7.8-4.3-17.1-6-25.8H430c-0.3,8.9-0.7,19.1-1.1,27.3l-1.3,25h-13.8l4.2-65.9H438l6.5,22.1c2.2,7.5,4.1,15.7,5.6,23.5h0.4
				c1.8-7.7,4-16.2,6.3-23.7l6.9-21.9h19.6l3.5,65.9h-14.5L471.2,299.6z"/>
			<path class="st2" d="M516.2,325.9c-14,0-24.7-9.2-24.7-24.6c0-15.4,10.1-25.3,25.6-25.3c14.6,0,24.4,10.1,24.4,24.5
				C541.5,317.9,529.1,325.9,516.2,325.9L516.2,325.9 M516.6,315.3c5.8,0,9.4-5.8,9.4-14.4c0-7-2.7-14.3-9.4-14.3
				c-7.1,0-9.8,7.2-9.8,14.4c0,8.1,3.4,14.3,9.7,14.3H516.6z"/>
			<path class="st2" d="M572.8,325.9c-14,0-24.7-9.2-24.7-24.6c0-15.4,10.2-25.3,25.6-25.3c14.6,0,24.3,10.1,24.3,24.5
				C598,317.9,585.6,325.9,572.8,325.9L572.8,325.9 M573.1,315.3c5.9,0,9.5-5.8,9.5-14.4c0-7-2.8-14.3-9.5-14.3
				c-7,0-9.8,7.2-9.8,14.4c0,8.1,3.4,14.3,9.7,14.3H573.1z"/>
			<path class="st2" d="M603.4,292.8c0-7-0.1-11.6-0.4-15.7h12.7l0.6,8.9h0.4c2.5-7,8.2-10,12.9-10c1.4,0,2.1,0.1,3.1,0.3v14
				c-1.3-0.2-2.5-0.4-4.1-0.4c-5.5,0-9.2,2.9-10.2,7.6c-0.2,1-0.3,2-0.3,3.3v24.1h-14.9L603.4,292.8z"/>
			<path class="st2" d="M649.4,305.6c0.5,6.3,6.6,9.2,13.5,9.2c5.1,0,9.2-0.7,13.2-2.1l2,10.1c-4.9,2-10.9,3-17.3,3
				c-16.3,0-25.5-9.4-25.5-24.5c0-12.1,7.6-25.5,24.1-25.5c15.5,0,21.3,12,21.3,23.9c0,2.6-0.2,4.8-0.5,6L649.4,305.6 M666.9,295.4
				c0-3.5-1.6-9.7-8.3-9.7c-6.4,0-8.9,5.8-9.3,9.7H666.9z"/>
			<path class="st2" d="M691.1,273.6c4.5,0,8.1,3.7,8.1,8.3c0,4.7-3.6,8.3-8.2,8.3c-4.5,0-8.2-3.6-8.2-8.3
				C682.9,277.2,686.6,273.6,691.1,273.6L691.1,273.6 M691,274.9c-3.6,0-6.6,3.1-6.6,7c0,4,3,7,6.6,7c3.7,0,6.6-3,6.6-7
				C697.7,278,694.8,274.9,691,274.9L691,274.9 M689.6,286.7H688v-9.2c0.8-0.1,1.5-0.2,2.6-0.2c1.4,0,2.3,0.3,2.9,0.7
				c0.5,0.4,0.8,1,0.8,1.9c0,1.2-0.8,1.9-1.8,2.2v0.1c0.9,0.2,1.4,0.9,1.6,2.2c0.2,1.4,0.4,2,0.6,2.3h-1.5c-0.2-0.3-0.4-1.1-0.6-2.4
				c-0.2-1.2-0.8-1.6-2-1.6h-1V286.7 M689.6,281.5h1c1.2,0,2.2-0.4,2.2-1.6c0-0.8-0.6-1.6-2.2-1.6c-0.5,0-0.8,0-1,0.1V281.5z"/>
		</g>
	</g>
</g>
</svg>
