<?xml version="1.0" encoding="utf-8"?>
<!-- Generator: Adobe Illustrator 24.0.1, SVG Export Plug-In . SVG Version: 6.00 Build 0)  -->
<svg version="1.1" id="Layer_10" xmlns="http://www.w3.org/2000/svg" xmlns:xlink="http://www.w3.org/1999/xlink" x="0px" y="0px"
	 width="699.2px" height="452.4px" viewBox="0 0 699.2 452.4" style="enable-background:new 0 0 699.2 452.4;" xml:space="preserve"
	>
<style type="text/css">
	.st0{fill:#00583D;}
	.st1{fill:#231F20;}
	.st2{fill:#006851;}
	.st3{fill:#58595B;}
	.st4{fill:#FFFFFF;}
	.st5{fill:#6D6E71;}
	.st6{fill:url(#SVGID_1_);}
	.st7{fill:url(#SVGID_2_);}
	.st8{fill:#D9D3A4;}
	.st9{fill:#8A8C8E;}
	.st10{fill:#AB6616;}
	.st11{fill:#003F2D;}
	.st12{fill:#AF6C21;}
	.st13{fill:#B3722B;}
	.st14{fill:#A7600C;}
</style>
<g>
	<path class="st0" d="M236.2,177.4l17.3,0.3l11.1,0.2c29.8,0,44.9-10.7,44.9-31.8c0-16.1-10.1-25.8-29.9-28.7
		c14.9-3.6,22.6-11.9,22.6-24.6c0-17.5-13.2-25.6-41.7-25.6h-10l-16.1,0.2l-16.7-0.2v3.8h0.8c4,0.7,6.7,3.2,6.7,12.7v56.9
		c0,23-0.4,31.1-8.2,33.5l-0.7,0.2v3.6h1.1C223.4,177.6,229.6,177.4,236.2,177.4z M248.6,75.4l6.1-0.4c15.7,0,22.6,5.8,22.6,19.4
		c-0.2,14.6-6.8,21-22.5,21l-5.1-0.2h-1.1L248.6,75.4z M248.6,123l9.9-0.5c18.1,0,24.8,6.5,24.8,24.3c0,15.7-7,23.3-21.3,23.3
		c-12.9,0-13.4-4.8-13.4-27.4L248.6,123z M331,87.8c8.6,0,15.1-4.4,15.1-10.3s-6.5-10.3-15.1-10.3s-15.1,4.4-15.1,10.3
		S322.2,87.8,331,87.8z M319.4,121.8v26.5c0,15.6-0.4,23.2-9.9,25.8l-0.7,0.2v3.6h1.1c7.6-0.4,14.9-0.6,22.2-0.6
		c8.4,0,15.9,0.2,22.9,0.6h1.1v-3.6l-0.8-0.2c-9.1-2.2-9.9-8.8-9.9-27.1v-20.3c0-9.4,0-18.2,0.5-26.9v-1.3l-1.3,0.3
		c-8.7,1.9-19.4,3.5-33.7,5.1H310v3.6h0.9C318.6,108.1,319.4,110.9,319.4,121.8z M380.7,149.7c-9.9,2.1-14.6,5.5-14.6,10.5
		c0,4,3.2,6.5,9.4,7.9c-14.9,3.2-20.1,8.9-20.1,17.7c0,12.4,14.8,20.8,39.8,20.8c28.9,0,46.8-9.8,46.8-25.8c0-14-11.5-18.5-28.7-21
		l-10.8-1.4c-8.4-0.9-11.3-1.4-11.3-3.6c0-1.6,1.3-1.9,6.8-2.3c4.1-0.2,8.2-0.7,12.2-1.5c15.2-3,25.1-13.3,25.1-26.3
		c0-10.2-5.5-17.7-17.7-24c1.4-1.2,3.2-2,5-2.3c4.6,0,8.2,3.6,9.7,9.7l0.2,0.8h2.8l7.2-22.4l-6.5-0.5c-9.9,0.3-19.2,4.8-25.6,12.3
		c-4.5-1-9.2-1.6-13.8-1.7c-21.7,0-38.1,12.1-38.1,28.2c-0.2,11.9,7.7,20.7,21.9,24.7L380.7,149.7z M395.5,172.5
		c15.1,0,23.4,4.6,23.4,12.9s-8.7,14.5-22.1,14.5c-12.2,0-19.2-5.2-19.2-14.3c-0.1-8.1,6.9-13.2,17.8-13.2L395.5,172.5z
		 M396.6,103.4c8.5,0,13.6,7.5,13.6,20c0,14.1-4.8,22.6-12.9,22.6c-9,0-14.3-7.8-14.3-20.9s5.4-21.9,13.5-21.9L396.6,103.4z
		 M119.4,244.8l0.7-0.2v-3.9H119c-9.5,0.4-18.2,0.6-25.8,0.6c-8.8,0-17.1-0.2-25.4-0.6h-1.1v4.1h0.9C82.5,246.1,84,250,84,266.2
		c0,20.2-4.2,26.3-18,26.3c-19,0-27.9-15.7-27.9-49.5c0-33.1,10.5-49.2,32-49.2c16.5,0,26,10.6,29.1,32.3v0.7l3.6,0.8l9.2-27.8
		l-0.5-0.2c-12.9-8.5-28-13-43.4-12.9c-35.8-0.1-59.9,22.5-59.9,56.2c0,34.6,23.2,57,59,57c17.9,0,32.1-4.9,43.4-15l0.4-0.3
		l-0.5-10.6v-17.8C110.4,249,112.1,246.8,119.4,244.8z M174.3,215.7c-10,0-18.1,5.6-24.2,16.7v-15l-1.3,0.4
		c-9.6,2.5-19.4,4.2-29.3,5.3h-0.9v3.6h0.9c6.5,0.5,7.3,3.2,7.3,14v26.5c0,16.8-0.7,23.4-8.7,25.8l-0.7,0.2v3.2h4l16.7-0.2l20.3,0.3
		h1v-3.2l-0.7-0.2c-8.1-2-8.6-8.6-8.6-26.9v-7.1c0-9.1,1.9-20,11.2-20c2-0.1,3.9,0.9,5.1,2.6l0.3,0.4h3.2l8.7-25.8L174.3,215.7z
		 M219.4,298.4c20.4,0,33.8-10.6,40-31.3l0.2-0.6l-5.7-5l-0.4,1.6c-4.6,17.2-13.7,26.3-26.4,26.3c-15.2,0-24.3-12.9-24.3-34.3
		c0,0,0.2-5.2,0.2-6.1h55.2v-1.1c-2.8-20.4-17.3-32.1-39.5-32.1c-25.1,0.1-42.7,17-42.7,41.2c0,24.2,17.9,41.6,43.2,41.6
		L219.4,298.4z M218,222.4c7.5,0,12.4,7.4,12.9,19.4h-27.7C205,229.5,210.4,222.4,218,222.4z M348.1,249.1V248
		c-2.8-20.4-17.3-32.1-39.5-32.1c-25,0-42.4,16.9-42.4,41c0,24.1,17.7,41.6,43.1,41.6c20.4,0,33.8-10.6,40-31.3l0.2-0.6l-5.7-5
		l-0.4,1.6c-4.6,17.2-13.7,26.3-26.4,26.3c-15.2,0-24.3-12.9-24.3-34.3c0,0,0.2-4.9,0.3-6.1L348.1,249.1z M307.7,222.4
		c7.5,0,12.4,7.4,12.9,19.4H293C295,229.5,300.3,222.4,307.7,222.4z M435,266.1v-12.9c0-25-10.1-37.1-30.9-37.1
		c-10.8-0.5-20.9,5.5-25.5,15.2v-13.7l-1.3,0.4c-9.2,2.5-18.5,4.2-28,5.3h-0.9v3.5h0.9c6.5,0.5,7.3,3.2,7.3,14v25.2
		c0,16.6-0.4,24.7-8.9,27.4l-0.7,0.2v3.2h3.7l17.2-0.2l20.3,0.3h1v-3.2l-0.7-0.2c-8.5-2.4-8.8-10.6-8.8-28.8v-10.3
		c0-17,6.9-28,17.5-28c10.1,0,14.5,8.4,14.5,28v14c0,15.9-0.8,22.6-8.7,25.1l-0.7,0.2v3.2h3.6l17.2-0.2l20.3,0.3h1v-3.2l-0.7-0.2
		C435.8,291.1,435,284.1,435,266.1L435,266.1z M266.5,379.3l-0.5,0.7c-11.9,20-24.6,29.7-39,29.7c-12.9,0-14.1-5.3-14.1-32.3v-13.9
		c2.3-0.2,4.6-0.3,6.9-0.3c15,0,24.3,6.1,27,17.7l0.2,0.8h3.6v-43.4H247l-0.2,0.8c-2.6,10.8-12.4,17-26.8,17l-7.1-0.3v-39.3
		c2.1-0.2,4.3-0.3,6.5-0.3c17.5,0,30.5,7,40.8,22.1l0.5,0.6l3.6-1.2l-7.6-29.1H203l-19.9-0.3h-1.7v3.8l0.7,0.2
		c5,1.6,6.8,4.9,6.8,11.9v54.9c0,22.6-0.3,32.5-8.3,34.6l-0.8,0.2v4h1.1c5.8-0.5,11.8-0.6,18.5-0.6l8.5,0.2h53.4l8.5-36.9
		L266.5,379.3z M325.8,399.7l-10.8-1.4c-8.4-0.9-11.3-1.4-11.3-3.6c0-1.6,1.3-1.9,6.8-2.3c4.1-0.2,8.2-0.7,12.2-1.5
		c15.2-3,25.1-13.3,25.1-26.3c0-10.2-5.5-17.7-17.7-24c1.4-1.2,3.2-2,5-2.3c4.6,0,8.2,3.6,9.7,9.7l0.2,0.8h2.8l7.2-22.4l-6.5-0.5
		c-9.9,0.3-19.2,4.8-25.6,12.3c-4.5-1-9.2-1.6-13.8-1.7c-21.7,0-38.1,12.1-38.1,28.2c0,11.9,8,20.7,22.1,24.7
		c-9.9,2.1-14.6,5.5-14.6,10.5c0,4,3.2,6.5,9.4,7.9c-14.9,3.2-22.2,8.9-22.2,17.7c0,12.4,16.9,20.7,42,20.7
		c28.9,0,45.6-9.7,45.6-25.5C353.2,407.1,343,402.3,325.8,399.7L325.8,399.7z M309,343.3c8.5,0,13.6,7.5,13.6,20
		c0,14.1-4.8,22.6-12.9,22.6c-9,0-14.3-7.8-14.3-20.9C295.3,351.9,300.9,343.3,309,343.3L309,343.3z M309.3,439.9
		c-12.2,0-19.2-5.2-19.2-14.3c0-8,7-13.1,17.9-13.1c15.1,0,23.4,4.6,23.4,12.9S322.8,439.9,309.3,439.9L309.3,439.9z M413.2,399.7
		l-10.8-1.4c-8.4-0.9-11.3-1.4-11.3-3.6c0-1.6,1.3-1.9,6.8-2.3c4.1-0.2,8.2-0.7,12.2-1.5c15.2-3,25.1-13.3,25.1-26.3
		c0-10.2-5.5-17.7-17.7-24c1.4-1.2,3.2-2,5-2.3c4.6,0,8.2,3.6,9.7,9.7l0.2,0.8h2.8l7.2-22.4l-6.5-0.5c-9.9,0.3-19.2,4.8-25.6,12.3
		c-4.5-1-9.2-1.6-13.8-1.7c-21.7,0-38.1,12.1-38.1,28.2c0,11.9,8,20.7,22.1,24.7c-9.9,2.1-14.6,5.5-14.6,10.5c0,4,3.2,6.5,9.4,7.9
		c-14.9,3.2-20.8,8.8-20.8,17.6c0,12.4,15.4,20.8,40.5,20.8c28.9,0,46.8-9.8,46.8-25.8C441.9,406.8,430.4,402.3,413.2,399.7
		L413.2,399.7z M396.4,343.3c8.5,0,13.6,7.5,13.6,20c0,14.1-4.8,22.6-12.9,22.6c-9,0-14.3-7.8-14.3-20.9
		C382.8,351.9,388.3,343.3,396.4,343.3L396.4,343.3z M396.7,439.9c-12.2,0-19.2-5.2-19.2-14.3c0-8,7-13.1,17.9-13.1
		c15.1,0,23.4,4.6,23.4,12.9S410.2,439.9,396.7,439.9L396.7,439.9z M455.7,436.7c-0.4-0.8-0.9-1.5-1.5-2.2c-2-1.9-4.9-2.5-7.5-1.5
		c-0.8,0.3-1.6,0.8-2.2,1.5c-0.6,0.6-1.1,1.4-1.5,2.2c-0.4,0.9-0.6,1.8-0.5,2.7c0,3.8,3,7,6.9,7c1,0,1.9-0.2,2.8-0.6
		c0.8-0.3,1.6-0.8,2.2-1.5c0.6-0.6,1.1-1.4,1.5-2.2c0.4-0.9,0.6-1.8,0.5-2.7C456.3,438.5,456.1,437.6,455.7,436.7L455.7,436.7z
		 M454.6,441.7c-0.3,0.7-0.7,1.3-1.2,1.9c-1,1.1-2.5,1.7-4,1.7c-0.8,0-1.5-0.1-2.3-0.5c-0.7-0.3-1.3-0.7-1.8-1.2
		c-0.5-0.5-0.9-1.2-1.2-1.9c-0.3-0.8-0.4-1.6-0.4-2.4c0-0.8,0.1-1.6,0.4-2.3c0.3-0.7,0.7-1.3,1.2-1.8c1.1-1.1,2.5-1.7,4-1.7
		c0.8,0,1.5,0.1,2.2,0.5c1.4,0.6,2.5,1.8,3,3.2c0.3,0.7,0.4,1.5,0.4,2.3C455,440.3,454.9,441.1,454.6,441.7L454.6,441.7z M452,439.3
		c0.4-0.4,0.7-1,0.6-1.6c0.1-0.7-0.2-1.3-0.7-1.7c-0.6-0.4-1.4-0.6-2.1-0.6h-3.2v8h1.3V440h1.3l2.2,3.5h1.3l-2.3-3.6
		C450.9,439.9,451.5,439.7,452,439.3L452,439.3z M449.2,439h-1.3v-2.6h2.5c0.2,0,0.4,0.1,0.6,0.2c0.2,0.1,0.3,0.2,0.4,0.4
		c0.1,0.2,0.1,0.4,0,0.6c0,0.3,0,0.5-0.2,0.7c-0.1,0.2-0.3,0.3-0.5,0.4c-0.2,0-0.5,0-0.7,0L449.2,439z"/>
	<path class="st1" d="M687.4,136.7c0-49.7-21.9-90.9-57.6-110.6l2-7.4c-2.9-2.8-6.2-5.1-9.7-7.1c0.2-0.7,0.4-1.4,0.5-2.1
		c-6.3-6.1-15.3-8.6-23.9-6.5l-0.6,2.4c-3.8,0-7.5,0.4-11.2,1.2l-2,7.5c-43.6-0.9-85.9,27.5-110.3,76.3c-1.4,1.9-2.5,4.1-3.2,6.5
		c-0.5,1.8-0.7,3.6-0.7,5.4c0.1,4.9,1.6,9.7,4.1,13.8c9.7,17.1,36.6,34.5,70.8,46.7c-45.2,3.9-86.3,17.4-86.3,39.1c0,0,0,0.7,0,1.5
		c0,1.5,0,3.7,0.2,6.9c0,4.2,0.4,10,0.9,14c4.7,43.1,19.1,82.7,39.9,111.7l-18.1,54c-1.3,3.9-0.2,8.3,2.9,11.1v10.3
		c0,3.8,3,6.8,6.8,6.8c3.8,0,6.8-3,6.8-6.8v-9.7c1.6-1.3,2.8-2.9,3.4-4.9l14.1-42c1.9,1.9,3.9,3.8,5.9,5.5c0.4,0.3,0.8,0.6,1.3,0.8
		c5,1.9,10,3.5,15.1,4.8l-0.2,1c-1.3,4-0.2,8.3,2.9,11.1v10.2c0,3.8,3,6.8,6.8,6.8c3.8,0,6.8-3,6.8-6.8v-9.7c1.6-1.3,2.8-3,3.4-4.9
		l0.7-4c4.6,0.5,9.3,0.7,13.9,0.7c3.6,0,7.3-0.2,10.9-0.5l10.7,60.3c0.6,1.9,1.8,3.6,3.4,4.9v9.7c0,3.8,3.1,6.8,6.8,6.8
		s6.8-3.1,6.8-6.8v-10.2c3.1-2.8,4.2-7.2,2.9-11.1l-10.1-56.9c6.1-1.5,12.1-3.3,18-5.6c0.5-0.2,0.9-0.4,1.3-0.8
		c2.8-2.4,5.5-5,8.2-7.8l14.8,44.2c0.6,1.9,1.8,3.6,3.4,4.9v9.7c0,3.8,3.1,6.8,6.8,6.8c3.8,0,6.8-3.1,6.8-6.8V401
		c3.1-2.8,4.2-7.2,2.9-11.1L647.7,333c19.7-28.7,33.3-67.1,37.9-108.8c0.5-4,0.7-9.7,0.9-14c0-3.2,0.2-5.4,0.2-6.9
		c0-0.8,0-1.6,0-1.5c0-10.3-9.7-19.6-27.3-26.7c15-3.8,24.4-10.8,27-20.5c0.5-1.7,0.7-3.5,0.7-5.3c0,0,0-0.5,0-0.6
		C687.3,144.7,687.4,140.7,687.4,136.7z"/>
	<path class="st0" d="M573.1,238c-60.3,0-109.1-16.1-109.5-35.9c0,7.3,0.4,14.5,1.2,21.8c6.5,57.7,30.1,107,60.3,133.3
		c15.3,5.9,31.6,9,48,9c3.4,0,6.8-0.2,10.2-0.4l-4.1-23.1c-1.9-5.5,1.1-11.5,6.6-13.3c5.5-1.9,11.5,1.1,13.3,6.6l4.7,26.6
		c5.9-1.4,11.6-3.2,17.2-5.4c30.2-26.3,54-75.6,60.3-133.3c0.8-7.3,1.2-14.6,1.2-21.9l0,0C682.4,221.9,633.4,238,573.1,238z"/>
	<path class="st1" d="M572.8,240.9c-51.9,0-100.8-12.9-109.3-31.5c0.2,3.9,0.9,13.6,0.9,13.8c17.6,17.7,66.8,27.7,109.3,27.7
		c42.5,0,88.1-9.2,107.9-27.2c0-0.2,0.7-10.3,0.9-14.4C672.8,228.3,625.4,240.9,572.8,240.9z"/>
	<path class="st2" d="M644.4,246.9c-7.2,45.2-14.1,73.7-31.1,104.5c23.5-25,42.9-65.2,51.2-111.9C658.1,242.5,651.3,245,644.4,246.9
		z"/>
	<path class="st3" d="M641.4,173.8c22.2-1.8,37.7-8.7,40.8-20.1c5.9-21.9-35.5-52.1-92.6-67.4S481.5,76.1,475.6,98
		c-5.9,21.9,35.5,52.1,92.6,67.4l1.7,0.5c-59,0.5-106.5,16.5-106.5,36S512.6,238,573.1,238c60.5,0,109.5-16.1,109.5-36.1
		C682.5,190.6,666.5,180.4,641.4,173.8z"/>
	<ellipse class="st4" cx="573.6" cy="202" rx="94.4" ry="28.8"/>
	<path class="st0" d="M589.6,86.3c53.1,14.3,92.7,41.5,93.2,62.8c4.2-60.4-24.1-113.6-75.6-127.5S504,39.4,477.4,93.9
		C488.3,75.5,536.3,71.9,589.6,86.3z"/>
	<path class="st5" d="M621.5,26.7l2.1-8.2c-1.4-1.2-3.1-2-5-2.3l-2.3,8.4C618.3,25.2,619.8,25.9,621.5,26.7z"/>
	<path class="st4" d="M487.1,100.8c4.3-15.8,48.9-17.6,99.7-3.9s88.5,37.6,84.2,53.4s-48.9,17.6-99.6,3.9
		C520.5,140.6,482.7,116.7,487.1,100.8z"/>
	
		<linearGradient id="SVGID_1_" gradientUnits="userSpaceOnUse" x1="529.811" y1="761.2403" x2="529.811" y2="813.6025" gradientTransform="matrix(0.9656 0.2602 0.2654 -0.9849 -141.5061 763.1785)">
		<stop  offset="0.19" style="stop-color:#FFFFFF"/>
		<stop  offset="0.34" style="stop-color:#F5F4E8"/>
		<stop  offset="0.7" style="stop-color:#E1DCB7"/>
		<stop  offset="0.88" style="stop-color:#D9D3A4"/>
	</linearGradient>
	<path class="st6" d="M490.6,102.1c3.8-14.3,46.5-15.2,95.3-2s85.2,35.4,81.3,49.6c-3.8,14.3-46.5,15.2-95.3,2
		C523.2,138.6,486.8,116.3,490.6,102.1z"/>
	<path class="st1" d="M592.9,73.9c-41.2-11.1-79.4-10.4-103.5-1c-3.2,4.5-6.5,10-9.1,14.9c15.6-14.5,57.9-18.4,110.1-4.3
		s86.7,39.2,93.1,58.5c0.2-5.6,0-11.2-0.4-16.7C667.1,105,634.4,85.1,592.9,73.9z"/>
	<path class="st2" d="M669.5,104.3c-1.9-25-14.6-48.4-37.9-66.7c14.1,16.8,22,35.3,22.6,55.8C659.5,96.7,664.6,100.3,669.5,104.3z"
		/>
	
		<linearGradient id="SVGID_2_" gradientUnits="userSpaceOnUse" x1="572.4848" y1="624.6555" x2="572.4848" y2="573.5543" gradientTransform="matrix(1 9.948213e-03 9.948213e-03 -1 -4.8631 795.0078)">
		<stop  offset="0.33" style="stop-color:#FFFFFF"/>
		<stop  offset="1" style="stop-color:#D9D3A4"/>
	</linearGradient>
	<ellipse class="st7" cx="573.6" cy="201.6" rx="91.1" ry="25.5"/>
	<path class="st8" d="M506.5,218.9c-14.9-4.6-24-10.6-24-17.3c0.4-3.6,2.4-6.9,5.5-8.8C493.7,201.5,508.5,210.2,506.5,218.9z
		 M531.7,224.2c16.1-14-27.2-28.6-14.6-42.7c-6.8,1.4-13.5,3.5-19.9,6.1c1.2,11.2,26.7,22.6,19.4,33.9
		C521.4,222.5,526.4,223.5,531.7,224.2z M542.7,225.6c5.1,0.5,10.4,0.9,15.8,1.1c26.2-16.4-37.8-33.9-5-50c-7.7,0.5-15,1.3-21.8,2.3
		C509.7,194.2,563.7,210.2,542.7,225.6L542.7,225.6z M568.9,227h4.6c4.5,0,9,0,13.3-0.3c25.5-16.5-39.4-33.9-4.4-50.4l-17.6-0.2
		C529.6,192.8,596.1,210.4,568.9,227L568.9,227z M599.5,226c7.1-0.6,13.9-1.5,20.1-2.5c12.4-15-37.8-30.7-10.6-45.6
		c-4.9-0.6-10-1-15.3-1.4C559.7,192.8,621.5,209.7,599.5,226L599.5,226z M649.7,215.4c-4.3-11.1-28.2-22.4-17-33.4
		c-4.4-1.1-9.2-2-14.2-2.8c-21.2,13.6,19,27.9,14.1,41.6C638.4,219.6,644.2,217.7,649.7,215.4z M664.6,201.4c0-1.3-0.3-2.6-1-3.7
		c-0.9-1.1-1.8-2.2-2.6-3.4c-5.5-4.5-11.9-7.8-18.8-9.7c-4.5,8.5,9.4,17.2,16.5,25.8C662,208.5,664.2,205.2,664.6,201.4z"/>
	<path class="st9" d="M514.6,331.6c3.3,6.1,7.1,12,11.3,17.5c10.6,4,29.1,8.7,40.7,8.5c2.1-4.6,4-9.3,5.5-14.1
		C552.5,342.7,533.1,338.7,514.6,331.6z"/>
	<path class="st5" d="M547.8,342c-0.4-0.1-0.8,0.2-0.9,0.6c0,0,0,0,0,0v0.8c-8.9-1.4-17.5-3.9-25.8-7.2c2,4,4.3,7.9,6.8,11.5
		c5.6,2.3,11.3,4.1,17.3,5.1v0.8c-0.1,0.4,0.1,0.8,0.5,1c0.4,0.1,0.8-0.1,1-0.5c0-0.1,0-0.1,0-0.2l1.9-11.1
		C548.6,342.4,548.2,342,547.8,342C547.8,342,547.8,342,547.8,342z"/>
	<path class="st10" d="M545.5,62.9c0,0,3.2,1.6,3.6,2.6c0.4,1-0.5,2.3-0.5,2.3l-3.8-2.4L545.5,62.9z"/>
	<path class="st10" d="M544.3,67.6c1.3,0.8,2.5,1.7,3.6,2.8c-0.1,1.4-0.3,2.8-0.8,4.1c-0.3-0.7-0.9-1.3-1.6-1.6
		c-0.8-0.2-1.5-0.3-2.3-0.3L544.3,67.6z"/>
	<path class="st11" d="M553.7,280L553.7,280l-2.3-1.3l0,0L553.7,280z M559.9,279.3c16.6-1.2,12.3-24.8-4.5-18.9
		c5.9,0.3,14.8,9.9,4.4,19.1L559.9,279.3z M556.8,312.4c4-1.7,7.1-5.2,8.3-9.4c0.7-3.4,0.5-6.9-0.5-10.2l0,0
		c-1.9-6.3-4.2-9-10.8-12.7l0,0c-0.8-0.3-1.5-0.7-2.1-1.2c-1.1-0.6-0.8-0.4,0,0c-1.4-1.2-2.3-2.8-2.6-4.6c-0.6-3.2-0.1-6.5,1.4-9.5
		c1.5-3.3,1.8-7.1,0.7-10.6c-3.1-0.2-6-0.5-9-0.7c0,0.3,0,0.5,0.2,0.8c1.1,5,0,9.5-2.7,10c-2.7,0.5-5.7-3.2-6.8-8.2
		c-0.3-1.2-0.4-2.4-0.4-3.7c-24.4-3.2-44.5-8.8-56.9-15.8c5.4,28.5,12.1,49.4,24.3,71c10.4-1.6,15.9,10.5,12.5,17.9
		c13.1,4.7,26.7,7.9,40.5,9.7c-1.2-2.1-2.1-4.4-2.4-6.7c-1.3-8.5,2.5-13.8,6.2-15.9L556.8,312.4z M501.3,265.6
		c-2.7,0.4-5.5-3.2-6.5-8c-0.9-4.8,0.7-9,3.2-9.4s5.5,3.2,6.5,8.1C505.5,261.1,503.9,265.3,501.3,265.6L501.3,265.6z M528.5,289
		c-2.6,0.6-5.8-2.7-7.1-7.5c-1.3-4.7-0.3-9.1,2.3-9.7s5.8,2.7,7.2,7.5c1.4,4.7,0.3,9.2-2.5,9.8L528.5,289z M546.2,297.3
		c-1.4-4.6-0.4-8.9,2.2-9.7c2.6-0.7,5.8,2.6,7.3,7.2c1.4,4.6,0.4,8.9-2.2,9.7c-2.6,0.7-6-2.5-7.4-7.1L546.2,297.3z M557.9,316.3
		c-0.9,0.2-1.7,0.5-2.4,1c3.5,1.3,6.2,4.2,7.2,7.8c1.2,3.5,0.2,7.3-2.7,9.7c1,0.3,2.1,0.4,3.2,0.2c4.3-0.8,6.5-5.6,5.1-10.8
		c-1.1-4.8-5.6-8.1-10.5-7.8L557.9,316.3z"/>
	<path class="st11" d="M612.9,29.6c0,0-4.6-3.6-21-5.7c-13.4-1.9-27.1-0.4-39.9,4.3c-2.8,5.6-12,11.3-18.4,8.1
		c-3.7,2-7.2,4.3-10.7,6.7c1.5,4.1-6.2,10.9-12.1,9.8c-3.4,3.1-6.6,6.5-9.7,9.9c17.3-3.4,35-4.1,52.6-2c0.6-1.8,1.5-3.4,2.7-4.8
		c3.2-4,7.7-6,9.7-4.3s1.2,6.2-2.1,10.3l-0.3,0.3c4,0.6,8,1.3,12,2.2c0.8-1,1.7-2.6,1.3-3.6c-1-3.2-0.8-6.6,0.6-9.7
		c2.4-4.8,8.7-4,9.7-5.7C593.4,37.3,603.4,32.6,612.9,29.6z M537.6,52.9c-4.1,3.2-8.8,4.3-10.5,2.3s0-6.5,4.2-9.7
		c4.2-3.2,8.8-4.3,10.5-2.3S541.5,49.6,537.6,52.9z M563.1,40c-4.8,2.2-9.7,2.1-10.8-0.3s1.7-6.1,6.5-8.3c4.7-2.2,9.7-2.1,10.8,0.3
		s-1.8,6.1-6.6,8.2L563.1,40z M591.9,49.4c1.4,1.3,1.3,17.2-12.2,13.3c0.7,0.8,2.9,3.2,9.3,2.9s12.4-10.1,2.7-16.2L591.9,49.4z"/>
	<polygon class="st12" points="543,72.9 496.8,73.6 500.2,60.7 546.4,58.9 	"/>
	<polygon class="st13" points="546.4,58.9 543,72.9 546.8,75.7 550.1,62.2 	"/>
	<path class="st14" d="M496.8,73.6v-0.2 M546.7,75.7l-50-2.1l3.2,2.8L546.7,75.7l-3.7-2.9L546.7,75.7z"/>
	<path class="st14" d="M498,68.8l1.5-5.5c23.6,2.9,31.6-2.7,45.9-0.5l-0.6,2.4c-1.2,0.6-2.5,1-3.8,1.3c-1.9,0.2-20-1.6-26.7,0
		C509.1,67.2,504,69.7,498,68.8z M510.2,62c3.2-0.6,6.5-1.4,10.1-2.1l-20,0.8l-0.3,1C503.4,62.2,506.8,62.3,510.2,62L510.2,62z
		 M514.7,71.7c0-0.5-6.1-1.6-16.8-2l-0.8,2.8c5.8-0.9,11.7-1.2,17.6-1L514.7,71.7z M513.8,69.7c9.5-0.5,19,0.5,28.2,2.7l1.1,0.2
		l1.2-4.9C525.1,66.9,513.9,68.9,513.8,69.7L513.8,69.7z"/>
	<polygon class="st1" points="547.5,62.2 545,71.9 550.4,75.9 552.8,66.7 	"/>
</g>
</svg>
