<?xml version="1.0" encoding="utf-8"?>
<!-- Generator: Adobe Illustrator 24.0.1, SVG Export Plug-In . SVG Version: 6.00 Build 0)  -->
<svg version="1.1" id="Layer_6" xmlns="http://www.w3.org/2000/svg" xmlns:xlink="http://www.w3.org/1999/xlink" x="0px" y="0px"
	 width="699.2px" height="452.4px" viewBox="0 0 699.2 452.4" style="enable-background:new 0 0 699.2 452.4;" xml:space="preserve"
	>
<style type="text/css">
	.st0{fill-rule:evenodd;clip-rule:evenodd;fill:#FFFFFF;}
	.st1{fill-rule:evenodd;clip-rule:evenodd;fill:#DA1F26;}
</style>
<g>
	<path class="st0" d="M4.8,141.3h689.4v166.5H4.8V141.3z"/>
	<polygon class="st1" points="18.1,294.5 680.9,294.5 680.9,154.7 18.1,154.7 18.1,294.5 	"/>
	<path class="st0" d="M191.8,186.9l-10.6,9.2v66.5h18.2v-25.2H213v25.2h18.2v-66.5l-10.6-9.2H191.8z M213,220.6h-13.7V203H213V220.6
		z M51.4,197.6v54.3L62,262.6h30.4v-16.8H71.1v-42.1h21.2v-16.8H62L51.4,197.6z M159.9,224.4v-28.3l-13.7-9.2h-35.7v75.7h19.7v-28.3
		l15.3,28.3h21l-17.2-31.4L159.9,224.4z M141,219.8h-10.6v-16.1h10.6L141,219.8z M529.4,186.9l-10.6,9.2v66.5H537v-25.2h13.7v25.2
		h18.2v-66.5l-10.6-9.2H529.4z M550.6,220.6H537V203h13.7L550.6,220.6z M624.1,262.6l-17.5-40.1v40.1h-18v-75.7h17.6l17.5,40.1
		v-40.1h18v75.7H624.1 M660.5,245c4.9,0,8.8,3.9,8.8,8.8c0,4.9-3.9,8.8-8.8,8.8c-4.9,0-8.8-3.9-8.8-8.8
		C651.7,248.9,655.6,245,660.5,245C660.5,245,660.5,245,660.5,245z M667.7,253.8c-0.1-4-3.4-7.2-7.4-7.1c-4,0.1-7.2,3.4-7.1,7.4
		c0.1,4,3.3,7.1,7.3,7.1C664.5,261.2,667.8,257.9,667.7,253.8C667.7,253.8,667.7,253.8,667.7,253.8z M657,248.7h4c2.3,0,3.5,1,3.5,3
		c0.1,1.5-1.1,2.8-2.6,2.9c-0.1,0-0.1,0-0.2,0l2.9,4.4h-1.6l-2.9-4.3h-1.7v4.3H657L657,248.7z M660.2,253.3c1.4,0,2.7-0.1,2.7-1.6
		c0-1.4-1.1-1.5-2.2-1.5h-2.1v3.1H660.2z M301,205.3H317v57.4h19.7v-57.4h12.5l5.7-18.3h-48.2L301,205.3z M250.9,262.6h20.5v-26.8
		H287V219h-15.6v-14.5h17.4v-17.6h-38V262.6z M411.8,186.9H367l-4.6,19.2l27.3,39.8h-27.3l-5.3,16.8h48.9l5.6-17.6l-29.5-40.5h24.3
		L411.8,186.9z M446.7,218.3l11.4,26.8h8.3l11.4-26.8v44.4h19.7v-75.7H474l-11.7,27.7l-11.8-27.7H427v75.7h19.7L446.7,218.3z"/>
</g>
</svg>
