<?xml version="1.0" encoding="utf-8"?>
<!-- Generator: Adobe Illustrator 24.0.1, SVG Export Plug-In . SVG Version: 6.00 Build 0)  -->
<svg version="1.1" id="Layer_7" xmlns="http://www.w3.org/2000/svg" xmlns:xlink="http://www.w3.org/1999/xlink" x="0px" y="0px"
	 width="699.2px" height="452.4px" viewBox="0 0 699.2 452.4" style="enable-background:new 0 0 699.2 452.4;" xml:space="preserve"
	>
<style type="text/css">
	.st0{fill:#414042;}
	.st1{clip-path:url(#SVGID_2_);}
	.st2{fill:#7AC143;}
</style>
<g>
	<polyline class="st0" points="684.4,165.8 684.4,168.3 681.1,168.3 681.1,180.6 678.3,180.6 678.3,168.3 674.9,168.3 674.9,165.7 
		684.4,165.8 	"/>
	<g>
		<defs>
			<rect id="SVGID_1_" x="5.2" y="158.8" width="694" height="137.8"/>
		</defs>
		<clipPath id="SVGID_2_">
			<use xlink:href="#SVGID_1_"  style="overflow:visible;"/>
		</clipPath>
		<g class="st1">
			<polyline class="st0" points="686.1,180.6 686.1,165.8 690,165.8 692.6,175.5 692.7,175.5 695.2,165.8 699.2,165.8 699.2,180.6 
				696.8,180.6 696.8,168.9 696.7,168.9 693.7,180.6 691.6,180.6 688.5,168.9 688.5,168.9 688.5,180.6 686.1,180.6 			"/>
			<path class="st2" d="M202.6,280c-3.8,10.4-15.7,16.6-26.8,16.6H19.5c-11.1,0-17-6.2-13.2-16.6s15.7-16.6,26.8-16.6h156.3
				C200.5,263.5,206.4,269.6,202.6,280"/>
		</g>
	</g>
	<path class="st2" d="M173.3,227.7c-3.8,10.4-15.7,16.6-26.8,16.6H38.5c-11.1,0-17-6.2-13.2-16.6c3.8-10.4,15.7-16.6,26.8-16.6
		h107.9C171.1,211.1,177,217.3,173.3,227.7"/>
	<path class="st2" d="M235.2,175.3c-3.8,10.4-15.7,16.6-26.8,16.6h-152c-11.1,0-17-6.2-13.2-16.6C46.9,165,59,158.8,70,158.8h152
		C233,158.8,238.9,165,235.2,175.3"/>
	<path class="st0" d="M476.7,296c-16.4,0-53.1-3.9-30.6-56.8l9.4-22.2c15.2-35.7,36.9-58,77.7-58h89.6c35.3,0,47.7,21.3,32.7,56.6
		l-9.4,22.2c-15.1,35.5-28.4,58.2-85.2,58.2H476.7 M570,262.9c17.3-0.1,30.9-6.2,36.5-19.2l14-33c5.5-13-2.9-18.9-20.3-18.8h-68.4
		c-17.7,0.1-31.2,6.1-36.8,19.3l-14,32.9c-5.5,13,2.9,18.9,20.6,18.8L570,262.9z"/>
	<path class="st0" d="M429.6,158.8H315.1c-1.8,0-3.7,0.2-5.5,0.4c-37.4,1.9-57.8,23.8-72.3,57.9l-9.4,22.2
		c-22.5,52.8,14.3,56.8,30.6,56.8h84.2c56.8,0,70.1-22.7,85.2-58.2l3.6-8.4l0,0c0.3-0.6,0.5-1.1,0.7-1.7
		c3.7-10.4-2.2-16.6-13.2-16.6h-84.5c-11.1,0-23.1,6.2-26.8,16.6s2.1,16.6,13.2,16.6H388c-5.7,12.6-19.1,18.6-36.2,18.7h-68.4
		c-17.7,0.1-26.1-5.8-20.6-18.8l14.1-32.9c5.5-13,19.1-19.1,36.7-19.2l0,0h102.3c11.1,0,23.1-6.2,26.8-16.6
		C446.5,165.1,440.6,158.8,429.6,158.8"/>
</g>
</svg>
