<?xml version="1.0" encoding="utf-8"?>
<!-- Generator: Adobe Illustrator 24.0.1, SVG Export Plug-In . SVG Version: 6.00 Build 0)  -->
<svg version="1.1" id="Layer_4" xmlns="http://www.w3.org/2000/svg" xmlns:xlink="http://www.w3.org/1999/xlink" x="0px" y="0px"
	 width="699.2px" height="452.4px" viewBox="0 0 699.2 452.4" style="enable-background:new 0 0 699.2 452.4;" xml:space="preserve"
	>
<style type="text/css">
	.st0{fill:#231F20;}
	.st1{fill:#FEBC18;}
</style>
<rect x="4.8" y="118.8" class="st0" width="689.4" height="211.9"/>
<path class="st0" d="M331.3,230.6"/>
<rect x="34.5" y="148.5" class="st1" width="630.1" height="11.9"/>
<rect x="34.5" y="288.9" class="st1" width="630.1" height="11.9"/>
<polygon class="st1" points="569,166.4 664.6,166.4 664.6,199.3 638.7,199.3 638.7,282.6 594.8,282.6 594.8,199.3 569,199.3 "/>
<polygon class="st1" points="503.3,166.4 503.3,282.6 582.9,282.6 582.9,248 547.1,248 547.1,166.4 "/>
<path class="st1" d="M410.2,166.4h48.1l36.9,116.3h-42.8L448,265h-26.9l-3.9,17.7h-44.8L410.2,166.4z M427.1,239.1H442l-7.3-33.9
	L427.1,239.1z"/>
<polyline class="st1" points="393.5,166.4 350.6,166.4 338.7,223.2 325.7,166.4 287.9,166.4 275.7,223.2 264,166.4 221.2,166.4 
	253.2,282.6 292.9,282.6 306.2,225.9 319.9,282.6 360.6,282.6 393.5,166.4 "/>
<polygon class="st1" points="156,191.3 219.8,191.3 219.8,215.2 188.9,215.2 188.9,225.1 215.8,225.1 215.8,249.1 188.9,249.1 
	188.9,259 219.8,259 219.8,282.6 156,282.6 "/>
<path class="st1" d="M34.5,282.6V166.4H89c32.2,0,57.8,17.4,57.8,58.4c0,39.8-24.8,57.9-57.9,57.9L34.5,282.6z M79.5,247.8
	c13.8,0,22.9-5.8,22.9-23.5c0-19.4-9-24.6-22.8-24.6H76v48.1L79.5,247.8z"/>
<path class="st1" d="M644.6,273c-0.1-5.3,4.2-9.7,9.5-9.8c5.3-0.1,9.7,4.2,9.8,9.5c0.1,5.3-4.2,9.7-9.5,9.8c0,0-0.1,0-0.1,0
	c-5.2,0.1-9.6-4.1-9.7-9.3C644.6,273.1,644.6,273,644.6,273z M654.3,280.9c4.4,0.1,8-3.4,8.1-7.7s-3.4-8-7.7-8.1
	c-4.4-0.1-8,3.4-8.1,7.7c0,0.1,0,0.1,0,0.2c-0.1,4.3,3.2,7.8,7.5,8C654.1,280.9,654.2,280.9,654.3,280.9L654.3,280.9z M652.4,274.2
	h1.5l2.1,3.5h2.4l-2.4-3.7c1.6-0.1,2.9-1.5,2.8-3.1c0,0,0-0.1,0-0.1c0-1.7-1.3-2.9-3.9-2.9h-4.2v9.8h1.8L652.4,274.2z M652.4,272.6
	v-3.1h2.1c1.2,0,2.5,0,2.5,1.5s-1.1,1.6-2.5,1.6H652.4z"/>
</svg>
