<?xml version="1.0" encoding="utf-8"?>
<!-- Generator: Adobe Illustrator 24.0.1, SVG Export Plug-In . SVG Version: 6.00 Build 0)  -->
<svg version="1.1" id="Layer_3" xmlns="http://www.w3.org/2000/svg" xmlns:xlink="http://www.w3.org/1999/xlink" x="0px" y="0px"
	 width="699.2px" height="452.4px" viewBox="0 0 699.2 452.4" style="enable-background:new 0 0 699.2 452.4;" xml:space="preserve"
	>
<style type="text/css">
	.st0{fill:#ED1C24;}
	.st1{fill:#FFFFFF;}
</style>
<g>
	<path d="M36.9,80.8c-18.9,0-32.1,14-32.1,33.6v222.7c0,18.3,15,33.2,33.8,33.2h623c17.1,0,32.6-15.3,32.6-32.8v-224
		c0-18.3-14.6-32.8-33-32.8H36.9z"/>
	<path class="st0" d="M628.2,288.3c-0.9,0-1.3,0-2.1,0l-13.7-39.7c3.4-1.3,5.1-2.6,5.1-4.4c0-2.2-3.4-3.9-8.6-5.2l-4.3-11.8
		c17.1-7.9,26.6-26.6,26.6-34.5c0.4-1.7,0.4-4.8,0.4-4.8c-0.4-1.3,1.3-0.9,1.3-0.9c2.1-1.3,0.4-7.4,0-7.4c-0.4,0-1.7,0.4-2.1-0.4
		c-4.3-18.8-21.4-23.1-34.7-24.5c0.4-0.9,0.4-3.1,0.4-4.4c0-0.4,0-0.9,0-1.3h0.4c1.7,0,3-1.3,3-3.1s-1.3-3.1-3-3.1
		c0,0-3-0.4-10.7-0.4c-7.3,0-10.3,0.4-10.3,0.4c-1.7,0-3,1.3-3,3.1c0,1.3,1.3,2.6,2.6,3.1c0,0.4,0,0.9,0,1.3c0,0.9,0,3.1,0.4,3.9
		c-13.3,0.4-33,3.1-36.8,24.5c0,0-1.3,0-1.7,0c-0.9,0-2.1,5.7-0.9,7.9c0.4,0.9,1.3,0.4,2.6,0.4c0.4,2.2,0.4,2.6,0.9,5.7
		c0.9,9.2,9.4,26.2,25.7,34.1l-4.7,12.7c-6,1.3-9.9,3.1-9.9,5.7c0,1.7,2.1,3.5,6,4.8l-23.6,63.8h5.1l4.7-12.2H615
		c0,7,5.6,12.2,12.4,12.2c6.9,0,12.4-5.7,12.4-12.7C640.7,293.9,635.1,288.3,628.2,288.3z M604.2,238c-4.7-0.9-10.3-1.3-16.7-1.3
		v-6.6c4.3,0,9,0,13.3-1.7L604.2,238z M603.4,289.6l5.6,3.1l-25.7,0.4L603.4,289.6z M592.3,288.7c1.3-0.9,2.1-2.2,3-3.5l4.3,2.2
		L592.3,288.7z M592.7,148.1c0,0.4,0,0.9,0,1.3c0,1.3,0,3.5,0.4,4.4h-12c0.4-0.9,0.4-3.1,0.4-4.4c0-0.4,0-0.9,0-1.3
		C581.5,148.1,592.7,148.1,592.7,148.1z M570.4,227.5c4.3,1.7,8.1,2.6,12.9,2.6v6.6c-6,0-12,0.4-16.7,1.3L570.4,227.5z M562.3,250.3
		c5.6,1.3,12.9,2.2,21,2.2v14c-6.4,0.9-11.1,6.1-11.1,12.7c0,1.7,0.4,3.1,0.9,4.4l-27,11.8L562.3,250.3z M574.7,286.5
		c1.3,2.2,3.4,3.5,6,4.4l-28.3,4.8L574.7,286.5z M616.2,297.4l-59.1-0.4l16.3-2.2h40.3h-0.4l3.4,1.7
		C616.7,297,616.2,297,616.2,297.4z M618.4,293.5L597,282.6c0.4-1.3,0.4-2.2,0.4-3.5c0-5.7-3.9-10.9-9.4-12.2v-14.4
		c8.1,0,15.4-0.9,20.6-2.6l13.7,39.7C620.5,290.9,619.2,292.2,618.4,293.5z"/>
	<g>
		<g>
			<path class="st1" d="M478.7,307c0-3.1,2.1-5.2,5.1-5.2c2.6,0,5.1,2.2,5.1,5.2c0,3.1-2.1,5.2-5.1,5.2S478.7,310.1,478.7,307z
				 M483.8,313.1c3.4,0,6.4-2.6,6.4-6.1c0-3.5-3-6.1-6.4-6.1s-6.4,2.6-6.4,6.1C477.4,310.5,480.4,313.1,483.8,313.1z M482.6,307.5
				h1.3l1.7,3.1h1.3l-2.1-3.1c0.9,0,1.7-0.9,1.7-2.2c0-1.3-0.9-2.2-2.6-2.2h-2.6v7.4h0.9v-3.1H482.6z M482.6,306.6v-2.2h1.3
				c0.9,0,1.7,0,1.7,0.9c0,1.3-0.9,1.3-1.7,1.3H482.6z"/>
		</g>
		<g>
			<path class="st1" d="M649.2,307c0-3.1,2.1-5.2,5.1-5.2c2.6,0,5.1,2.2,5.1,5.2c0,3.1-2.1,5.2-5.1,5.2
				C651.4,312.3,649.2,310.1,649.2,307z M654.4,313.1c3.4,0,6.4-2.6,6.4-6.1c0-3.5-3-6.1-6.4-6.1c-3.4,0-6.4,2.6-6.4,6.1
				C648,310.5,651,313.1,654.4,313.1z M653.1,307.5h1.3l1.7,3.1h1.3l-2.1-3.1c0.9,0,1.7-0.9,1.7-2.2c0-1.3-0.9-2.2-2.6-2.2h-2.6v7.4
				h0.9v-3.1H653.1z M653.1,306.6v-2.2h1.3c0.9,0,1.7,0,1.7,0.9c0,1.3-0.9,1.3-1.7,1.3H653.1z"/>
		</g>
		<path class="st1" d="M76.4,166c0-10.5-9.9-5.7-9.9-12.2v-5.7h33.8c0,2.2,0,149.8,0,149.8c0,4.4,3.9,7,7.3,7c3.4,0,6.9-2.2,7.3-7
			c0,0,0-148,0-149.8c1.7,0,18,0,20.1,0c0,2.2,0,149.8,0,149.8c0,2.6,1.3,4.8,3.4,6.1c2.6,1.3,5.6,1.3,8.1,0c2.1-1.3,3-3.5,3-6.1
			c0,0,0-148,0-149.8c1.7,0,22.7,0,24.4,0c0,2.2,0,140.2,0,140.2c0,18.3-17.1,28.4-48.8,28.4c-32.1,0-48.8-9.6-48.8-28.4L76.4,166z
			 M424.7,242c0,2.2,0,52.8,0,52.8c0,8.7-9.4,21-29.6,21h-4.3c-20.1,0-29.6-12.7-29.6-21V165.5c0-7.4,8.6-21,29.6-21h4.3
			c21,0,29.6,13.5,29.6,21c0,0,0,59,0,61.1c-2.1,0-39,0-39,0v72.9c0,4.4,3.4,6.1,6.9,6.1c3.4,0,7.3-2.2,7.3-6.1c0,0,0-55.5,0-57.6
			C402,242,423,242,424.7,242z M386.2,207h14.1v-46.7c0-1.7-0.9-3.1-2.6-4.4c-2.6-1.3-6.9-1.3-9.4,0c-1.7,0.9-2.6,2.2-2.6,3.9
			L386.2,207z M257.6,242c0,2.2,0,52.8,0,52.8c0,8.7-9.4,21-29.6,21h-4.3c-20.1,0-29.6-12.7-29.6-21V165.5c0-7.4,8.6-21,29.6-21h4.3
			c21,0,29.6,13.5,29.6,21c0,0,0,59,0,61.1c-2.1,0-39,0-39,0v72.9c0,4.4,3.4,6.1,6.9,6.1c3.4,0,7.3-2.2,7.3-6.1c0,0,0-55.5,0-57.6
			C234.9,242,255.5,242,257.6,242z M218.6,207h14.1v-46.7c0-1.7-0.9-3.1-2.6-4.4c-2.6-1.3-6.9-1.3-9.4,0c-1.7,0.9-2.6,2.2-2.6,3.9
			L218.6,207z M435.4,148.1v5.7c0,6.1,9.9,1.7,9.9,12.2v147.6c2.1,0,22.7,0,24.4,0c0-1.3,0-139.7,0-154.2c0.4-1.3,1.3-2.6,2.6-3.5
			c2.6-1.3,6.4-1.3,9,0c1.7,0.9,2.6,2.6,2.6,4.8c0,0,0,63.8,0,65.9c1.7,0,23.1,0,24.9,0c0-2.2,0-65.5,0-65.5c0-7-3.9-10.5-7.3-12.2
			c-8.1-4.4-21-6.1-30,0.4l-1.7,1.3v-2.6H435.4z M682.7,113.6v224c0,10.9-9.9,21-20.6,21H38.7c-12.4,0-21.9-9.2-21.9-21V114.9
			C16.8,101.8,25,93,36.9,93h624.7C673.2,92.6,682.7,101.8,682.7,113.6z M673.2,113.6c0-6.6-5.1-10.9-11.6-10.9H302.6
			c0,13.5,0,47.6,0,47.6l1.7-1.7c3.4-3.5,15.9-5.2,25.3-0.9c7.7,3.5,11.6,10.9,11.6,21.4v126.2c0,8.7-11.1,21-32.1,21
			c-21.4,0-31.7-12.7-31.7-21V110.5c0-6.6-3.9-7-6.9-8.3H36.9c-7.7,0-10.7,5.2-10.7,12.2v222.7c0,6.6,5.6,11.4,12.4,11.4h623
			c6,0,11.1-5.7,11.1-11.4V113.6H673.2z M302.6,300c0,3.9,3.4,6.1,6.9,6.1c3.4,0,6.9-2.2,6.9-6.1V159.9c0-2.6-2.6-4.8-6.9-4.8
			c-3.4,0-7.3,1.7-7.3,4.8L302.6,300z"/>
	</g>
</g>
</svg>
