<?xml version="1.0" encoding="utf-8"?>
<!-- Generator: Adobe Illustrator 24.0.1, SVG Export Plug-In . SVG Version: 6.00 Build 0)  -->
<svg version="1.1" id="Yeti" xmlns="http://www.w3.org/2000/svg" xmlns:xlink="http://www.w3.org/1999/xlink" x="0px" y="0px"
	 width="699.2px" height="452.4px" viewBox="0 0 699.2 452.4" style="enable-background:new 0 0 699.2 452.4;" xml:space="preserve"
	>
<style type="text/css">
	.st0{fill-rule:evenodd;clip-rule:evenodd;fill:#001738;}
	.st1{fill:#001738;}
</style>
<polygon class="st0" points="5.7,134.2 69.8,134.2 107.6,197.3 145.3,134.2 209,134.2 136.4,242.8 136.4,321.1 78.5,321.1 
	78.5,242.8 "/>
<polygon class="st0" points="222.2,134.2 377,134.2 377,180.3 280.1,180.3 280.1,207.4 365.1,207.4 365.1,249.1 280.1,249.1 
	280.1,275.9 379.8,275.9 379.8,321.1 222.2,321.1 "/>
<polygon class="st0" points="400.5,134.2 576,134.2 576,180.4 517.1,180.4 517.1,321.1 459.4,321.1 459.4,180.4 400.5,180.4 "/>
<rect x="596.8" y="134.2" class="st1" width="57.8" height="186.9"/>
<path class="st0" d="M668.2,140.9c-1.9,1.9-3,4.4-3,7.1c-0.1,2.8,1,5.5,3.1,7.5c4,4.1,10.5,4.1,14.6,0.1c0,0,0.1-0.1,0.1-0.1
	c2-2,3.1-4.7,3.1-7.5c0-2.8-1.1-5.4-3.1-7.3c-3.9-4.1-10.4-4.2-14.5-0.3c-0.1,0.1-0.2,0.2-0.3,0.3 M684.5,157.1
	c-2.3,2.3-5.5,3.6-8.9,3.6c-3.4,0.1-6.6-1.2-9-3.7c-2.4-2.4-3.7-5.6-3.7-9c-0.1-3.5,1.4-6.9,4-9.2c2.3-2.2,5.4-3.5,8.7-3.5
	c3.4,0,6.6,1.3,8.9,3.7c2.4,2.3,3.8,5.6,3.7,8.9C688.3,151.4,687,154.7,684.5,157.1 M676.8,143.8c-0.7-0.1-1.4-0.1-2.1,0h-0.9v3.8
	h1.4c0.7,0,1.4-0.2,2-0.5c0.5-0.4,0.8-1,0.7-1.7C677.9,144.6,677.5,144,676.8,143.8 M670.1,155v-14.1h6.7c1,0,1.9,0.3,2.8,0.7
	c1.2,0.7,2,2,1.9,3.4c0.1,1-0.3,1.9-1,2.5c-0.7,0.6-1.5,0.9-2.4,0.9c0.7,0.1,1.4,0.4,2,0.8c0.9,0.8,1.3,2,1.2,3.1v1.3c0,0,0,0,0,0.4
	c0,0.1,0,0.3,0,0.4v0.4h-3.5c-0.1-0.6-0.1-1.3,0-1.9c0.1-0.6,0.1-1.2,0-1.7c-0.2-0.5-0.5-0.8-1-1h-1.3h-1.6v5L670.1,155z"/>
</svg>
