<?xml version="1.0" encoding="utf-8"?>
<!-- Generator: Adobe Illustrator 24.0.1, SVG Export Plug-In . SVG Version: 6.00 Build 0)  -->
<svg version="1.1" id="Layer_9" xmlns="http://www.w3.org/2000/svg" xmlns:xlink="http://www.w3.org/1999/xlink" x="0px" y="0px"
	 width="699.2px" height="452.4px" viewBox="0 0 699.2 452.4" style="enable-background:new 0 0 699.2 452.4;" xml:space="preserve"
	>
<style type="text/css">
	.st0{fill:#E11837;}
	.st1{fill:#DB1736;}
	.st2{fill:#FFFFFF;}
</style>
<g>
	<path class="st0" d="M614.5,452.4c44,0,79.7-35.6,79.8-79.6c0,0,0,0,0,0V79.6c0-44-35.8-79.7-79.8-79.6c0,0,0,0,0,0H85
		C41,0,5.3,35.6,5.2,79.6v293.2c0,44,35.7,79.7,79.7,79.6H614.5z"/>
	<path class="st1" d="M359.6,226.2"/>
	<path class="st2" d="M626.2,298.1h-4.1v-19.3h7.4c5,0,7.9,1.4,7.9,5.8c0.3,2.5-1.5,4.7-3.9,5c-0.2,0-0.4,0-0.7,0l4.9,8.4h-4.9
		l-4.4-8.1h-2.1V298.1z M629.9,286.7c1.8,0,2.9-0.4,2.9-2.5s-2.1-2.1-3.7-2.1h-2.9v4.6H629.9z M629.2,306.4
		c-9.9,0-17.8-8.1-17.8-17.9c0-9.9,8.1-17.8,17.9-17.8c9.8,0,17.8,8,17.8,17.9c0.3,9.5-7.2,17.5-16.7,17.8c-0.3,0-0.7,0-1,0
		L629.2,306.4z M629.2,274.8c-7.6,0.6-13.2,7.3-12.6,14.9c0.6,6.7,5.9,12,12.6,12.6l0,0c7.6-0.3,13.5-6.7,13.2-14.3
		c-0.3-7.1-5.9-12.8-13-13.2L629.2,274.8z"/>
	<path class="st2" d="M602.5,169.7c21.4,18.4,30.7,47.3,24,74.7c-8,28.8-36.1,58.5-67,61.8c-30.1,1.9-56.1-21.7-69-47.1
		c-13.1-22.8-8.5-55.9,6.6-76.3c14.4-18.5,36.7-32.3,56.5-32.3C572.3,150.6,588.3,158.5,602.5,169.7z M548.4,160
		c-12.4,3.3-15.9,15.9-17.8,27.3c-3.8,24.3-4,49-0.7,73.3c1.7,12.6,3.3,23.8,12.2,32.9c5.5,4.7,13,6.3,19.9,4
		c8.3-2.5,12.8-10.5,15.4-18.3c6.8-21.2,6.1-45.2,5.5-69c-0.4-14.8-0.9-30.2-8.4-42.4C568.7,159.6,558.1,158.1,548.4,160z"/>
	<path class="st2" d="M467.8,173.4c5.7,7.3,7.4,17.1,4.4,25.9c-7.2,17.7-25.8,24.5-42.5,27.3c0,0,4.4,0.8,10.9,2.4
		c15.5,4,26,9.9,29.3,18.8c4.4,12.8,1.5,29.2,2.6,43.1c0.3,2.2,1.8,4.1,3.9,4.8c5.5,2.3,10.7-7.5,14.1-1.3c0.6,1.9,0,4-1.5,5.3
		c-5.2,4.2-10.1,5.4-17.8,6.6c-14.8,2.5-30.5,0.2-39.4-12.3c-9.9-13.5-1-34.2-4.3-53.5c-0.8-4-3.4-7.4-7.1-9.1
		c-4.9-2.2-9.9-1.8-19.9-1.8v55.9c-0.3,3.8,1.6,7.5,5,9.4c5.2,2.7,10.2,0.5,14.5,2.9c1.2,0.5,1.9,1.7,1.7,3c0,2.2-1.7,3.9-3.9,3.9
		c-0.1,0-0.2,0-0.3,0l-77.2-0.2c-1.5-0.3-2.9-1.3-3.5-2.7c-0.6-1.8,0.3-3.7,1.9-4.5c5.1-1.6,11.4,0,15.1-5
		c3.1-4.6,4.6-10.1,4.2-15.6v-96.6c0-6.8,0.8-12.9-5.3-15.9c-4-1.3-8.2-2.2-12.4-2.7c-1.4-0.7-2.3-2.1-2.3-3.7
		c-0.1-1.9,1.4-3.6,3.3-3.9h14.5h40.6C428.1,154,450.2,152.7,467.8,173.4z M400.2,162.9v57.8c6.7,0.3,13.4,0.1,20-0.7
		c5-1,8.9-4.9,9.9-9.9c2.9-13,2.5-26.6-1.1-39.4C426.3,162.5,419.2,162.9,400.2,162.9L400.2,162.9z"/>
	<path class="st2" d="M319,169.3c22.2,17.3,32,46.1,25,73.3c-7.5,29.6-35.5,63.8-70.7,63.9c-20.8,0-38.5-10.9-52.6-27.1
		c-7.1-8.1-12.5-17.7-15.6-28c-3.7-15-5.9-30.2-6.6-45.6c-1.1-18.1-5.4-32.9-20.3-41.5c-3.3-1.7-11.9-1.3-17.9-1.3v118.3
		c0,5,1,10.9,6,14c4.4,2.5,10.3,1.5,15.5,2.3c1.2,0.4,2.1,1.4,2.1,2.7c0.4,2.1-1,4.2-3.1,4.6c-0.1,0-0.3,0-0.4,0.1H94.1
		c-1.4-0.3-2.4-1.4-2.6-2.8c-0.3-1.2,0-2.4,0.9-3.3c3.6-2.6,8.9-0.9,13.3-2c2.9-0.7,5.5-2.5,7.1-5.1c2.3-4.7,3.5-9.9,3.3-15.1V163
		c0,0-14.9-1-20.1,2.3c-16.8,11.4-18.4,31-19.5,49.8c-0.2,1.2-1.1,2.2-2.3,2.5c-1.1,0.4-2.4,0.2-3.4-0.4c-1.5-1.2-2.3-3.1-1.9-5.1
		v-58.2l138-0.4l0.2,1.9v39l0.2,0.2c10.9-24.2,40-44.1,64.5-44.1C290,150.7,304.6,157.7,319,169.3z M277.2,159.6
		c-9.9-1.3-20.1,1.9-24.3,10.4c-8.6,18-7.9,40.3-7.9,61.4s0.9,39.7,9.1,56.3c5.2,10,17.5,13.9,27.5,8.7c3.7-1.9,6.7-5,8.7-8.7
		c11.1-22.3,9.6-50,9.4-76.7c-0.7-15-1-30.2-8.2-42.7C288.2,163.5,283,160.4,277.2,159.6z"/>
</g>
</svg>
