<?xml version="1.0" encoding="utf-8"?>
<!-- Generator: Adobe Illustrator 24.0.1, SVG Export Plug-In . SVG Version: 6.00 Build 0)  -->
<svg version="1.1" id="Layer_11" xmlns="http://www.w3.org/2000/svg" xmlns:xlink="http://www.w3.org/1999/xlink" x="0px" y="0px"
	 width="699.2px" height="452.4px" viewBox="0 0 699.2 452.4" style="enable-background:new 0 0 699.2 452.4;" xml:space="preserve"
	>
<style type="text/css">
	.st0{fill:#C7C7C7;}
	.st1{fill:#FFFFFF;stroke:#FFFFFF;stroke-width:3;stroke-miterlimit:3;}
	.st2{fill:#008C44;}
	.st3{fill:url(#SVGID_1_);}
	.st4{clip-path:url(#SVGID_3_);}
	.st5{fill:#004E31;}
	.st6{fill:url(#SVGID_4_);}
	.st7{fill:url(#SVGID_5_);}
	.st8{fill:url(#SVGID_6_);}
	.st9{fill:url(#SVGID_7_);}
	.st10{fill:url(#SVGID_8_);}
	.st11{fill:url(#SVGID_9_);}
	.st12{fill:url(#SVGID_10_);}
	.st13{fill:url(#SVGID_11_);}
	.st14{fill:url(#SVGID_12_);}
	.st15{fill:url(#SVGID_13_);}
	.st16{fill:url(#SVGID_14_);}
	.st17{fill:url(#SVGID_15_);}
	.st18{fill:url(#SVGID_16_);}
	.st19{fill:url(#SVGID_17_);}
	.st20{fill:url(#SVGID_18_);}
	.st21{fill:url(#SVGID_19_);}
	.st22{fill:url(#SVGID_20_);}
	.st23{fill:url(#SVGID_21_);}
	.st24{fill:url(#SVGID_22_);}
	.st25{fill:url(#SVGID_23_);}
	.st26{fill:url(#SVGID_24_);}
	.st27{fill:url(#SVGID_25_);}
	.st28{fill:url(#SVGID_26_);}
	.st29{fill:#FFFFFF;}
	.st30{fill:none;}
</style>
<g>
	<g id="Layer_1_2_">
		<ellipse class="st0" cx="352" cy="235.6" rx="334.7" ry="156.8"/>
		<ellipse class="st1" cx="347.5" cy="219.7" rx="334.7" ry="156.8"/>
		<path class="st2" d="M566.2,123.3c-11.4-5.2-23-9.8-34.8-13.8C478.7,91.6,415,81.9,348,81.9c-82.5,0-160,14.7-218.2,41.5
			c-56.9,26.2-88.3,60.5-88.3,96.6c0,16.7,6.7,32.9,19.4,48.2c14.9,17.8,38.2,34.3,68.9,48.4c58.2,26.7,135.7,41.5,218.2,41.5
			s160-14.7,218.2-41.5c56.9-26.2,88.3-60.5,88.3-96.6S623.2,149.5,566.2,123.3z"/>
		
			<radialGradient id="SVGID_1_" cx="192.8712" cy="964.8085" r="456.2605" gradientTransform="matrix(1.02 0 0 -0.47 39.49 538.48)" gradientUnits="userSpaceOnUse">
			<stop  offset="0.1" style="stop-color:#7AC144"/>
			<stop  offset="0.54" style="stop-color:#008C44"/>
			<stop  offset="0.7" style="stop-color:#007234"/>
			<stop  offset="0.89" style="stop-color:#005926"/>
			<stop  offset="1" style="stop-color:#005020"/>
		</radialGradient>
		<ellipse class="st3" cx="348.3" cy="220.4" rx="311.9" ry="143.7"/>
		<g>
			<defs>
				<path id="SVGID_2_" d="M348,363.1c-131.9,0-244.6-37.6-290-90.8c-13.9-16.2-21.5-33.8-21.5-52.3C36.5,140.9,176,76.8,348,76.8
					c70,0,134.6,10.6,186.6,28.5c75.9,26.1,125,67.7,125,114.6C659.6,299,520.1,363.1,348,363.1z"/>
			</defs>
			<clipPath id="SVGID_3_">
				<use xlink:href="#SVGID_2_"  style="overflow:visible;"/>
			</clipPath>
			<g class="st4">
				<g>
					
						<image style="overflow:visible;enable-background:new    ;" width="3371" height="1742" xlink:href="B1AA7F70C3CD6EA1.png"  transform="matrix(0.2192 0 0 0.2192 -22.1734 29.0468)">
					</image>
				</g>
			</g>
		</g>
		<path class="st5" d="M430.2,202.6h21l3.8-10.7h-21l6.1-16.9h-1.3l-46,26.2l-0.5,1.4h16.2l-17,47.4c-4.9,13.7,4,24.9,19.8,24.9
			c12.7,0,27.1-6.8,31.8-15.4l-0.7-0.9c-6.7,3.1-14.1,4.6-17.3,4.6c-9.5,0-14.7-5.6-11.5-14.3L430.2,202.6z"/>
		<path class="st5" d="M488.4,202.6h25.1l3.8-10.7h-25.1l6-16.9H497l-41.5,26.2l-0.5,1.4h11.7l-17,47.4
			c-4.9,13.7,3.7,24.9,18.5,24.9c11.9,0,25.5-6.8,30-15.4l-0.7-0.9c-6.3,3.1-13.2,4.6-16.3,4.6c-8.9,0-12.5-5.6-9.4-14.3
			L488.4,202.6z"/>
		<path class="st5" d="M387.9,232.9c-6.7,23.3-30.8,42.2-53.8,42.2s-36.2-18.9-29.4-42.2c6.7-23.3,30.9-42.2,53.9-42.2
			C381.5,190.7,394.7,209.5,387.9,232.9z M357.5,200.7c-13.3,0-23.6,14.4-29.7,32.1s-5.8,32.1,7.5,32.1s23.6-14.4,29.8-32.1
			S370.8,200.7,357.5,200.7z"/>
		<path class="st5" d="M249.6,232.7c5.2-17.9,18.9-31.9,30.4-31.9c11.5,0,18.4,11.7,17.4,27.7h1.2l13.7-37.9h-1.1l-14.3,6.5
			c-5-4.4-11.5-6.8-18.2-6.7c-21.4,0-44.4,18-51.8,42.5c-7,23.4,6.7,42,28.6,42c16.2,0,34.7-11.3,40.4-24.1l-0.8-0.7
			c-9.2,7.4-21.6,14.1-30.7,14.1C249.3,264.1,244.4,250.5,249.6,232.7z"/>
		<path class="st5" d="M187.7,200.6c16.3,7,35.9,14,31.9,38.3c-3.3,20.2-23.2,36.2-47.1,36.2c-12.1,0-25.5-4-33.2-9.6l-20.1,9.7
			h-1.1l19.3-53.7h1.1c1.6,29.4,15.1,43.2,34.1,43.2c11.8,0,21.7-7.8,23.3-17.1c2.2-12.3-9.3-17.1-21.9-22.3
			c-15.5-6.4-32.7-15.2-29-37.1c3.3-19.3,23.1-35.6,47-35.6c11.1,0,21.6,3.2,29.5,8.6l18.3-8.4h1.1l-15.6,43.7h-1.1
			c-2.1-19.2-14.5-33.4-32.8-33.4c-11.8,0-22.1,6.7-23.5,16C166.1,190.5,176,195.6,187.7,200.6z"/>
		<path class="st5" d="M584.5,190.7l-12.4,5.6c-6.6-4-14.2-6.2-22-6.2c-17.3,0-31.6,11-34,24.4c-2.7,15.2,9.8,21.8,21,26.2
			c9.2,3.7,17.5,7.2,15.9,15.7c-1.2,6.4-8.2,11.4-16.8,11.4c-13.7,0-22.6-9.3-23.8-29.8h-1.1l-13.3,37h1.1l13.7-6.3
			c5.7,3.7,14.9,6.2,23.4,6.2c17.3,0,32.4-10.2,34.8-24.2c2.8-16.8-12.1-23-23.9-27.8c-8.4-3.5-15.6-7-14.4-15
			c1-6.4,8.5-10.8,17-10.8c13.3,0,22.3,9.9,23.8,23.2h1.3l10.7-29.8L584.5,190.7L584.5,190.7z"/>
		
			<image style="overflow:visible;enable-background:new    ;" width="2455" height="892" xlink:href="B1AA7F70C3CD6EA3.png"  transform="matrix(0.2186 0 0 0.2186 83.7921 116.4809)">
		</image>
		
			<linearGradient id="SVGID_4_" gradientUnits="userSpaceOnUse" x1="394.6423" y1="608.9061" x2="394.6423" y2="519.6674" gradientTransform="matrix(1 0 0 -1 0 792)">
			<stop  offset="8.000000e-02" style="stop-color:#B3B3B3"/>
			<stop  offset="1" style="stop-color:#737373"/>
		</linearGradient>
		<polygon class="st6" points="395.7,196.1 386.6,196.1 390.2,200.4 401.2,200.4 402.7,196.1 		"/>
		
			<linearGradient id="SVGID_5_" gradientUnits="userSpaceOnUse" x1="392.302" y1="644.3552" x2="392.302" y2="555.0707" gradientTransform="matrix(1 0 0 -1 37.61 827.44)">
			<stop  offset="8.000000e-02" style="stop-color:#B3B3B3"/>
			<stop  offset="1" style="stop-color:#737373"/>
		</linearGradient>
		<path class="st7" d="M449.7,194.7l1.8-1.2l1.4-3.8l-3.6-4.3l-3.8,10.7h-21l-16.6,46.3c-2,5.6-0.6,9.9,3.2,12.3
			c-0.8-2.6-0.7-5.4,0.4-7.9l16.6-46.3h21l1.6-4.3h-1.4L449.7,194.7z"/>
		
			<linearGradient id="SVGID_6_" gradientUnits="userSpaceOnUse" x1="433.1106" y1="608.9152" x2="433.1106" y2="519.6491" gradientTransform="matrix(1 0 0 -1 0 792)">
			<stop  offset="8.000000e-02" style="stop-color:#B3B3B3"/>
			<stop  offset="1" style="stop-color:#737373"/>
		</linearGradient>
		<polygon class="st8" points="433.4,185.4 437.9,172.9 434.4,168.5 431.8,175.6 428.3,185.4 		"/>
		
			<linearGradient id="SVGID_7_" gradientUnits="userSpaceOnUse" x1="377.8855" y1="644.3552" x2="377.8855" y2="555.0707" gradientTransform="matrix(1 0 0 -1 37.61 827.44)">
			<stop  offset="8.000000e-02" style="stop-color:#B3B3B3"/>
			<stop  offset="1" style="stop-color:#737373"/>
		</linearGradient>
		<path class="st9" d="M390.1,263.3c3.2,5.7,10,9.4,19.1,9.4c12.7,0,27.1-6.8,31.8-15.4l-3.6-4.3c-1.6,2.5-3.6,4.8-5.9,6.6
			c-7.5,5.6-16.6,8.7-25.9,8.8C399.1,268.4,393.7,266.5,390.1,263.3z"/>
		
			<linearGradient id="SVGID_8_" gradientUnits="userSpaceOnUse" x1="455.0721" y1="608.9061" x2="455.0721" y2="519.6674" gradientTransform="matrix(1 0 0 -1 0 792)">
			<stop  offset="8.000000e-02" style="stop-color:#B3B3B3"/>
			<stop  offset="1" style="stop-color:#737373"/>
		</linearGradient>
		<polygon class="st10" points="457.9,196.1 449.2,196.1 452.8,200.4 459.4,200.4 460.9,196.1 		"/>
		
			<linearGradient id="SVGID_9_" gradientUnits="userSpaceOnUse" x1="452.4276" y1="644.3552" x2="452.4276" y2="555.0707" gradientTransform="matrix(1 0 0 -1 37.61 827.44)">
			<stop  offset="8.000000e-02" style="stop-color:#B3B3B3"/>
			<stop  offset="1" style="stop-color:#737373"/>
		</linearGradient>
		<path class="st11" d="M482.7,196.1L466,242.4c-2.2,6.1-1.1,10.7,2.9,12.8c-0.7-2.3-0.5-5.2,0.7-8.5l16.6-46.3h25l3.8-10.7
			l-3.6-4.3l-3.8,10.7L482.7,196.1L482.7,196.1z"/>
		
			<linearGradient id="SVGID_10_" gradientUnits="userSpaceOnUse" x1="434.4727" y1="644.3552" x2="434.4727" y2="555.0707" gradientTransform="matrix(1 0 0 -1 37.61 827.44)">
			<stop  offset="8.000000e-02" style="stop-color:#B3B3B3"/>
			<stop  offset="1" style="stop-color:#737373"/>
		</linearGradient>
		<path class="st12" d="M496,257.3l-3.7-4.3c-1.5,2.5-3.4,4.8-5.7,6.7c-6.9,5.5-15.5,8.6-24.3,8.7c-5.9,0-10.8-1.8-14.2-4.8
			c3.1,5.6,9.5,9.1,17.8,9.1C477.9,272.7,491.5,265.9,496,257.3z"/>
		
			<linearGradient id="SVGID_11_" gradientUnits="userSpaceOnUse" x1="491.3053" y1="608.9152" x2="491.3053" y2="519.6491" gradientTransform="matrix(1 0 0 -1 0 792)">
			<stop  offset="8.000000e-02" style="stop-color:#B3B3B3"/>
			<stop  offset="1" style="stop-color:#737373"/>
		</linearGradient>
		<polygon class="st13" points="491.6,185.4 496.1,172.9 492.5,168.5 489.9,176 486.5,185.4 		"/>
		
			<linearGradient id="SVGID_12_" gradientUnits="userSpaceOnUse" x1="302.2574" y1="644.3552" x2="302.2574" y2="555.0707" gradientTransform="matrix(1 0 0 -1 37.61 827.44)">
			<stop  offset="8.000000e-02" style="stop-color:#B3B3B3"/>
			<stop  offset="1" style="stop-color:#737373"/>
		</linearGradient>
		<path class="st14" d="M325.5,230.7c6.2-17.7,16.4-32.1,29.8-32.1c2.3-0.1,4.5,0.5,6.4,1.6c-1.6-3.8-4.8-6-10.1-6
			c-13.3,0-23.6,14.4-29.7,32.1c-4.9,14.2-5.7,26.2,1,30.5C320.5,251.1,321.8,241.5,325.5,230.7z"/>
		
			<linearGradient id="SVGID_13_" gradientUnits="userSpaceOnUse" x1="309.0622" y1="644.3552" x2="309.0622" y2="555.0707" gradientTransform="matrix(1 0 0 -1 37.61 827.44)">
			<stop  offset="8.000000e-02" style="stop-color:#B3B3B3"/>
			<stop  offset="1" style="stop-color:#737373"/>
		</linearGradient>
		<path class="st15" d="M378.9,197c5.1,7.6,6.6,18,3.3,29.4c-6.7,23.3-30.8,42.2-53.8,42.2c-9.4,0-17.1-3.2-22.6-8.5
			c5.3,7.9,14.4,12.8,26.1,12.8c23,0,47.1-18.9,53.8-42.2C389.8,216.9,386.8,204.7,378.9,197z"/>
		
			<linearGradient id="SVGID_14_" gradientUnits="userSpaceOnUse" x1="223.2155" y1="644.3552" x2="223.2155" y2="555.0707" gradientTransform="matrix(1 0 0 -1 37.61 827.44)">
			<stop  offset="8.000000e-02" style="stop-color:#B3B3B3"/>
			<stop  offset="1" style="stop-color:#737373"/>
		</linearGradient>
		<path class="st16" d="M227.9,260.1c5.3,7.8,14.3,12.7,25.4,12.7c16.2,0,34.7-11.3,40.4-24.1l-3.6-4.3c-2.1,4.5-5.2,8.4-9,11.6
			c-8.4,7.3-20.4,12.5-31.4,12.5C240.8,268.4,233.3,265.4,227.9,260.1z"/>
		
			<linearGradient id="SVGID_15_" gradientUnits="userSpaceOnUse" x1="300.8693" y1="608.9061" x2="300.8693" y2="519.64" gradientTransform="matrix(1 0 0 -1 0 792)">
			<stop  offset="8.000000e-02" style="stop-color:#B3B3B3"/>
			<stop  offset="1" style="stop-color:#737373"/>
		</linearGradient>
		<polygon class="st17" points="306.5,184.1 304.2,190.7 292.8,222 291.6,222 295.2,226.3 296.4,226.3 310.1,188.4 		"/>
		
			<linearGradient id="SVGID_16_" gradientUnits="userSpaceOnUse" x1="227.1138" y1="644.3552" x2="227.1138" y2="555.0707" gradientTransform="matrix(1 0 0 -1 37.61 827.44)">
			<stop  offset="8.000000e-02" style="stop-color:#B3B3B3"/>
			<stop  offset="1" style="stop-color:#737373"/>
		</linearGradient>
		<path class="st18" d="M274.2,194.3c-11.4,0-25.2,14-30.4,31.9c-3.7,12.5-2.3,23,4.1,28.1c-3.1-5.7-3.3-14.1-0.5-23.7
			c5.2-17.9,18.9-31.9,30.4-31.9c3.6,0,7.2,1.3,9.9,3.7C284.6,197.3,280,194.3,274.2,194.3z"/>
		
			<linearGradient id="SVGID_17_" gradientUnits="userSpaceOnUse" x1="130.1341" y1="644.3552" x2="130.1341" y2="555.0616" gradientTransform="matrix(1 0 0 -1 37.61 827.44)">
			<stop  offset="8.000000e-02" style="stop-color:#B3B3B3"/>
			<stop  offset="1" style="stop-color:#737373"/>
		</linearGradient>
		<path class="st19" d="M168.3,218.9c-7.8-3.2-16-7-21.7-12.7c5.6,8.2,15.8,13.1,25.3,17.1c6.6,2.7,12.9,5.3,17.1,8.9
			C185.6,226.1,177.2,222.6,168.3,218.9z"/>
		
			<linearGradient id="SVGID_18_" gradientUnits="userSpaceOnUse" x1="101.3757" y1="644.3461" x2="101.3757" y2="555.0707" gradientTransform="matrix(1 0 0 -1 37.61 827.44)">
			<stop  offset="8.000000e-02" style="stop-color:#B3B3B3"/>
			<stop  offset="1" style="stop-color:#737373"/>
		</linearGradient>
		<path class="st20" d="M136.4,219.4l-3.6-4.3l0.4,4.2l0.5,4.5c1.8,11.6,5.8,20.2,11.4,25.8C140.2,242.5,137.1,232.5,136.4,219.4z"
			/>
		
			<linearGradient id="SVGID_19_" gradientUnits="userSpaceOnUse" x1="149.0264" y1="644.3461" x2="149.0264" y2="555.0707" gradientTransform="matrix(1 0 0 -1 37.61 827.44)">
			<stop  offset="8.000000e-02" style="stop-color:#B3B3B3"/>
			<stop  offset="1" style="stop-color:#737373"/>
		</linearGradient>
		<path class="st21" d="M189.2,161c8.3-0.1,16.3,3.2,22.1,9.1c-5.7-8.5-15.4-13.5-25.6-13.4c-11.8,0-22.1,6.7-23.5,16
			c-0.9,5.8,1.2,10,5,13.3c-1.5-2.7-2-5.9-1.4-9C167.2,167.7,177.5,161,189.2,161z"/>
		
			<linearGradient id="SVGID_20_" gradientUnits="userSpaceOnUse" x1="228.6503" y1="608.9061" x2="228.6503" y2="519.6307" gradientTransform="matrix(1 0 0 -1 0 792)">
			<stop  offset="8.000000e-02" style="stop-color:#B3B3B3"/>
			<stop  offset="1" style="stop-color:#737373"/>
		</linearGradient>
		<polygon class="st22" points="218.5,190.1 222.1,194.4 223.2,194.4 238.8,150.7 235.2,146.4 219.6,190.1 		"/>
		
			<linearGradient id="SVGID_21_" gradientUnits="userSpaceOnUse" x1="127.6109" y1="644.3552" x2="127.6109" y2="555.0707" gradientTransform="matrix(1 0 0 -1 37.61 827.44)">
			<stop  offset="8.000000e-02" style="stop-color:#B3B3B3"/>
			<stop  offset="1" style="stop-color:#737373"/>
		</linearGradient>
		<path class="st23" d="M213.9,232.4c-3.3,20.2-23.2,36.2-47.1,36.2c-12.1,0-25.5-4-33.2-9.6l-20.1,9.7h-1.1l3.6,4.3h1.1l20.1-9.6
			c7.7,5.6,21.1,9.6,33.2,9.6c23.9,0,43.8-16,47.1-36.2c1.8-11.3-1.4-18.8-7.1-24.4C213.7,217.4,215.3,223.8,213.9,232.4z"/>
		
			<linearGradient id="SVGID_22_" gradientUnits="userSpaceOnUse" x1="493.817" y1="644.3461" x2="493.817" y2="555.0707" gradientTransform="matrix(1 0 0 -1 37.61 827.44)">
			<stop  offset="8.000000e-02" style="stop-color:#B3B3B3"/>
			<stop  offset="1" style="stop-color:#737373"/>
		</linearGradient>
		<path class="st24" d="M531.4,234.3c-5.4-2.1-11.1-4.8-15.2-8.6c3.9,6.4,11.6,10.1,18.8,13c4.5,1.8,8.8,3.5,11.8,5.9
			C544.6,239.7,538.2,237,531.4,234.3z"/>
		
			<linearGradient id="SVGID_23_" gradientUnits="userSpaceOnUse" x1="493.0359" y1="644.3461" x2="493.0359" y2="555.0707" gradientTransform="matrix(1 0 0 -1 37.61 827.44)">
			<stop  offset="8.000000e-02" style="stop-color:#B3B3B3"/>
			<stop  offset="1" style="stop-color:#737373"/>
		</linearGradient>
		<path class="st25" d="M565.2,244.4c-2.4,14-17.5,24.2-34.8,24.2c-8.5,0-17.7-2.6-23.4-6.2l-13.7,6.3h-1.1l3.6,4.3h1.1l13.7-6.3
			c5.7,3.7,14.9,6.2,23.4,6.2c17.3,0,32.4-10.2,34.8-24.2c1.4-8-1.4-13.6-5.9-17.8C565.1,234.5,566.1,238.9,565.2,244.4z"/>
		
			<linearGradient id="SVGID_24_" gradientUnits="userSpaceOnUse" x1="575.5059" y1="608.9061" x2="575.5059" y2="519.6307" gradientTransform="matrix(1 0 0 -1 0 792)">
			<stop  offset="8.000000e-02" style="stop-color:#B3B3B3"/>
			<stop  offset="1" style="stop-color:#737373"/>
		</linearGradient>
		<polygon class="st26" points="567.7,214.1 571.3,218.4 572.6,218.4 583.3,188.6 579.8,184.3 577.4,190.8 569.1,214.1 		"/>
		
			<linearGradient id="SVGID_25_" gradientUnits="userSpaceOnUse" x1="473.5226" y1="644.3552" x2="473.5226" y2="555.0707" gradientTransform="matrix(1 0 0 -1 37.61 827.44)">
			<stop  offset="8.000000e-02" style="stop-color:#B3B3B3"/>
			<stop  offset="1" style="stop-color:#737373"/>
		</linearGradient>
		<path class="st27" d="M515.7,256.1c-3.1-4.8-5-11.5-5.5-20.2l-3.6-4.3l0.4,4l0.7,4.3C509.1,247.3,511.8,252.6,515.7,256.1z"/>
		
			<linearGradient id="SVGID_26_" gradientUnits="userSpaceOnUse" x1="507.3802" y1="644.3461" x2="507.3802" y2="555.08" gradientTransform="matrix(1 0 0 -1 37.61 827.44)">
			<stop  offset="8.000000e-02" style="stop-color:#B3B3B3"/>
			<stop  offset="1" style="stop-color:#737373"/>
		</linearGradient>
		<path class="st28" d="M547.5,195.2c5.9-0.1,11.5,2.1,15.8,6.1c-4.2-6.6-11.5-10.6-19.4-10.5c-8.5,0-16,4.4-17,10.8
			c-0.7,4.3,1.1,7.3,4.2,9.7c-0.7-1.7-0.9-3.5-0.6-5.3C531.5,199.5,538.9,195.2,547.5,195.2z"/>
		<path class="st29" d="M407.9,242.4l16.6-46.3h21l2.3-6.4l1.6-4.3h-21.1l3.5-9.8l2.5-7.1H433l-46,26.2l-0.4,1.4h16.2l-1.5,4.3
			l-15.4,43.1c-2.9,8-0.9,15.2,4.3,19.8c3.7,3.2,9,5.1,15.5,5.1c9.3-0.1,18.4-3.2,25.9-8.8c2.4-1.8,4.4-4,5.9-6.6l-0.7-0.9
			c-6.7,3.1-14.1,4.6-17.3,4.6c-2.9,0.1-5.8-0.6-8.3-2C407.3,252.3,405.9,248,407.9,242.4z"/>
		<path class="st29" d="M486.7,259.7c2.3-1.8,4.2-4.1,5.7-6.7l-0.7-0.9c-6.3,3.1-13.2,4.6-16.3,4.6c-2.2,0.1-4.5-0.4-6.5-1.4
			c-4-2.2-5.1-6.7-2.9-12.8l16.6-46.3h25.1l2.3-6.4l1.6-4.3h-25.1l3.4-9.5l2.7-7.4h-1.3l-39.7,25l-1.8,1.2l-0.4,1.4h11.7l-1.6,4.3
			l-15.4,43.1c-3,8.2-1,15.6,4.3,20.1c3.5,3,8.3,4.8,14.2,4.8C471.3,268.2,479.8,265.2,486.7,259.7z"/>
		<path class="st29" d="M328.4,268.6c23,0,47.1-18.9,53.8-42.2c3.3-11.5,1.8-21.8-3.3-29.4c-5.3-7.9-14.4-12.8-26.1-12.8
			c-23,0-47.1,18.9-53.8,42.2c-4,13.8-1,26.1,6.9,33.8C311.2,265.5,319,268.6,328.4,268.6z M322,226.4c6.1-17.8,16.4-32.1,29.7-32.1
			c5.2,0,8.4,2.2,10.1,6c2.5,5.8,1.2,15.4-2.5,26.2c-6.1,17.7-16.5,32.1-29.8,32.1c-2.3,0.1-4.5-0.5-6.4-1.6
			C316.3,252.6,317,240.6,322,226.4z"/>
		<path class="st29" d="M306.5,184.1h-1.1l-14.3,6.6c-5-4.4-11.5-6.8-18.2-6.7c-21.4,0-44.4,18-51.8,42.5c-4.2,13.9-1,26,6.8,33.7
			c5.4,5.2,12.9,8.3,21.8,8.3c11,0,23-5.2,31.4-12.5c3.8-3.2,6.9-7.1,9-11.6l-0.8-0.7c-9.2,7.4-21.6,14.1-30.7,14.1
			c-4.5,0-8.1-1.2-10.8-3.4c-6.4-5.1-7.7-15.5-4.1-28.1c5.2-17.9,18.9-31.9,30.4-31.9c5.8,0,10.4,3,13.5,8.1c3,4.9,4.4,11.7,4,19.6
			h1.2l1.9-5.2l9.4-26.1L306.5,184.1z"/>
		<path class="st29" d="M162.1,172.6c1.4-9.3,11.7-16,23.5-16c10.3-0.1,19.9,4.9,25.6,13.4c4,6,6.5,12.8,7.2,20h1.1l1.1-3l12.2-34.1
			l2.3-6.6h-1.1l-18.3,8.4c-7.9-5.4-18.4-8.6-29.5-8.6c-23.9,0-43.8,16.3-47,35.6c-1.8,10.9,1.5,18.6,7.3,24.4
			c5.8,5.7,14,9.6,21.7,12.7c9,3.7,17.3,7.2,20.7,13.3c1.5,2.7,1.9,5.9,1.3,9c-1.6,9.2-11.5,17.1-23.3,17.1c-8.6,0-16-2.9-21.8-8.7
			c-5.6-5.7-9.6-14.2-11.4-25.8c-0.4-2.7-0.8-5.6-0.9-8.7h-1.1l-19.3,53.7h1.1l4.9-2.4l15.2-7.3c7.7,5.6,21,9.6,33.2,9.6
			c23.9,0,43.8-16,47.1-36.2c1.4-8.6-0.2-15-3.5-20.1c-6.1-9.2-17.9-13.7-28.4-18.2c-5.8-2.5-11.1-5-14.8-8.2
			C163.5,182.6,161.2,178.4,162.1,172.6z"/>
		<path class="st29" d="M526.9,201.7c1-6.4,8.5-10.8,17-10.8c7.9-0.1,15.2,3.8,19.4,10.5c2.4,3.8,3.9,8.2,4.4,12.7h1.4l0.8-2.2
			l7.6-21.1l2.4-6.5h-1.1l-12.4,5.6c-6.6-4-14.2-6.2-22-6.2c-17.3,0-31.6,11-34,24.4c-1.4,7.9,1.3,13.4,5.8,17.6
			c4.1,3.9,9.8,6.5,15.2,8.6c6.9,2.7,13.3,5.4,15.4,10.2c0.7,1.7,0.9,3.7,0.5,5.5c-1.2,6.4-8.2,11.4-16.8,11.4
			c-5.9,0-10.9-1.7-14.8-5.3c-3.9-3.6-6.6-8.9-8-16.1c-0.5-2.8-0.9-5.5-1.1-8.3h-1.1l-13.3,37h1l4.9-2.2l8.8-4
			c5.7,3.7,14.9,6.2,23.4,6.2c17.3,0,32.4-10.2,34.8-24.2c0.9-5.6-0.1-9.9-2.3-13.5c-4.4-7.2-13.7-11.1-21.6-14.3
			c-3.9-1.6-7.5-3.2-10.2-5.3C528,208.9,526.2,205.9,526.9,201.7z"/>
		<path class="st29" d="M588.5,246.9c-6,0.1-10.8,5-10.8,11c0.1,6,5,10.8,11,10.8c6-0.1,10.8-4.9,10.8-10.9
			C599.4,251.7,594.6,246.9,588.5,246.9C588.5,246.9,588.5,246.9,588.5,246.9z M588.5,266.8c-5-0.1-9-4.2-9-9.2c0.1-5,4.2-9,9.2-9
			c5,0.1,8.9,4.1,9,9c0,5-4.1,9.1-9.1,9.1C588.5,266.8,588.5,266.8,588.5,266.8L588.5,266.8z"/>
		<path class="st29" d="M593.5,255.1c0-2.5-1.5-3.6-4.4-3.6h-4.8V264h1.9v-5.4h2.2l3.3,5.4h2.1l-3.6-5.5
			C592.1,258.3,593.5,257.3,593.5,255.1z M586.1,257v-3.9h2.6c1.3,0,2.7,0.3,2.7,1.8c0,1.9-1.4,2-3.1,2L586.1,257L586.1,257z"/>
		<path class="st30" d="M659.6,220c0-15-5.1-29.5-14.4-43.1c-19.8-28.9-59-53.8-110.6-71.6C482.6,87.4,418,76.8,348,76.8
			C176,76.8,36.5,140.9,36.5,220c0,18.5,7.6,36.1,21.5,52.3c4.2,4.8,8.7,9.3,13.4,13.5c51.9,45.9,156.3,77.3,276.6,77.3
			C520.1,363.1,659.6,299,659.6,220z"/>
		<path class="st30" d="M659.6,220c0-15-5.1-29.5-14.4-43.1c-19.8-28.9-59-53.8-110.6-71.6C482.6,87.4,418,76.8,348,76.8
			C176,76.8,36.5,140.9,36.5,220c0,18.5,7.6,36.1,21.5,52.3c4.2,4.8,8.7,9.3,13.4,13.5c51.9,45.9,156.3,77.3,276.6,77.3
			C520.1,363.1,659.6,299,659.6,220z"/>
	</g>
</g>
</svg>
