<?xml version="1.0" encoding="utf-8"?>
<!-- Generator: Adobe Illustrator 24.0.1, SVG Export Plug-In . SVG Version: 6.00 Build 0)  -->
<svg version="1.1" id="Layer_5" xmlns="http://www.w3.org/2000/svg" xmlns:xlink="http://www.w3.org/1999/xlink" x="0px" y="0px"
	 width="699.2px" height="452.4px" viewBox="0 0 699.2 452.4" style="enable-background:new 0 0 699.2 452.4;" xml:space="preserve"
	>
<style type="text/css">
	.st0{fill:#E31837;}
</style>
<path class="st0" d="M694.2,169.1l-181.6,69l10.6-22.8l-246.1,84l13.6-28.2L4.8,381.1l214.6-53.9L201.8,361l266-99.1l-15.1,29.6
	L694.2,169.1z"/>
<path class="st0" d="M644.7,86.1c0-4.9,4-8.9,8.9-8.9s8.9,4,8.9,8.9c0,4.9-3.9,8.8-8.8,8.9C648.8,95.1,644.8,91.1,644.7,86.1
	C644.7,86.2,644.7,86.2,644.7,86.1z M653.6,93.5c3.9,0,7.1-3.2,7.1-7.1c0-0.1,0-0.2,0-0.3c0-3.9-3.2-7.1-7.1-7.1
	c-3.9,0-7.1,3.2-7.1,7.1c-0.1,3.9,2.9,7.2,6.9,7.4C653.5,93.5,653.5,93.5,653.6,93.5z M651.8,91.3h-1.6V81.1h3.9
	c2.4,0,3.6,0.9,3.6,2.9c0.1,1.4-1,2.7-2.4,2.8c-0.1,0-0.1,0-0.2,0l2.9,4.5h-1.8l-2.7-4.4h-1.8L651.8,91.3z M653.6,85.6
	c1.3,0,2.5,0,2.5-1.7c0-1.3-1.1-1.5-2.2-1.5h-2v3.1H653.6z"/>
<path class="st0" d="M165.1,114.8l-31.5,26.6l-13.5-15.2L93.3,149l3.7-36.3L4.8,190.4l62.9-30.2L51.6,295.8c0,0,19.3,14.2,20.9,15.3
	c1.6-12.9,17.2-137.2,18-144v-0.3l18.2-15.4l3.9,3.8L97.9,279.1c0,0,19.6,14.6,20.8,15.5c0.1-1.2,13.3-113.4,16.4-140.1l18.1-15.3
	l3.9,3.8l-14.2,120.7l20.9,15.4l17-146.9L165.1,114.8z"/>
<path class="st0" d="M632.1,147.9l-6.3-5.3l1.3-10.3l29.3-16.6l-23.6-29.2l-21.5,18.8l-5.1,40.6l-28.7,15.7l-6.9-5.6l1.4-10.9
	l31.8-17.4l-25.6-31l-23.4,19.9l-4.9,38.6l-10.4,10l-16.4-32.3l36.7-33.5l-16.7,2.4l-27.6,23.6l6.6-52.6l-19.9,2.8l-11.1,90.2
	L479,179l-2.8-2.4l7.3-57.2l-21.5,5l-6.7,51.7l-9.6,11.5l-4-3.6l7.1-56.7l-21.6,4.3l-6.7,53l-10,12.7l-4.4-3.9l7.5-59.2l-21.6,4.6
	l-0.5,4.6l-15.1-7.3l-21.2,27.1l-6.1,48.3l20.5,17.4l18.8-24.2l16.2,13.7l17.7-22.6l15.1,13.3l16.7-21.8l15.8,13.8l21.5-23.4
	l16.4,13l4.9-39.6l17.2,35.4l22.8-22.3l14.8,12.4l44.1-24.4l11.3,9.7l40.5-23.7l1.1-8.7L632.1,147.9z M630.7,103.5l9.5,11.3
	l-11.7,6.6L630.7,103.5z M576,114.8l10.3,12l-12.8,7L576,114.8z M384.8,195.4l-8.8,10.8l-4.7-4.1l7.1-56.3l11.8,6.3L384.8,195.4z
	 M333.2,150.9l-8.8,67.7l-4.8,5.2l-8.2-6.8l8.1-63.6l-21.8,5.3l-8.4,66.2l-6.5,8.5l-6.9-6.1l8.2-66.6l-21.8,4.6l-7.3,60.6l-9.1,12.3
	l-6.4-5.2l14.1-114l-21.3,3.4l-13.1,109.5l-10.8,14.9l-5.3-4.5l9-66.7l-21.8,4.4l-10,77.4l19.1,15l18.8-25.4l19.7,15.8l19-25.8
	l20.3,17.8l20.1-26.6l16.3,14.4l28.2-30.7l8.7-64.7L333.2,150.9z M216.3,142l-21.8,3.7l-2.7,21.3l21.7-4.1L216.3,142z"/>
</svg>
