<?xml version="1.0" encoding="utf-8"?>
<!-- Generator: Adobe Illustrator 24.0.1, SVG Export Plug-In . SVG Version: 6.00 Build 0)  -->
<svg version="1.1" id="traeger" xmlns="http://www.w3.org/2000/svg" xmlns:xlink="http://www.w3.org/1999/xlink" x="0px" y="0px"
	 width="699.2px" height="452.4px" viewBox="0 0 699.2 452.4" style="enable-background:new 0 0 699.2 452.4;" xml:space="preserve"
	>
<style type="text/css">
	.st0{fill:#DC6026;}
	.st1{fill:#FFFFFF;}
</style>
<g id="Layer_1_1_">
</g>
<g id="ART">
	<rect class="st0" width="699.2" height="452.4"/>
	<g>
		<g>
			<path class="st1" d="M219.5,302.4c0,0-0.3-0.2-2.9-0.8c-0.5-0.1-1.1-0.4-1.4-0.9c-0.1-0.1-0.1-0.3-0.2-0.4
				c-1.4-2.9-2.8-5.7-4.3-8.5c-6.1-11-12.7-20.2-14.9-23.3c-0.2-0.2-0.1-0.5,0.2-0.6c2.9-1.4,5.6-3,7.9-4.7c2.7-2,5-4.4,6.7-7.3
				c1.7-2.8,2.6-6.1,2.6-9.6c0-3-0.7-5.9-2.2-8.6s-3.7-4.8-6.3-6.5c-3.9-2.6-9.6-3.9-16.7-3.9h-37.8c-0.6,0-1.1,0.5-1.1,1.1v2.5
				c0,1.7,0.4,2.5,1.4,2.7c0.6,0.1,1.6,0.3,4.4,0.8c0.6,0.1,1,0.6,1,1.2v64.6c0,0.6-0.5,1.1-1,1.2c-2.7,0.5-3.7,0.7-4.4,0.8
				c-1,0.2-1.4,1-1.4,2.7v2.5c0,0.6,0.5,1.1,1.1,1.1h22.6l0,0c0.7,0,1.1-0.6,1.1-1.1v-2.5c0-1.4-0.3-2.5-1.2-2.7
				c0,0-0.9-0.2-4.6-0.9c-0.6-0.1-1-0.6-1-1.1l0,0v-25.6c0-0.3,0.2-0.6,0.5-0.6c2.7-0.5,15.3-2.7,15.4-2.7c1.4-0.3,1.5-0.1,2.2,1
				c0.7,1.1,5.1,7.2,9.1,13.8c6.1,10,7.5,13.6,7.5,14.5c0,0.4-0.5,0.6-0.9,0.7c-2.7,0.5-3.2,0.7-3.8,0.8c-1,0.2-1.4,1-1.4,2.7v2.5
				c0,0.6,0.5,1,1,1.1h22.9l0,0c0.7,0,1.1-0.6,1.1-1.1v-2.5C220.7,303.7,220.5,302.7,219.5,302.4z M179.9,265.1
				c-2.1,0.5-6,1.1-12,2.1c-0.4,0.1-0.8-0.2-0.8-0.7v-30.3c0-0.2,0-0.4,0-0.6c0.1-0.4,0.5-0.7,0.9-0.7h10.4
				c14.9,0,22.4,3.9,22.4,12.8c0,3.5-1.2,6.5-3.4,9C194.5,260,189.3,263.2,179.9,265.1z"/>
			<path class="st1" d="M630.7,302.4c0,0-0.3-0.2-2.9-0.8c-0.5-0.1-1.1-0.4-1.4-0.9c-0.1-0.1-0.1-0.3-0.2-0.4
				c-1.4-2.9-2.8-5.7-4.3-8.5c-6.1-11-12.7-20.2-14.9-23.3c-0.2-0.2-0.1-0.5,0.2-0.6c2.9-1.4,5.6-3,7.9-4.7c2.7-2,5-4.4,6.7-7.3
				c1.7-2.8,2.6-6.1,2.6-9.6c0-3-0.7-5.9-2.2-8.6c-1.5-2.6-3.7-4.8-6.3-6.5c-3.9-2.6-9.6-3.9-16.7-3.9h-37.8c-0.6,0-1.1,0.5-1.1,1.1
				v2.5c0,1.7,0.4,2.5,1.4,2.7c0.6,0.1,1.6,0.3,4.4,0.8c0.6,0.1,1,0.6,1,1.2v64.6c0,0.6-0.5,1.1-1,1.2c-2.7,0.5-3.7,0.7-4.4,0.8
				c-1,0.2-1.4,1-1.4,2.7v2.5c0,0.6,0.5,1.1,1.1,1.1H584l0,0c0.7,0,1.1-0.6,1.1-1.1v-2.5c0-1.4-0.3-2.5-1.2-2.7c0,0-0.9-0.2-4.6-0.9
				c-0.6-0.1-1-0.6-1-1.1l0,0v-25.6c0-0.3,0.2-0.6,0.5-0.6c2.7-0.5,15.3-2.7,15.4-2.7c1.4-0.3,1.5-0.1,2.2,1
				c0.7,1.1,5.1,7.2,9.1,13.8c6.1,10,7.5,13.6,7.5,14.5c0,0.4-0.5,0.6-0.9,0.7c-2.7,0.5-3.2,0.7-3.8,0.8c-1,0.2-1.4,1-1.4,2.7v2.5
				c0,0.6,0.5,1,1,1.1h22.9l0,0c0.7,0,1.1-0.6,1.1-1.1v-2.5C631.9,303.7,631.6,302.7,630.7,302.4z M591,265.1c-2.1,0.5-6,1.1-12,2.1
				c-0.4,0.1-0.8-0.2-0.8-0.7v-30.3c0-0.2,0-0.4,0-0.6c0.1-0.4,0.5-0.7,0.9-0.7h10.4c14.9,0,22.4,3.9,22.4,12.8c0,3.5-1.2,6.5-3.4,9
				C605.6,260,600.4,263.2,591,265.1z"/>
			<path class="st1" d="M474.3,267.4h-28.8l0,0c-0.7,0-1.1,0.6-1.1,1.1v2.5c0,1.4,0.3,2.5,1.2,2.7c0.9,0.2,9.3,1.4,10.5,1.7
				c1.2,0.2,1.4,1.1,1.4,1.7c0,0.9,0,16,0,16s-0.1,3-4.1,6.2c-1.8,1.4-4.2,2.5-7.4,3.3c-3,0.7-6,1.1-8.9,1.1
				c-4.6,0-8.9-0.9-13.1-2.7c-4.1-1.8-7.7-4.3-10.6-7.6c-5.7-6.3-8.5-14.2-8.5-23.4c0-4.6,0.7-9.3,2.2-13.7c1.4-4.5,3.5-8.6,6.2-12
				c2.7-3.5,6.1-6.3,10-8.3c4-2.1,8.3-3.1,13.2-3.1c5.9,0,11.1,1.4,15.5,4.1l0.2,0.1c2.7,1.7,5.6,5,7.1,8.6c0.6,1.5,0.6,2.5,0.8,3.4
				c0.2,1,1,1.4,2.7,1.4h2.5c0.6,0,1.1-0.5,1.1-1.1v-21.9c0-0.6-0.5-1.1-1.1-1.1h-2.5c-1.7,0-2.1,0.2-2.3,1.2
				c-0.2,1.1-0.5,2.1-0.9,2.6c-0.1,0.1-0.3,0.2-0.4,0.3c-0.2,0.1-0.5,0.1-0.7,0c-2.7-1.2-5.7-2.2-9.3-3c-4.5-1-8.6-1.4-12.5-1.4
				c-8.1,0-15.6,1.9-22.3,5.8c-6.7,3.8-12.1,9.1-16.1,15.7c-3.9,6.7-5.8,14.2-5.8,22.2c0,5.9,1.1,11.6,3.4,16.9
				c2.2,5.3,5.5,9.9,9.9,13.8c2.8,2.4,5.9,4.3,9.3,5.9c3.4,1.5,7,2.7,10.6,3.4c3.7,0.7,7.5,1.1,11.1,1.1c6.9,0,14.2-1.5,21.8-4.4
				c7.8-3.3,11.4-6.2,11.4-9c0-0.6,0-17.6,0-18.2v-2.8c0-0.5,0-1,0.5-1.2c0.6-0.3,3.5-1.3,3.6-1.3l0,0c0.8-0.4,1.6-1,1.7-2.7v-2.5
				C475.5,267.8,474.9,267.4,474.3,267.4z"/>
			<path class="st1" d="M139,241.5l-2.1-12.7c0-0.1-0.1-0.2-0.1-0.2c-0.1-0.4-0.3-0.8-0.7-1c-0.1-0.1-0.3-0.1-0.4-0.1H70.4
				c-0.6,0-1.1,0.6-1.1,1.1l-2.2,13c-0.2,0.7,0.2,1.4,1.2,1.4s2.5,0,2.5,0c2.3,0,3.3,0,3.8-1.2c0,0,1-2.6,1.9-4.2l0,0l0,0
				c0.4-0.7,0.9-1.3,1.3-1.6c1.6-1.3,3.2-1.5,7.1-1.5h11.5l0,0h0.1l0,0c0.5,0,1,0.4,1,1l0,0v65c0,1-0.9,1.2-1,1.2
				c-2.7,0.5-3.8,0.7-4.5,0.8c-1,0.2-1.4,1-1.4,2.7v2.5c0,0.6,0.5,1.2,1.4,1.2h22.1c0.8,0,1.4-0.6,1.4-1.2v-2.5
				c0-1.7-0.4-2.5-1.4-2.7c-0.6-0.1-1.7-0.3-4.5-0.8c-0.1,0-1-0.2-1-1.2v-65.1l0,0c0-0.5,0.4-1,1-1l0,0h0.1l0,0h11.3
				c3.9,0,5.5,0.3,7.1,1.5c0.5,0.3,0.9,0.9,1.3,1.6l0,0l0,0c1,1.5,1.9,4.2,1.9,4.2c0.5,1.2,1.4,1.2,3.8,1.2c0,0,1.5,0,2.5,0
				C138.8,242.8,139.2,242,139,241.5z"/>
			<path class="st1" d="M547.5,292.3c-1,0-2.5,0-2.5,0c-2.3,0-3.3,0-3.8,1.2c0,0-1.5,3.7-2.5,5.2l0,0l0,0c-0.4,0.7-0.9,1.3-1.3,1.6
				c-0.9,0.7-2.7,1.5-5.7,1.5H504c-0.7,0-1.3-0.6-1.3-1.3v-28.8c0-0.7,0.6-1.2,1.2-1.2c0,0,24.2,0,24.3,0c0.3,0,0.6,0.1,0.7,0.3
				c0,0,0.9,2.2,1,2.3c0.4,0.9,1,1.4,2.7,1.4c0,0,0,0,0.1,0h2.5c1,0,1.2-0.5,1.2-1.4v-12.3c0-0.8-0.3-1.4-1.2-1.4h-2.5
				c0,0,0,0-0.1,0c-1.7,0-2.3,0.5-2.7,1.4c-0.1,0.1-1,2.2-1,2.3c-0.2,0.2-0.3,0.4-0.7,0.5H504c-0.7,0-1.3-0.6-1.3-1.3v-26.5
				c0-0.7,0.6-1.3,1.3-1.3h22.8c3.9,0,5,0.2,6.6,1.4c0.5,0.3,0.9,0.9,1.3,1.6l0,0l0,0c1,1.5,1.9,4.2,1.9,4.2
				c0.5,1.2,1.4,1.2,3.8,1.2c0,0,1.5,0,2.5,0c1,0,1.4-0.9,1.2-1.4l-2.2-13c-0.1-0.4-0.3-0.8-0.7-1c-0.1-0.1-0.3-0.1-0.4-0.1
				c0,0-54.2,0-55,0c-0.6,0-1.1,0.6-1.1,1.1v2.5c0,1.4,0.3,2.5,1.2,2.7l4.2,0.7c1.1,0.2,1.4,0.5,1.4,1.2c0,0,0,0,0,0.2v64.4
				c0,0.3-0.1,1-0.9,1.1c-2.7,0.5-3.9,0.7-4.5,0.9c-1.1,0.2-1.5,1.1-1.5,2.8v2.5c0,0.8,0.8,1.2,1.4,1.2c0,0,59.4,0,59.4,0
				c0.5,0,0.9-0.6,1-1l2.2-14C548.9,293.2,548.5,292.3,547.5,292.3z"/>
			<path class="st1" d="M384.5,292.3c-1,0-2.5,0-2.5,0c-2.3,0-3.3,0-3.8,1.2c0,0-1.5,3.7-2.5,5.2l0,0l0,0c-0.4,0.7-0.9,1.3-1.3,1.6
				c-0.9,0.7-2.7,1.5-5.7,1.5H341c-0.7,0-1.3-0.6-1.3-1.3v-28.8c0-0.7,0.6-1.2,1.2-1.2c0,0,24.2,0,24.3,0c0.3,0,0.6,0.1,0.7,0.3
				c0,0,0.9,2.2,1,2.3c0.4,0.9,1,1.4,2.7,1.4c0,0,0,0,0.1,0h2.5c1,0,1.2-0.5,1.2-1.4v-12.3c0-0.8-0.3-1.4-1.2-1.4h-2.5
				c0,0,0,0-0.1,0c-1.7,0-2.3,0.5-2.7,1.4c-0.1,0.1-1,2.2-1,2.3c-0.2,0.2-0.3,0.4-0.7,0.5H341c-0.7,0-1.3-0.6-1.3-1.3v-26.5
				c0-0.7,0.6-1.3,1.3-1.3h22.8c3.9,0,5,0.2,6.6,1.4c0.5,0.3,0.9,0.9,1.3,1.6l0,0l0,0c1,1.5,1.9,4.2,1.9,4.2
				c0.5,1.2,1.4,1.2,3.8,1.2c0,0,1.5,0,2.5,0c1,0,1.4-0.9,1.2-1.4l-2.2-13c-0.1-0.4-0.3-0.8-0.7-1c-0.1-0.1-0.3-0.1-0.4-0.1
				c0,0-54.2,0-55,0c-0.6,0-1.1,0.6-1.1,1.1v2.5c0,1.4,0.3,2.5,1.2,2.7c0,0,0.5,0.1,4.2,0.7c0.4,0.1,0.9,0.2,1.1,0.5l0.1,0.1l0,0
				c0.1,0.2,0.2,0.3,0.2,0.6c0,0,0,0,0,0.2v64.4c0,0.3-0.1,1-0.9,1.1c-2.7,0.5-3.9,0.7-4.5,0.9c-1.1,0.2-1.5,1.1-1.5,2.8v2.5
				c0,0.8,0.8,1.2,1.4,1.2c0,0,59.4,0,59.4,0c0.5,0,0.9-0.6,1-1l2.2-14C385.9,293.2,385.5,292.3,384.5,292.3z"/>
			<g>
				<path class="st1" d="M311.1,302.4c-0.5-0.1-0.6-0.1-1.5-0.3c-0.5-0.1-1-0.2-1.9-0.3c-0.1,0-0.5,0-0.7-0.3
					c-0.2-0.2-3.5-9-3.6-9.4l0,0l0,0c-9.5-25-10.9-27.9-28.4-64c-0.7-1.4-2.1-2.2-3.4-2.2c-1.4,0-2.7,0.9-3.4,2.2
					c-0.3,0.6-20.1,46.3-27.6,63.9l-3,6.9l-0.7,1.4c0,0-0.3,0.6-0.5,0.9c-0.1,0.1-0.3,0.3-0.7,0.3c-2.7,0.5-3.8,0.7-4.5,0.8
					c-1,0.2-1.4,1-1.4,2.7v2.5c0,0.6,0.5,1.2,1.4,1.2h22.1c0.8,0,1.4-0.6,1.4-1.2v-2.5c0-1.7-0.4-2.5-1.4-2.7
					c-0.6-0.1-2.6-0.6-5.4-1c-0.2-0.1-0.3-0.1-0.4-0.2c-0.6-0.3-0.9-0.9-0.7-1.4c0,0,2-5.4,2.8-7.5c1-2.6,2.2-5.3,3-7.4
					c0.5-1.1,0.8-2.1,1.1-2.8c0.3-0.7,1-1.3,1.8-1.3H285c0.6,0,1.8-0.1,2.1,1c0.1,0.4,2.7,7.2,4.3,12.1c0.3,1.2,0.9,3,1.3,4.4
					c0.1,0.5,0.3,1.3,0.5,1.7c0.3,0.9,0.2,1.4-0.3,1.8c-0.1,0.1-0.2,0.1-0.2,0.1c-2.7,0.5-3,0.5-3.7,0.6c-1,0.2-1.4,1-1.4,2.7v2.5
					c0,0.6,0.5,1.2,1.4,1.2h22.1c1.1,0,1.4-0.6,1.4-1.2v-2.5C312.5,303.3,312.1,302.6,311.1,302.4z M282.9,273.7h-25
					c-0.5,0-0.9-0.5-0.7-1l12.3-29.9c7.2,14.9,11,22.9,13.9,29.7c0.1,0.2,0.1,0.3,0.1,0.3C283.8,273.2,283.5,273.7,282.9,273.7z"/>
			</g>
		</g>
		<path class="st1" d="M438.4,346.2h-7.8c-0.3,0-0.5,0.2-0.5,0.5v0.7c0,0.2,0,0.8,0.5,0.9c0.2,0.1,2.8,0.5,2.9,0.5
			c0.2,0.1,0.3,0.2,0.3,0.3c0,0.2,0,4.5,0,4.5s-0.1,0.8-1.1,1.6c-0.5,0.4-1.1,0.7-2,0.9c-0.8,0.2-1.7,0.3-2.5,0.3
			c-1.3,0-2.5-0.2-3.6-0.7c-1.1-0.5-2.1-1.2-2.9-2.1c-1.5-1.7-2.3-3.9-2.3-6.4c0-1.3,0.2-2.5,0.6-3.8c0.4-1.3,1-2.3,1.7-3.3
			s1.7-1.7,2.7-2.3c1.1-0.6,2.3-0.9,3.6-0.9c1.6,0,3,0.4,4.2,1.1l0.1,0.1c0.8,0.5,1.5,1.4,1.9,2.3c0.1,0.3,0.2,0.9,0.2,0.9
			c0.1,0.5,0.5,0.5,0.9,0.5h0.7c0.2,0,0.5-0.2,0.5-0.5v-6.1c0-0.2-0.2-0.5-0.5-0.5h-0.7c-0.5,0-0.7,0.1-0.8,0.5
			c-0.1,0.3-0.1,0.5-0.2,0.7c-0.1,0.1-0.2,0.1-0.2,0.1c-0.7-0.3-1.6-0.6-2.6-0.9c-1.3-0.3-2.4-0.4-3.5-0.4c-2.3,0-4.4,0.6-6.3,1.6
			c-1.9,1.1-3.4,2.6-4.5,4.5c-1.1,1.9-1.7,4-1.7,6.2c0,1.7,0.3,3.3,1,4.7c0.6,1.5,1.5,2.8,2.8,3.9c0.8,0.7,1.7,1.2,2.6,1.7
			c1,0.5,1.9,0.7,3,0.9c1,0.2,2.1,0.3,3.1,0.3c1.9,0,4-0.4,6.1-1.3c2.2-0.9,3.2-1.7,3.2-2.6c0-0.1,0-5.8,0-5.8c0-0.1,0-0.2,0.1-0.2
			c0.1-0.1,0.8-0.3,0.8-0.3c0.2-0.1,0.5-0.3,0.5-0.9v-0.7C438.9,346.5,438.7,346.2,438.4,346.2z"/>
		<path class="st1" d="M499.7,353.5h-0.7c-0.7,0-1,0-1.2,0.5c-0.1,0.2-0.5,1.1-0.9,1.5c-0.4,0.3-0.8,0.4-1.9,0.4h-7
			c-0.1,0-0.1-0.1-0.1-0.1v-18.1c0-0.2,0.2-0.2,0.2-0.2c0.7-0.1,1.1-0.2,1.3-0.2c0.5-0.1,0.5-0.5,0.5-0.9v-0.7
			c0-0.2-0.2-0.5-0.5-0.5h-6.1c-0.4,0-0.5,0.2-0.5,0.5v0.7c0,0.4,0.1,0.8,0.5,0.9c0.2,0.1,0.5,0.1,1.3,0.2c0.2,0,0.2,0.2,0.2,0.2
			v17.9c0,0.1-0.1,0.2-0.2,0.2c-0.4,0.1-1.3,0.2-1.4,0.2c-0.5,0.1-0.5,0.5-0.5,0.9v0.7c0,0.2,0.1,0.5,0.5,0.5c0.5,0,16.1,0,16.1,0
			s0.3,0,0.5-0.4c0,0,0.4-2.3,0.5-3.1l0.1-0.5C500.3,353.6,499.9,353.5,499.7,353.5z"/>
		<path class="st1" d="M521.8,353.5h-0.7c-0.7,0-1,0-1.2,0.5c-0.1,0.2-0.5,1.1-0.9,1.5c-0.4,0.3-0.8,0.4-1.9,0.4h-7.1
			c-0.1,0-0.1-0.1-0.1-0.1v-18.1c0-0.2,0.2-0.2,0.2-0.2c0.7-0.1,1.1-0.2,1.3-0.2c0.5-0.1,0.5-0.5,0.5-0.9v-0.7
			c0-0.2-0.2-0.5-0.5-0.5h-6.1c-0.4,0-0.5,0.2-0.5,0.5v0.7c0,0.4,0.1,0.8,0.5,0.9c0.2,0.1,0.5,0.1,1.3,0.2c0.2,0,0.2,0.2,0.2,0.2
			v17.9c0,0.1-0.1,0.2-0.2,0.2c-0.4,0.1-1.3,0.2-1.4,0.2c-0.5,0.1-0.5,0.5-0.5,0.9v0.7c0,0.2,0.1,0.5,0.5,0.5c0.5,0,16.1,0,16.1,0
			s0.3,0,0.5-0.4c0,0,0.4-2.3,0.5-3.1l0.1-0.5C522.4,353.6,522,353.5,521.8,353.5z"/>
		<path class="st1" d="M303.4,335.6c0-0.2-0.1-0.3-0.3-0.4l-0.2-0.1h-15.3h-0.1c-0.2,0.1-0.4,0.2-0.4,0.5v0.7c0,0.2,0,0.8,0.5,0.9
			l0,0c0.1,0,0.3,0.1,1.1,0.2c0.1,0,0.2,0.1,0.2,0.1c0,0,0,0.1,0.1,0.1v18c0,0.1-0.1,0.2-0.2,0.2c-0.7,0.1-1.1,0.2-1.3,0.2
			c-0.5,0.1-0.5,0.5-0.5,0.9v0.7c0,0.5,0.5,0.5,0.6,0.5h6.1c0.1,0,0.5,0,0.5-0.5v-0.7c0-0.4-0.1-0.8-0.5-0.9
			c-0.2-0.1-0.5-0.1-1.3-0.2c0,0-0.2-0.1-0.2-0.2c0-0.2,0-8.5,0-8.5c0-0.1,0.1-0.2,0.2-0.2h6.7c0.1,0,0.1,0,0.1,0l0.1,0.1
			c0,0.1,0.2,0.5,0.2,0.5c0.1,0.3,0.4,0.5,0.9,0.5h0.7c0.5,0,0.5-0.4,0.5-0.5V344c0-0.1,0-0.5-0.5-0.5h-0.7c-0.5,0-0.7,0.1-0.9,0.5
			c0,0-0.2,0.5-0.2,0.5c0,0-0.1,0.1-0.1,0.1c0,0.1-0.1,0.1-0.1,0.1h-6.7c-0.1,0-0.2-0.1-0.2-0.2v-6.9c0-0.1,0.1-0.2,0.2-0.2
			c0,0,5.4,0,6.3,0c1.1,0,1.3,0.1,1.8,0.4c0.1,0.1,0.2,0.2,0.3,0.4c0.2,0.4,0.5,1,0.5,1.1c0.2,0.4,0.5,0.4,1.2,0.4h0.7
			c0.2,0,0.3-0.1,0.4-0.2c0.1-0.1,0.1-0.3,0.1-0.3L303.4,335.6z"/>
		<path class="st1" d="M258,337.4c-0.9-0.7-1.9-1.2-2.9-1.5c-1-0.3-1.9-0.6-3-0.6c-1-0.1-2.2-0.1-3.5-0.1h-6.3c0,0-1,0-1,0.1
			c-0.2,0.1-0.4,0.2-0.4,0.5v0.7c0,0.4,0.1,0.8,0.5,0.9c0.2,0.1,0.5,0.1,1.3,0.2h0.1l0.1,0.1v0.1v18.1c0,0.1-0.1,0.2-0.2,0.2
			c-0.6,0.1-1.2,0.2-1.2,0.2c-0.5,0.1-0.5,0.5-0.5,0.9v0.7c0,0.2,0.2,0.5,0.5,0.5h8.8c1.2,0,2.3-0.1,3.3-0.3c1-0.2,1.9-0.5,2.9-1
			c0.9-0.5,1.8-1.1,2.6-1.9c1.1-1.1,1.9-2.3,2.5-3.8s0.9-2.9,0.9-4.5C262.3,342.7,260.8,339.6,258,337.4z M246.2,355.5v-17.8
			c0-0.1,0.1-0.2,0.3-0.2c0,0,1-0.1,2.4-0.1c3.1,0,5.8,0.8,7.1,2.2c0.9,0.9,1.5,1.9,2,3.2c0.5,1.3,0.7,2.6,0.7,4
			c0,1.4-0.2,2.7-0.6,3.9c-0.5,1.1-1.1,2.1-1.9,2.9c-0.8,0.8-1.8,1.4-3,1.8c-1.1,0.4-2.5,0.5-3.9,0.5c-0.8,0-2.1,0-2.9-0.1
			C246.3,355.7,246.2,355.6,246.2,355.5z"/>
		<path class="st1" d="M388.5,337.4c-0.9-0.7-1.9-1.2-2.9-1.5c-1-0.3-1.9-0.6-3-0.6c-1-0.1-2.2-0.1-3.5-0.1h-6.3c0,0-1,0-1,0.1
			c-0.2,0.1-0.4,0.2-0.4,0.5v0.7c0,0.4,0.1,0.8,0.5,0.9c0.2,0.1,0.5,0.1,1.3,0.2c0,0,0.1,0,0.1,0.2v18.1c0,0.1,0,0.2-0.2,0.2
			c-0.6,0.1-0.9,0.2-1.1,0.2H372c-0.5,0.1-0.5,0.5-0.5,0.9v0.7c0,0.2,0.2,0.5,0.5,0.5h8.8c1.2,0,2.3-0.1,3.3-0.3
			c1-0.2,1.9-0.5,2.9-1c0.9-0.5,1.8-1.1,2.6-1.9c1.1-1.1,1.9-2.3,2.5-3.8s0.9-2.9,0.9-4.5C392.8,342.7,391.3,339.6,388.5,337.4z
			 M376.6,355.5v-17.8c0-0.1,0.1-0.2,0.3-0.2c0,0,1-0.1,2.4-0.1c3.1,0,5.8,0.8,7.1,2.2c0.9,0.9,1.5,1.9,2,3.2c0.5,1.3,0.7,2.6,0.7,4
			c0,1.4-0.2,2.7-0.6,3.9c-0.5,1.1-1.1,2.1-1.9,2.9c-0.8,0.8-1.8,1.4-3,1.8c-1.1,0.4-2.5,0.5-3.9,0.5c-0.8,0-2.1,0-2.9-0.1
			C376.7,355.7,376.6,355.6,376.6,355.5z"/>
		<path class="st1" d="M207.4,340.8c-0.5-0.9-1.1-1.7-1.8-2.5c-1-1.1-2.3-1.9-3.7-2.5s-2.9-0.9-4.4-0.9c-1.7,0-3.2,0.3-4.6,0.9
			c-1.4,0.6-2.6,1.5-3.5,2.6s-1.7,2.4-2.2,3.8c-0.5,1.4-0.7,3-0.7,4.6c0,3.4,1,6.2,3,8.3c0.7,0.7,1.4,1.3,2.3,1.8
			c0.9,0.5,1.7,0.9,2.6,1.1c0.9,0.2,1.9,0.3,2.9,0.3c2.2,0,4.2-0.5,5.9-1.5c1.8-1,3.1-2.4,4.1-4.2c1-1.8,1.4-3.8,1.4-5.9
			c0-1.1-0.1-2.1-0.3-3.1C208.2,342.6,207.9,341.7,207.4,340.8z M200.7,355.5c-1,0.5-2.1,0.8-3.3,0.8s-2.2-0.3-3.1-0.8
			s-1.8-1.3-2.5-2.2c-1.2-1.8-1.8-3.9-1.8-6.5c0-2.5,0.6-4.6,1.7-6.3c0.6-1,1.5-1.9,2.5-2.5c1-0.6,2.1-0.9,3.3-0.9s2.2,0.3,3.2,0.8
			c1,0.5,1.8,1.3,2.5,2.2c0.6,0.9,1.1,1.9,1.4,3.1c0.3,1.2,0.5,2.5,0.5,3.7c0,2.5-0.6,4.6-1.8,6.3
			C202.6,354.2,201.7,354.9,200.7,355.5z"/>
		<path class="st1" d="M234.6,340.8c-0.5-0.9-1.1-1.7-1.8-2.5c-1-1.1-2.3-1.9-3.7-2.5s-2.9-0.9-4.4-0.9c-1.7,0-3.2,0.3-4.6,0.9
			c-1.4,0.6-2.6,1.5-3.5,2.6c-1,1.1-1.7,2.4-2.2,3.8s-0.7,3-0.7,4.6c0,3.4,1,6.2,3,8.3c0.7,0.7,1.4,1.3,2.3,1.8
			c0.9,0.5,1.7,0.9,2.6,1.1c0.9,0.2,1.9,0.3,2.9,0.3c2.2,0,4.2-0.5,5.9-1.5c1.8-1,3.1-2.4,4.1-4.2c1-1.8,1.4-3.8,1.4-5.9
			c0-1.1-0.1-2.1-0.3-3.1C235.4,342.6,235.1,341.7,234.6,340.8z M227.9,355.5c-1,0.5-2.1,0.8-3.3,0.8c-1.1,0-2.2-0.3-3.1-0.8
			c-1-0.5-1.8-1.3-2.5-2.2c-1.2-1.8-1.8-3.9-1.8-6.5c0-2.5,0.6-4.6,1.7-6.3c0.6-1,1.5-1.9,2.5-2.5c1-0.6,2.1-0.9,3.3-0.9
			c1.1,0,2.2,0.3,3.2,0.8c1,0.5,1.8,1.3,2.5,2.2c0.6,0.9,1.1,1.9,1.4,3.1c0.3,1.2,0.5,2.5,0.5,3.7c0,2.5-0.6,4.6-1.8,6.3
			C229.8,354.2,229,354.9,227.9,355.5z"/>
		<path class="st1" d="M541.7,346.9c-1.4-1-4.2-1.7-5.9-2.1c-2.2-0.5-5.5-1.4-6.1-3.6c-0.6-2.3,1.4-3.4,2.2-3.8
			c0.8-0.3,1.7-0.5,2.6-0.5c1.5,0,2.9,0.4,4.1,1.1c0.6,0.4,1.2,0.8,1.8,1.5c0.3,0.4,0.7,1,0.9,1.6c0.1,0.3,0.1,0.5,0.6,0.5h0.7
			c0.2,0,0.4-0.1,0.4-0.3s0-5.4,0-5.7s-0.2-0.4-0.4-0.4h-0.7c-0.4,0-0.7,0.1-0.9,0.5l-0.1,0.9c0,0.1-0.1,0.2-0.1,0.2
			c0,0-0.3-0.2-0.4-0.3c-1.4-1-3.3-1.5-5.5-1.5c-2.4,0-4.2,0.7-5.7,1.9c-0.7,0.6-2.1,2.2-2.1,4.6c0,0.9,0.2,1.8,0.6,2.5
			c0.4,0.8,1.5,2.2,3.9,3.2l0,0c0.9,0.3,2.2,0.6,3.3,0.9c2.2,0.5,3.2,0.7,4.2,1.3c1,0.5,1.8,1.7,1.8,3c0,0.9-0.2,1.7-0.7,2.3
			c-0.5,0.6-1,1-1.8,1.3c-0.8,0.3-1.7,0.5-2.6,0.5c-1.5,0-2.9-0.4-4.1-1.1c-0.6-0.4-1.2-0.8-1.8-1.5c-0.3-0.4-0.7-1-0.9-1.6
			c-0.1-0.3-0.1-0.5-0.6-0.5h-0.7c-0.2,0-0.5,0.1-0.5,0.3s0,5.4,0,5.7s0.2,0.4,0.5,0.4h0.7c0.4,0,0.7-0.1,0.9-0.5l0.1-0.9
			c0-0.1,0.1-0.2,0.1-0.2c0.1,0.1,0.3,0.2,0.4,0.3c1.4,1,3.3,1.5,5.5,1.5c2.4,0,4.6-0.6,6.2-1.8c0.7-0.6,1.4-1.4,1.8-2.3
			c0.5-0.9,0.7-1.8,0.7-2.8C544.1,349.2,543,347.8,541.7,346.9z"/>
		<path class="st1" d="M316.8,335.2h-6.1c-0.4,0-0.5,0.2-0.5,0.5v0.7c0,0.4,0.1,0.8,0.5,0.9c0.2,0.1,0.5,0.1,1.3,0.2h0.1l0.1,0.1
			c0.1,0.1,0.1,0.1,0.1,0.1v17.9c0,0.1,0,0.1-0.1,0.2l-0.1,0.1H312c-0.7,0.1-1.1,0.2-1.3,0.2c-0.5,0.1-0.5,0.5-0.5,0.9v0.7
			c0,0.3,0.2,0.5,0.5,0.5h6.1c0.3,0,0.5-0.2,0.5-0.5v-0.7c0-0.4-0.1-0.8-0.5-0.9c-0.2-0.1-0.5-0.1-1.3-0.2h-0.1l-0.1-0.1
			c-0.1-0.1-0.1-0.1-0.1-0.1v-17.9c0-0.1,0-0.1,0.1-0.2l0.1-0.1h0.1c0.7-0.1,1.1-0.2,1.3-0.2c0.5-0.1,0.5-0.5,0.5-0.9v-0.7
			C317.3,335.4,317.1,335.2,316.8,335.2z"/>
		<path class="st1" d="M475.7,335.2c-0.3,0-5.8,0-6.1,0c-0.4,0-0.5,0.2-0.5,0.5v0.7c0,0.4,0.1,0.8,0.5,0.9c0.2,0.1,0.5,0.1,1.3,0.2
			h0.1l0.1,0.1c0.1,0.1,0.1,0.1,0.1,0.1v17.9c0,0.1,0,0.1-0.1,0.2l-0.1,0.1h-0.1c-0.7,0.1-1.1,0.2-1.3,0.2c-0.5,0.1-0.5,0.5-0.5,0.9
			v0.7c0,0.5,0.5,0.5,0.5,0.5c0,0,5.7,0,6.1,0c0.4,0,0.5-0.2,0.5-0.5v-0.7c0-0.4-0.1-0.8-0.5-0.9c-0.2-0.1-0.5-0.1-1.3-0.2h-0.1
			l-0.1-0.1c-0.1-0.1-0.1-0.1-0.1-0.1v-17.9c0-0.1,0-0.1,0.1-0.2l0.1-0.1h0.1c0.7-0.1,1.1-0.2,1.3-0.2c0.5-0.1,0.5-0.5,0.5-0.9
			c0,0,0-0.4,0-0.7C476.3,335.3,476.1,335.2,475.7,335.2z"/>
		<path class="st1" d="M182.7,335.2h-5.4c-0.3,0-0.5,0.3-0.5,0.5v0.7c0,0.4,0.1,0.8,0.5,0.9c0.6,0.1,0.9,0.1,1.1,0.2
			c0.2,0.2,0.1,0.4,0.1,0.9c-0.1,0.3-0.1,0.7-0.2,1.1c-0.1,0.7-0.3,1.8-0.6,3.3c-0.7,3.7-1.8,7.3-3,10.6c-0.4-0.8-1.1-2.5-1.1-2.5
			c-0.5-1.2-1-2.6-1.4-4.1c-1.4-4.2-2.1-7-2.1-8.5c0-0.1,0-0.8,0.1-0.9c0.1-0.1,0.4-0.1,1.1-0.1c0.5-0.1,0.5-0.5,0.5-0.9v-0.7
			c0-0.2-0.2-0.5-0.5-0.5h-5.4c-0.2,0-0.5,0.3-0.5,0.5v0.7c0,0.4-0.1,0.9,0.5,0.9c0,0,0.9,0,1,0.1c0.1,0.1,0.1,0.7,0.1,0.7
			s-0.2,2.1-0.6,3.8c-0.3,1.4-1.3,5.3-3.9,11.9c-0.5-1.4-0.9-2.7-1.3-3.8c-0.4-1.3-0.8-2.6-1.1-4.1c-1-3.7-1.4-6.3-1.4-7.7
			c0-0.1,0.1-0.5,0.1-0.5c0-0.1,0.1-0.2,0.1-0.2h0.1c0.6-0.1,0.9-0.2,1.1-0.2h0.1c0.5-0.1,0.5-0.5,0.5-0.9v-0.7
			c0-0.2-0.2-0.4-0.3-0.5c-0.1,0-0.1-0.1-0.2-0.1h-5.9c-0.1,0-0.5,0-0.5,0.5v0.7c0,0.4,0.1,0.8,0.5,0.9c0.1,0,0.1,0,0.2,0.1
			c0.1,0,0.3,0.1,0.7,0.1c0.1,0,0.1,0,0.1,0.1c0,0.1,0,0.1,0.1,0.1v0.1l0.2,0.7l0.6,3c0.3,1.8,0.7,3.7,1.3,5.6s1.1,3.9,1.7,5.8
			c0.6,1.9,1.3,3.5,2.1,4.9c0.1,0.2,0.5,0.7,0.6,0.8c0.2,0.1,0.3,0.2,0.6,0.2c0.3,0,0.6-0.1,0.8-0.3c0.1-0.2,0.3-0.4,0.6-0.8
			c0.7-1.1,1.4-2.6,2-4.3c1-2.8,1.9-5.7,2.6-8.5c1.4,4.6,3,8.6,4.6,11.7c0.1,0.3,0.8,1.5,1,1.8c0.3,0.3,0.6,0.5,0.9,0.5
			c0.4,0,0.7-0.2,0.9-0.5c0.2-0.2,0.3-0.6,0.6-1c0.6-1.4,1.3-2.9,1.7-4.3c0.5-1.5,0.9-3,1.3-4.5c0.3-1.5,0.7-3.1,1.1-4.7l1-4.8
			c0,0,0.2-1.2,0.3-1.3s0.5-0.2,1-0.2c0.5-0.1,0.5-0.5,0.5-0.9v-0.7C183.1,335.4,183,335.2,182.7,335.2z"/>
		<path class="st1" d="M366.3,353.4c-0.1-0.1-0.2-0.2-0.4-0.2h-0.7c-0.7,0-1,0-1.2,0.5c-0.1,0.1-0.4,1-0.7,1.4l0,0
			c-0.1,0.2-0.2,0.3-0.3,0.4c-0.2,0.2-0.5,0.3-0.8,0.3c-0.2,0-0.5,0.1-0.7,0.1h-7.7c-0.1,0-0.2-0.1-0.2-0.2v-8.1
			c0-0.1,0.1-0.2,0.2-0.2h6.7c0.1,0,0.1,0,0.1,0.1l0.1,0.1c0,0.1,0.2,0.5,0.2,0.5c0.1,0.3,0.4,0.5,0.9,0.5h0.7
			c0.2,0,0.5-0.1,0.5-0.5v-3.4c0-0.5-0.5-0.5-0.5-0.5h-0.7c-0.5,0-0.7,0.1-0.9,0.5c0,0-0.2,0.5-0.2,0.5l-0.1,0.1
			c0,0.1-0.1,0.1-0.1,0.1h-6.7c-0.1,0-0.2-0.1-0.2-0.2v-7.4c0-0.1,0.1-0.2,0.2-0.2c0,0,5.7,0,6.6,0c0.9,0,1.1,0.1,1.5,0.4
			c0.1,0.1,0.2,0.2,0.3,0.4c0.2,0.4,0.5,1,0.5,1.1c0.1,0.3,0.3,0.4,0.6,0.4h1.3c0.2,0,0.3-0.1,0.4-0.2c0.1-0.1,0.1-0.3,0.1-0.3
			l-0.6-3.6c0-0.2-0.2-0.4-0.5-0.4c-0.2,0-15.3,0-15.3,0s-0.5,0-0.5,0.5v0.7c0,0.2,0,0.8,0.5,0.9c0.1,0,0.2,0.1,1.2,0.2
			c0.1,0,0.2,0.1,0.2,0.1c0,0,0.1,0.1,0.1,0.1v17.9c0,0.1,0,0.2-0.1,0.2c-0.5,0.1-1.3,0.2-1.3,0.2c-0.5,0.1-0.5,0.5-0.5,0.9v0.7
			c0,0.3,0.2,0.5,0.5,0.5c0,0,16.3,0,16.6,0c0.3,0,0.4-0.2,0.5-0.4l0.6-3.9C366.4,353.7,366.4,353.5,366.3,353.4z"/>
		<path class="st1" d="M343.6,356.1L343.6,356.1c0,0-0.3-0.1-1-0.2c-0.1,0-0.2-0.1-0.3-0.2c0,0,0-0.1-0.1-0.1
			c-0.3-0.7-0.7-1.5-1.2-2.3c-1.6-2.9-3.3-5.3-4-6.3l-0.2-0.2c0.8-0.4,1.6-0.9,2.2-1.3c0.8-0.6,1.4-1.3,1.9-2.1
			c0.5-0.8,0.7-1.7,0.7-2.7c0-0.9-0.2-1.7-0.6-2.5c-0.5-0.7-1-1.4-1.8-1.8c-1.1-0.7-2.7-1.1-4.7-1.1h-10.5c-0.2,0-0.5,0.2-0.5,0.5
			v0.7c0,0.4,0.1,0.8,0.5,0.9c0.2,0.1,0.5,0.1,1.2,0.2c0.1,0,0.2,0.1,0.2,0.2v18c0,0.1-0.1,0.2-0.2,0.2c-0.7,0.1-1,0.2-1.2,0.2
			c-0.5,0.1-0.5,0.5-0.5,0.9v0.7c0,0.2,0.2,0.5,0.5,0.5h6.3c0.3,0,0.5-0.2,0.5-0.5v-0.7c0-0.2,0-0.8-0.4-0.9c0,0,0,0-1.3-0.2
			c-0.1,0-0.1-0.1-0.1-0.2v-7.4l4.3-0.7c0.1,0,0.2-0.1,0.2-0.1c0.1,0,0.1,0,0.2,0.2l0.1,0.1c0.1,0.1,0.2,0.2,0.3,0.4
			c0.5,0.7,1.4,2,2.2,3.4c1.9,3.2,2.1,3.8,2.1,3.9c0,0-0.1,0.1-0.2,0.1c-0.7,0.1-1,0.2-1.2,0.2c-0.5,0.1-0.5,0.5-0.5,0.9v0.7
			c0,0.2,0.2,0.4,0.4,0.5h0.1h6.7c0.3,0,0.5-0.2,0.5-0.5v-0.7C344,356.8,344,356.2,343.6,356.1z M328.9,337.6c0-0.1,0.1-0.1,0.1-0.1
			h2.9c4.2,0,6.1,1.1,6.1,3.4c0,0.9-0.3,1.7-0.9,2.4c-1,1.1-2.6,1.8-4.8,2.3c-0.6,0.1-1.7,0.3-3.4,0.6c0,0-0.1,0-0.1-0.1
			C328.9,346.2,328.9,337.6,328.9,337.6z"/>
		<path class="st1" d="M463.2,356.1c0,0-0.3-0.1-1-0.2c-0.1,0-0.3-0.1-0.3-0.3c-0.3-0.7-0.7-1.5-1.2-2.3c-1.6-2.9-4.1-6.5-4.1-6.5
			c0.8-0.4,1.5-0.8,2.2-1.3c0.8-0.6,1.4-1.3,1.9-2.1c0.5-0.8,0.7-1.7,0.7-2.7c0-0.9-0.2-1.7-0.6-2.5c-0.5-0.7-1-1.4-1.8-1.8
			c-1.1-0.7-2.7-1.1-4.7-1.1h-10.5c-0.2,0-0.5,0.2-0.5,0.5v0.7c0,0.4,0.1,0.8,0.5,0.9c0.2,0.1,0.5,0.1,1.2,0.2
			c0.1,0,0.2,0.1,0.2,0.2v18c0,0.1-0.1,0.2-0.2,0.2c-0.7,0.1-1,0.2-1.2,0.2c-0.5,0.1-0.5,0.5-0.5,0.9v0.7c0,0.2,0.2,0.5,0.5,0.5h6.3
			c0.3,0,0.5-0.2,0.5-0.5v-0.7c0-0.2,0-0.8-0.4-0.9c0,0,0,0-1.3-0.2c-0.1,0-0.1-0.1-0.1-0.2v-7.4c0,0,4.5-0.8,4.5-0.8
			c0.1,0,0.1,0,0.2,0.2c0,0,0.2,0.3,0.3,0.5c0.5,0.7,1.4,2,2.2,3.4c1.9,3.2,2.1,3.8,2.1,3.9c0,0.1-0.1,0.1-0.2,0.1
			c-0.7,0.1-1,0.2-1.2,0.2c-0.5,0.1-0.5,0.5-0.5,0.9v0.7c0,0.2,0.2,0.5,0.5,0.5c0.3,0,6.7,0,6.7,0c0.3,0,0.5-0.2,0.5-0.5v-0.7
			C463.7,356.8,463.7,356.2,463.2,356.1z M448.6,337.7c0-0.1,0-0.1,0-0.1c0-0.1,0.1-0.1,0.1-0.1h2.9c4.2,0,6.1,1.1,6.1,3.4
			c0,0.9-0.3,1.7-0.9,2.4c-1,1.1-3.2,2.3-8.2,2.9c0,0-0.1,0-0.1-0.1L448.6,337.7L448.6,337.7z"/>
		<path class="st1" d="M273.2,115.3l30.2,17.3c0.1,0.1,0.2,0.1,0.3,0c1.7-1.1,20-14.8,47.6-33.4c0,0,3.7-2.5,7.1-0.1l49.5,34.6
			c0.2,0.2,0.5,0.2,0.8,0.1l30.8-12.9c1.3-0.5,2.7-0.4,3.9,0.3c7,4.3,34.1,21.5,37.1,23.4c2.1,1.2,0.7,3.3-1.1,2.3
			c-3.2-1.7-33.8-17.9-35.7-18.9c-1.9-1-2.4-1-4.6,0c0,0-18.9,8.9-20.9,9.8c-1.9,0.9-0.9,3.2,2.3,1.8s16.2-6.6,18.6-7.6
			c2.5-1,4.5,0.2,2.8,2.5c-1.7,2.3-3.8,5.1-5.4,7.5c-1.7,2.3,0.5,2.7,3.7,2.5c3.2-0.2,2.8,3.1-0.7,3.9c-3.5,0.9-4.4,1.1-4.4,3.5
			c0,2.4,5.3,5.5,11.9,8.3c6.6,2.7,46.7,19.3,46.7,19.3c3.6,1.2,2.1,4.3-0.4,3.5c-2.3-0.7-53.6-17.5-62.2-23
			c-8.6-5.5-26.5-18.5-74.1-49.6c0,0-2.3-1.5-4.6-0.2L312,136.5c0,0-8.5,5.8-10.5,7.2c-1.6,1.1-0.2,3.5,4.6,0.6l43.5-25.4
			c0,0,4.5-2.5,3.8,2.3c0,0-1.3,11.3-1.7,14.3c-0.3,3-1.7,8.7,3.3,8.4c0,0,6.2-0.7,3,4.3c-0.2,0.3-27.4,38.7-28.3,39.4
			c-1.6,1.2-3.9,0.3-3.3-2.9c0,0,5-19.6,5.1-20.1c0.7-3-1.7-4.1-4.1-1.8c-2.5,2.3-19.2,18.5-21.2,20.3c-2,1.9-4.5,0.2-3.3-2.1
			c1.1-2.3,10.8-20.7,12.1-23.1c1.3-2.5-1.3-4.2-3.6-2c-2.5,2.2-24.2,21.3-24.2,21.3c-8.3,6.9-30.2,5.2-61.2,25.7l0,0
			c-4.4,2.7-5.9-1.1-3.5-3.1c2.4-1.9,8.7-7.5,10.9-9.5c1.8-1.7,1.5-4.5-3.1-3.4c-4.6,1.1-30.6,7.1-30.6,7.1s-10.4,2.8-11.1,0.4
			c-0.6-2,3-3.2,3-3.2s50.7-15,104.1-52.8c0.2-0.1,0.1-0.3,0-0.4l-21.4-13.1l0,0c-0.1-0.1-1.8-1-3.6,0c0,0-27,15-28.7,15.8
			c-1.6,0.9-0.6,2.7,2.6,1.2c2.2-1.1,15-7.4,18.8-9.3c4.3-2.2,8-0.6,5.6,2.7c-2.2,2.9-15.2,20.3-17,22.7c-1.8,2.4-5.8,2.4-4.3-2.2
			c1.4-4.6,0.8-2.6,1.3-4.2c0.5-1.5-0.6-2.9-2.6-0.7c-2,2.2-7.9,8.7-11.5,12.7c-3.3,3.5-4.6,1.5-3.9-0.3c0.9-2.3,1.1-2.8,1.5-3.9
			c0.5-1.6-1.1-2.1-1.9-0.9c-0.9,1.1-13,15.8-14.7,18.1c-1.7,2.2-4.6,1.1-1.8-4.3c3-5.7-8.5-2.5-12.1-1.6
			c-3.7,0.8-49.5,15.1-57.4,16.7c-2.7,0.9-3.8-2.1-0.7-3.4c3.1-1.2,16.9-6,19.3-6.9c2.4-0.9,1.8-2.4-1-2.1
			c-2.2,0.3-34.3,2.7-39.7,3.1c-2.2,0.2-2.8-2.3,0.3-2.6c4.2-0.5,51.1-7.8,71.8-19.1c16.7-9.1,75.9-41,75.9-41
			S271.9,114.5,273.2,115.3z M549.7,172.8c-0.8-0.3-6.1-3.2-8.7-7.3c0,0,3.6,1.7,6.1,2.4c2.8,0.9,3.9-2.6,1.8-3.3
			c-1.5-0.6-8-4.2-8.4-6.9c0,0,3.6,2.8,5.8,3.1c1.5,0.2,2.7-2.1,0.5-3.1c-1.3-0.7-5.3-3.1-6.3-5.7c0,0,3.1,1.4,4.1,1.3
			c1.4-0.2,1.9-2.5-0.3-3.2c-2.2-0.8-3.5-2.4-4-3.2c-0.1-0.1-0.2-0.5-0.2-0.7c0,0,0.6,0.5,2.5,1.2c1.9,0.6,2.1-1.8,1-2.5
			c-1.1-0.7-4.4-2.7-5-3.6c0.1,0,3.8,2.3,4.3,1c0.6-1.3-1-2.1-2.3-2.9c-1.7-1.1-2.5-3.1-2.4-3.1c0.5,0.2,2.9,2,3.3,0.3
			c0.1-0.6-0.2-0.9-0.7-1.2c-1.1-0.6-1.7-1.3-2.5-2.9c-0.7-1.7-0.5-3.7-1.5-4.9c-0.3-0.3-1.6-0.6-2,1.1c-0.4,1.7-0.5,3.4-1.7,4.4
			s-3.1,1.8-2.4,3.1c0.5,0.8,2.2-0.1,2.9-0.6c0.1-0.1,0.1,1.2-0.9,2.1c-1,1-3.8,1.7-3.9,3.1c-0.1,1.4,2,1.2,4.3,0.2
			c-0.3,1.3-4.2,3.4-5.1,3.8c-1.9,1-0.6,2.9,0.9,2.7s3.5-1.5,3.7-1.5c0.2,0.1-0.2,0.6-0.3,0.7c-0.5,0.6-1.1,1.3-1.7,1.8
			c-0.8,0.8-1.6,1.7-2.7,2.1c-0.6,0.2-1.2,0.5-1.6,1c-0.2,0.3-0.3,0.7-0.2,1.1c0.2,0.7,0.9,1.2,1.6,1.3c1,0.2,2.1-0.2,3-0.6
			c0.5-0.2,1.2-0.9,1.8-1c-0.3,1.2-1,2.3-1.9,3.2c-1.1,1.2-2.3,1.9-3.8,2.6c-0.8,0.4-1.5,0.9-1.8,1.7c-0.1,0.2-0.1,0.5-0.1,0.7
			c0.1,0.5,0.5,0.8,0.9,1c0.7,0.3,1.6,0.3,2.3,0.2c0.3-0.1,4.3-1.4,4.2-1.9c0.1,0.5-0.6,1.1-0.8,1.4c-0.6,0.7-1.3,1.4-2.1,2.1
			c-0.9,0.7-1.8,1.4-2.7,2.1c-0.9,0.6-1.9,1-2.9,1.5c-0.4,0.2-0.8,0.6-1,1.1c-0.2,0.5-0.1,1,0.2,1.4c0.2,0.2,0.5,0.3,0.7,0.4
			c1.7,0.5,4.1-0.7,5.7-1.4c0.3-0.2,2.2-1.2,2.2-1.2c-0.2,0.5-1.1,2.8-5.1,4.2c-1.4,0.5-2.9,0.9-4.2,1.4c-0.3,0.1-0.7,0.3-1,0.6
			s-0.5,0.6-0.4,1.1c0.1,0.5,0.5,0.8,0.9,1c0.5,0.2,1.1,0.3,1.7,0.3c4.1,0,8.7-2.4,8.7-2.4c-0.2,0.1-0.5,0.4-0.6,0.6
			c-1.5,1.3-3.1,2.5-5,3.3c-1.2,0.6-2.7,0.7-3.8,1.4c-0.7,0.4-0.9,1.3-0.5,2c0.6,0.9,2,0.9,2.9,0.8c1-0.1,1.9-0.5,2.8-0.7
			c1.4-0.5,2.9-1,4.2-1.5l-0.1,0.1c-0.6,0.7-1.3,1.3-1.9,1.9c-0.9,0.9-1.9,1.5-3,2.1c-1,0.5-0.6,1.7,0.2,2.1
			c0.5,0.3,1.1,0.3,1.7,0.2c1.7-0.3,3.2-1.2,4.6-2.1c0.1-0.1,0.7-0.4,0.7-0.5c0.3,3.7-1,9.7-1.7,9.6c-1.4-0.4-2.6-0.8-3.8-1.1
			c-10-3.3-16.3-6.1-16.3-6.1c-2.2-0.8-3.7,2.6-1,3.5c-0.1-0.1,6.7,2.5,17,5.4c5.8,1.7,16.4,4.4,16.9,4.5c2.4,0.5,3-1.6,1-2.3
			c-0.2-0.1-3.2-0.9-6.8-1.9c-0.5-0.1-1.2-3.1-1.1-11.4c0,0.2,0.7,0.6,0.8,0.7c0.6,0.5,1.3,1,1.9,1.4c1.1,0.7,2.6,1.3,3.9,0.6
			c0.6-0.3,1.3-1.4,0.5-2c-0.8-0.7-4.7-2.2-5.8-5.5c-0.1-0.1,3.4,3.2,7.7,3.9c1.9,0.5,2.8-1.8,1.5-2.9c-1.3-1.1-7-3.6-8.3-7.1
			c0.1,0,3.7,2.6,7.3,3.1c0.5,0.1,1.4,0.2,1.9-0.6C550.6,174.4,550.7,173.3,549.7,172.8z M521.6,157.1c-1-1.5-11.1-5.3-12.2-8.9
			c0.1,0,2.7,2.2,8.1,3.5c4.2,1.1,4.9-3.1,2.3-3.9c-7.8-2.6-11.1-9.4-11.2-9.6c0,0,5.5,4.3,8.4,4.7c1.5,0.2,2.6,0.2,3.4-0.6
			c1.7-2.7-2.2-3.8-5-5.4c-4.3-2.5-7.2-6.7-7.4-7.6c0.3,0.1,6.2,4.2,9.5,3.3c2-0.8,1.5-2.7,0.6-3.3c-1-0.6-5.2-2.3-7.8-5.1
			c-2.7-2.7-3.3-3.9-3.3-4.1c0.3-0.1,3.8,1.9,5.9,2.2c2.1,0.3,3.5-2.2,1.4-3.3c-1.3-0.5-7.3-3.9-7.8-5.7c3.3,1.4,7.2,2.5,7,0.1
			c-0.1-1.8-4.1-2.8-5.5-4.2c-1.4-1.2-2.2-2.9-2.1-2.9c0.9,0.6,3.7,1.7,4.5,0.6c1.2-1.7-1.4-2.6-3-3.9c-1.6-1.3-2.2-5.4-2.9-7.6
			c-0.6-2.2-2.5-1.6-2.5-0.9c-0.1,0.1-0.4,5.1-1.5,7.3s-3.1,3.4-4.7,4.2c-0.7,0.4-1.1,0.9-1,1.6c0.2,1.4,2.1,1,3,0.7
			c0.9-0.3,1.2-0.5,2.1-1c0.7-0.3-1.1,3-3.5,4.1c-1.7,0.7-3.4,1.6-2.9,3.3c0.6,1.8,5.5-0.2,5.5-0.2c-0.9,1.1-6.2,4.5-7.8,5.5
			c-1.4,0.7-1.1,3.4,2.2,2.7c2.3-0.3,5-2,5-2c1-0.4-3.8,4.4-8.9,7.1c-1.4,0.9-1.3,1.8-1,2.4c0.4,0.9,1.4,1.3,2.8,0.9
			c2.1-0.6,6.2-2.4,7.1-3c-0.3,1.8-9.1,7.4-10.9,8.5c-1.1,0.7-1.4,1.8-1,2.6c0.4,0.9,1.7,1.4,4.3,0.1c0.6-0.3,6-3,6-3
			c-0.9,1.8-6,6.6-12.2,10.7c-0.8,0.6-1.2,1.5-0.9,2.3c0.4,1.1,1.2,1.7,3.4,1c2-0.6,7.7-3.5,7.7-3.5c-3.7,5.5-10.7,10.2-11.7,10.9
			c-1.3,0.9-1.5,2.1-0.8,3.1c0.7,1,2.1,1,2.8,0.9c5.1-0.6,10.7-5.8,10.9-5.8c-0.7,1.5-3.3,5.8-10.9,10.1c-1.5,1-1.1,2.3-0.8,2.7
			c0.5,0.7,1.5,0.7,2.1,0.7c5.7-0.5,9.8-3.7,9.7-3.5c-0.9,2.6-5,5.7-6.1,6.7c-1.1,1-0.1,3.4,3.4,2.8c2.4-0.2,6.1-3.7,6.1-3.7
			s-0.2,9-0.2,10.1c0,1.6-0.2,4.4-0.6,6.2c-0.3,1.7-2.8,3.9-2.8,3.9c-1.7,1.3,0.2,1.4,2,0.8c3.1-1,4.4,1.4,6.6,1.3
			c2.7,0.2,0.9-1.5,2.6-1.3c2.9,1.2,4.3,1.3,6.3,0.5c2.9-1.1-6.2-0.1-6.5-7.3c-0.1-1.2-0.5-7.8-0.6-12.3c0.6,0.7,1.9,2.2,4.2,2.9
			c3,0.9,4.5,0.5,4.9-0.5c0.3-0.9-0.1-2.1-1.1-2.6c-2.1-1.1-3.9-2.3-5.4-6.1c-0.1-0.5,1.2,1.3,6.1,3.5c4.9,2.2,5-0.7,5-1.1
			c-0.1-1.5-2.7-1.8-4.7-3.3c-3.3-2.4-3.3-3.4-3.3-3.4s5,2.8,7.2,1.9c1.2-0.6,1.7-2.3-1-3.4c-2.2-0.9-6.3-3-6.9-4.3
			c3.1,1,7,2.9,9.1,2.8C522.3,160.3,522.7,158.8,521.6,157.1z"/>
	</g>
</g>
</svg>
