<?xml version="1.0" encoding="utf-8"?>
<!-- Generator: Adobe Illustrator 24.0.1, SVG Export Plug-In . SVG Version: 6.00 Build 0)  -->
<svg version="1.1" id="Layer_8" xmlns="http://www.w3.org/2000/svg" xmlns:xlink="http://www.w3.org/1999/xlink" x="0px" y="0px"
	 width="699.2px" height="452.4px" viewBox="0 0 699.2 452.4" style="enable-background:new 0 0 699.2 452.4;" xml:space="preserve"
	>
<style type="text/css">
	.st0{fill:#EE7400;}
</style>
<g>
	<polygon class="st0" points="331.8,156 198.7,156 188.1,190.9 232.7,190.9 199.7,298.9 243.1,298.9 276.1,190.9 321.2,190.9 	"/>
	<path class="st0" d="M44.4,178.2L32.8,216c-5.1,16.8,4.2,29.1,20.8,29.1h54.1c1.9,0.1,3.4,1.7,3.4,3.6c0,0.4-0.1,0.7-0.2,1
		l-2.9,9.5c-1,2.6-3.3,4.4-6,4.6H17l-10.8,35H116c12.1,0,22.4-5.6,27.7-22.9l11-35.9c5.2-17-4.5-29.1-19.6-29.1H80.7
		c-3,0-4.2-2.2-3.4-4.9l2.9-9.5c0.8-3.3,3.7-5.6,7.1-5.6h78.2l10.6-34.9H72.4C57.5,156,48.2,165.5,44.4,178.2z"/>
	<polygon class="st0" points="601.9,264 634.9,156 591.2,156 547.6,298.9 683.6,298.9 694.2,264 	"/>
	<polygon class="st0" points="520,156 503.2,210.9 451.3,210.9 468.1,156 426.4,156 382.7,298.9 424.4,298.9 441.1,244.3 493,244.3 
		476.3,298.9 519.1,298.9 562.8,156 	"/>
	<polygon class="st0" points="354.4,156 310.7,298.9 354.3,298.9 398,156 	"/>
</g>
</svg>
