<svg width="32" height="32" viewBox="0 0 32 32" fill="none" xmlns="http://www.w3.org/2000/svg"><path d="M30.666 6.222H7.182L6.72 3.754a1.333 1.333 0 0 0-1.31-1.087H.667A.667.667 0 0 0 0 3.333v.445c0 .368.298.666.667.666H5.04l3.885 20.72a3.556 3.556 0 1 0 5.71.614h8.064a3.556 3.556 0 1 0 5.557-.77A1.334 1.334 0 0 0 26.963 24H10.516l-.667-3.555h18.41c.631 0 1.176-.444 1.305-1.062l2.408-11.555a1.333 1.333 0 0 0-1.306-1.606zM13.333 27.556a1.78 1.78 0 0 1-1.777 1.777 1.78 1.78 0 0 1-1.778-1.777c0-.98.797-1.778 1.778-1.778.98 0 1.777.797 1.777 1.778zm12.445 1.777A1.78 1.78 0 0 1 24 27.556c0-.98.797-1.778 1.778-1.778.98 0 1.778.797 1.778 1.778a1.78 1.78 0 0 1-1.778 1.777zm2.12-10.666H9.516L7.516 8H30.12l-2.222 10.667z" fill="#D40029"/></svg>