<?xml version="1.0" encoding="utf-8"?>
<!-- Generator: Adobe Illustrator 24.0.1, SVG Export Plug-In . SVG Version: 6.00 Build 0)  -->
<svg version="1.1" id="Layer_1" xmlns="http://www.w3.org/2000/svg" xmlns:xlink="http://www.w3.org/1999/xlink" x="0px" y="0px"
	 width="216px" height="216px" viewBox="0 0 216 216" style="enable-background:new 0 0 216 216;" xml:space="preserve">
<style type="text/css">
	.st0{display:none;}
	.st1{fill:#E31837;}
	.st2{fill:none;stroke:#FFFFFF;stroke-width:25.3;stroke-miterlimit:10;}
	.st3{fill:#FFFFFF;}
</style>
<g id="Layer_2_1_" class="st0">
</g>
<g>
	<path class="st1" d="M134.76,68.07c0-0.69,0.56-1.19,1.21-1.19c0.65,0,1.21,0.5,1.21,1.19c0,0.69-0.56,1.2-1.21,1.2
		C135.31,69.27,134.76,68.76,134.76,68.07 M208.35,160.61V53.5h-47.27V31.16H54.92v21.92H7.65v107.53H0.13v11.18h215.75v-11.18
		H208.35z"/>
	<path class="st2" d="M145.3,177.38c-3.59,0-6.5-2.91-6.5-6.5s2.91-6.5,6.5-6.5s6.5,2.91,6.5,6.5
		C151.81,174.46,148.9,177.38,145.3,177.38z M72.3,177.38c-3.59,0-6.5-2.91-6.5-6.5s2.91-6.5,6.5-6.5s6.5,2.91,6.5,6.5
		C78.81,174.46,75.9,177.38,72.3,177.38z"/>
	<path class="st3" d="M145.43,177.27c-3.59,0-6.5-2.91-6.5-6.5c0-3.59,2.91-6.5,6.5-6.5c3.59,0,6.5,2.91,6.5,6.5
		C151.93,174.36,149.02,177.27,145.43,177.27 M72.42,177.27c-3.59,0-6.5-2.91-6.5-6.5c0-3.59,2.91-6.5,6.5-6.5s6.5,2.91,6.5,6.5
		C78.93,174.36,76.02,177.27,72.42,177.27"/>
	<path class="st2" d="M145.43,177.27c-3.59,0-6.5-2.91-6.5-6.5c0-3.59,2.91-6.5,6.5-6.5c3.59,0,6.5,2.91,6.5,6.5
		C151.93,174.36,149.02,177.27,145.43,177.27z M72.42,177.27c-3.59,0-6.5-2.91-6.5-6.5c0-3.59,2.91-6.5,6.5-6.5s6.5,2.91,6.5,6.5
		C78.93,174.36,76.02,177.27,72.42,177.27z"/>
	<path class="st3" d="M145.24,179.08c-3.77,0-8.49-4.47-8.49-8.24c0-3.77,4.72-7.66,8.49-7.66c3.77,0,8.09,3.88,8.09,7.66
		C153.33,174.61,149.01,179.08,145.24,179.08 M145.66,159.58c-6.97,0-14.25,4.29-14.21,11.26c0.05,9.45,7.24,13.99,14.21,13.99
		s13.43-5.14,13.38-13.99c-0.04-6.97-3.95-11.26-10.93-11.26 M72.25,178.68c-3.77,0-7.51-4.07-7.51-7.84c0-3.77,3.74-7.66,7.51-7.66
		c3.77,0,7.78,3.88,7.78,7.66c0,3.77-4.8,8.19-8.57,8.19 M72.25,157.2c-9.76,0.35-13.8,6.67-13.76,13.64
		c0.06,9.56,7.79,13.96,13.76,14.01c7.23,0.05,14.48-5.11,13.55-14.01c-0.71-6.72-1.92-12.03-13.24-13.6 M154.92,142.89
		c-4.29-0.06-25.27,0.05-25.27,0.05l0.62-13.68c0,0,17.89-0.28,19.16,0.17c2.98,0.29,6.24,7.55,7.05,10.8
		C156.97,142.21,157.14,142.91,154.92,142.89 M126.19,143.35c-10.12,0.23-28.9,0.82-31.61,0.82s-3.02-1.65-1.77-3.89
		c1.25-2.24,4.15-3.9,6.02-5.56c1.87-1.66,4.76-3.17,9.24-3.99c4.48-0.82,12.09-1.11,19.65-1.29L126.19,143.35z M58.85,156.53
		c-2.13,2.48-5.69,3.33-5.69,2.15c0-2.48,1.13-4.23,3.2-6.5c2.07-2.28,5.08-2.84,5.79-2.72C63.45,149.69,60.97,154.06,58.85,156.53
		 M167.2,155.3c0,0-0.81-6.63-0.81-9.32c0-2.69-2.01-4.34-2.01-4.34s-0.73-7.43-6.92-14.16c1.31-1.47,2.02-1.22,1.67-2.57
		c-0.36-1.35-3.57-2.33-10-2.94c-18.58-0.98-40.44,0.25-46.72,2.98c-5.25,2.71-16.86,10.25-21.32,15.66
		c-10.48,0.74-13.22,2.22-21.38,5.01s-11.11,10.93-11.69,14.99c-0.13,0.89-1.2,1.8-1.2,2.71c0,2.35,1.12,6.03,1.19,8.31
		c0.09,2.62,1.49,4.6,4.76,4.6l6.02,0.12c0-1.39,0-2.81,0-4.24c0-9,4.4-14.61,12.26-14.92c8.06-0.32,13.59,5.8,13.59,14.8
		c0,1.46-0.7,3.26-0.69,5.15h48.51c0-1.67-0.36-3.41-0.36-5.15c0-9,4.8-11.6,13.55-11.6c8.75,0,12.11,2.6,12.11,11.6
		c0,0.51,0,1.07,0,1.66h6.75c2.1,0,3.22-1.72,3.45-3.07c0.24-1.35,0.8-8.62,0.8-10.29C168.76,158.64,167.2,155.3,167.2,155.3"/>
	<path class="st1" d="M145.27,177.36c-3.59,0-6.5-2.91-6.5-6.5c0-3.59,2.91-6.5,6.5-6.5c3.59,0,6.5,2.91,6.5,6.5
		C151.77,174.45,148.86,177.36,145.27,177.36 M145.27,158.84c-6.64,0-12.03,5.39-12.03,12.03c0,6.64,5.39,12.02,12.03,12.02
		s12.02-5.38,12.02-12.02C157.29,164.22,151.91,158.84,145.27,158.84 M72.27,177.36c-3.59,0-6.5-2.91-6.5-6.5
		c0-3.59,2.91-6.5,6.5-6.5s6.5,2.91,6.5,6.5C78.77,174.45,75.86,177.36,72.27,177.36 M72.27,158.84c-6.64,0-12.03,5.39-12.03,12.03
		c0,6.64,5.39,12.02,12.03,12.02c6.64,0,12.02-5.38,12.02-12.02C84.29,164.22,78.91,158.84,72.27,158.84 M163.46,155.54
		c0,0-0.76-6.08-0.76-8.55s-1.9-3.98-1.9-3.98s-0.69-6.81-6.53-12.99c1.23-1.35,1.91-1.13,1.57-2.36c-0.34-1.23-3.37-2.14-9.44-2.7
		c-17.53-0.9-38.16,0.22-44.09,2.74c-4.95,2.49-15.91,10.56-20.12,15.52c-9.89,0.67-12.48,0.88-20.17,3.44
		c-7.7,2.56-10.48,10.02-11.03,13.75c-0.12,0.82-1.13,1.66-1.13,2.49c0,2.15,1.05,5.53,1.13,7.62c0.08,2.4,1.4,4.23,4.49,4.23h1.85
		c0-1.27,0-2.58,0-3.89c0-8.25,6.69-14.95,14.95-14.95c8.25,0,14.94,6.69,14.94,14.95c0,1.34,0,2.99,0.01,4.73h43.1
		c0-1.53,0-3.12,0-4.73c0-8.25,6.69-14.95,14.95-14.95s14.94,6.69,14.94,14.95c0,0.47,0,0.98,0,1.52h1.7c1.98,0,3.03-1.58,3.26-2.82
		c0.22-1.23,0.76-7.91,0.76-9.44C165.93,158.6,163.46,155.54,163.46,155.54"/>
	<path class="st3" d="M93.56,73.24L93.56,73.24c-0.01,0.85-0.34,2.34,0.25,5.08c0,0,1.78,13.18,15.2,13.44
		c3.86-0.27,5.49-1,7.47-1.97c7.46-3.65,8.69-11.82,8.69-11.82h-7.01c-4.06,9.16-11.94,6.08-11.94,6.08l4.43-20.83
		c8.52,0.23,8.84,8.26,8.84,8.26h7.13c0,0,0.5-8.43-7.72-13.43c-1.68-1.02-4.46-1.75-7.17-1.81
		C111.73,56.22,96.56,55.27,93.56,73.24"/>
	<polygon class="st3" points="154.29,58.49 152.9,64.98 140.96,64.98 139.56,71.47 151.53,71.47 150.17,77.96 138.2,77.96 
		136.84,84.45 148.81,84.45 147.42,90.91 123.31,90.91 130.18,58.49 	"/>
	<polygon class="st3" points="78.44,90.97 74.56,70.28 60.76,90.97 	"/>
	<polygon class="st3" points="95.33,90.97 82.15,90.97 77.52,65.82 87.83,50.34 	"/>
	<path class="st3" d="M148.66,89.29c0-0.96,0.78-1.67,1.7-1.67c0.91,0,1.69,0.71,1.69,1.67c0,0.97-0.78,1.68-1.69,1.68
		C149.44,90.96,148.66,90.25,148.66,89.29 M150.36,90.69c0.76,0,1.35-0.59,1.35-1.4c0-0.79-0.6-1.39-1.35-1.39
		c-0.76,0-1.36,0.6-1.36,1.39C149,90.09,149.59,90.69,150.36,90.69 M150,90.25h-0.29v-1.93h0.73c0.46,0,0.68,0.17,0.68,0.55
		c0,0.34-0.22,0.49-0.5,0.53l0.55,0.85h-0.33l-0.51-0.83H150V90.25z M150.35,89.17c0.25,0,0.47-0.02,0.47-0.32
		c0-0.24-0.22-0.28-0.42-0.28h-0.4v0.6L150.35,89.17L150.35,89.17z"/>
	<polygon class="st3" points="213.29,169.2 210.52,169.2 213.29,163.58 	"/>
	<polygon class="st3" points="201.92,169.2 192.47,169.2 195.44,163.19 204.89,163.19 	"/>
	<polygon class="st3" points="183.87,169.2 174.42,169.2 177.39,163.19 186.85,163.19 	"/>
	<polygon class="st3" points="39.47,169.2 30.01,169.2 32.98,163.19 42.44,163.19 	"/>
	<polygon class="st3" points="21.42,169.2 11.96,169.2 14.93,163.19 24.39,163.19 	"/>
	<polygon class="st3" points="3.37,169.2 2.7,169.2 2.7,163.19 6.34,163.19 	"/>
	<path class="st3" d="M151.75,142.94c-4.09-0.05-21.39,0.05-21.39,0.05l0.59-13.03c0,0,14.36-0.27,15.58,0.16
		c2.84,0.28,5.94,7.19,6.71,10.29C153.7,142.29,153.86,142.97,151.75,142.94"/>
	<path class="st3" d="M124.38,143.04c-9.64,0.22-26.52,0.79-29.1,0.79c-2.58,0-2.88-1.57-1.69-3.71c1.19-2.14,3.96-3.72,5.73-5.3
		s4.53-3.02,8.81-3.8c4.27-0.79,10.51-0.72,17.71-0.9L124.38,143.04z"/>
	<path class="st3" d="M60.25,155.94c-2.02,2.36-5.41,3.17-5.41,2.05c0-2.36,1.07-4.03,3.05-6.2s4.84-2.71,5.51-2.59
		C64.63,149.43,62.27,153.58,60.25,155.94"/>
</g>
</svg>
