<?xml version="1.0" encoding="utf-8"?>
<!-- Generator: Adobe Illustrator 24.0.1, SVG Export Plug-In . SVG Version: 6.00 Build 0)  -->
<svg version="1.1" id="Layer_1" xmlns="http://www.w3.org/2000/svg" xmlns:xlink="http://www.w3.org/1999/xlink" x="0px" y="0px"
	 width="216px" height="216px" viewBox="0 0 216 216" style="enable-background:new 0 0 216 216;" xml:space="preserve">
<style type="text/css">
	.st0{display:none;fill:#FFFFFF;}
	.st1{fill:#E21D38;}
	.st2{display:none;}
</style>
<g id="Layer_1_1_">
	<path class="st0" d="M171.7,62.4c0,20.1-7.8,39.1-22.1,53.3l-0.1,0.1l-53.1,53.1l0,0l-53.1-53.1l-0.1-0.1l0,0
		C28.9,101.4,21,82.5,21,62.4c0-20.7,8.4-39.7,22.1-53.3l0,0C56.7-4.6,75.7-13,96.4-13s39.7,8.4,53.3,22.1l0,0
		C163.3,22.7,171.7,41.5,171.7,62.4L171.7,62.4z"/>
	<g>
		<path class="st1" d="M38.4,163.2c0-8.7,7.1-15.7,15.8-15.7S70,154.6,70,163.2c0,8.7-7.1,15.7-15.8,15.7
			C45.5,178.9,38.4,171.8,38.4,163.2 M155.8,72.3l33.2,32.6v4.1h-48.9V72.3H155.8z M178.3,163.2c0,8.7-7.1,15.7-15.8,15.7
			s-15.8-7.1-15.8-15.7c0-8.7,7.1-15.7,15.8-15.7C171.2,147.3,178.3,154.4,178.3,163.2 M1.1,155c0,7.7,7.8,7.7,7.8,7.7h13.5
			c0,0.1,0,0.3,0,0.4c0,17.6,14.4,31.8,32,31.8s32-14.2,32-31.8c0-0.1,0-0.3,0-0.4h44.4c0,0.1,0,0.3,0,0.4c0,17.6,14.4,31.8,32,31.8
			s32-14.2,32-31.8c0-0.4,0-1,0-1.5h11.3c8.9,0,8.9-8.9,8.9-8.9v-2.5c0-8.9-8.9-8.9-8.9-8.9h-0.9v-40c0,0-0.3-2.4-0.7-3.4
			c-0.6-1.2-1.8-2.4-1.8-2.4l-40-38.2c0,0-0.6-0.4-1.6-0.9c-1-0.6-2.4-0.6-2.4-0.6h-17.9V39.1c0-15.5-15.5-15.5-15.5-15.5H17
			C1.5,23.6,1.5,39.1,1.5,39.1V155H1.1z"/>
	</g>
</g>
<g id="Layer_2_1_" class="st2">
</g>
</svg>
