<svg height="512" viewBox="0 0 60 48" width="512" xmlns="http://www.w3.org/2000/svg"><g id="Page-1" fill="none" fill-rule="evenodd"><g id="045---Gift-Envelope" fill="rgb(0,0,0)" fill-rule="nonzero"><path id="Shape" d="m55 0h-50c-2.76005315.00330612-4.99669388 2.23994685-5 5v38c.00330612 2.7600532 2.23994685 4.9966939 5 5h50c2.7600532-.0033061 4.9966939-2.2399468 5-5v-38c-.0033061-2.76005315-2.2399468-4.99669388-5-5zm3 5v38c-.003373.5157963-.1412459 1.0217899-.4 1.468l-13.635-11.751c-.5090459-2.4578783-1.6592955-4.7373321-3.334-6.607.124-.059.248-.106.371-.172 1.7424427-1.0039146 3.2331862-2.3917184 4.359-4.058.6793132-.9991642.8391733-2.2631743.43-3.4-.1461939-.4224697-.3233409-.8335844-.53-1.23l12.492-13.436c.1628876.37418205.2469674.77790127.247 1.186zm-20.26 25.252c-.385223.1536157-.6925747.4555627-.853.838l-.776 1.944c-.703629-1.8743605-1.728641-3.6117033-3.029-5.134.6830112-.1747785 1.2645402-.6218583 1.609-1.237.3770505.1067043.760942.1875587 1.149.242h.01c.8977619.1396549 1.8138265.1084408 2.7-.092 1.2801338 1.2809646 2.2811489 2.8131306 2.94 4.5l-2.624-1.046c-.358416-.1544838-.763596-.1598814-1.126-.015zm-16.565.01-2.654 1.057c.6596877-1.6797938 1.653796-3.2080398 2.922-4.492.5218178.1110035 1.0535215.1689649 1.587.173.7745568-.005001 1.5447557-.1163753 2.289-.331.3458293.6123351.9266306 1.0569659 1.608 1.231-1.2996147 1.5228443-2.3239346 3.2604996-3.027 5.135l-.788-1.977c-.1627664-.368919-.4646743-.6586068-.84-.806-.3527844-.1408924-.7468427-.1373002-1.097.01zm-5.128 2.448-13.647 11.759c-.25875006-.4465758-.39661628-.9528895-.4-1.469v-38c.00003259-.40809873.08411239-.81181795.247-1.186l12.5 13.447c-.2050684.3953918-.3811968.8051328-.527 1.226-.4084899 1.1401496-.2448219 2.4070886.44 3.406 1.1966099 1.7775813 2.8179331 3.2284198 4.717 4.221-1.6664194 1.8705119-2.8144344 4.1444779-3.33 6.596zm27.853-13.578c.206084.5454152.131334 1.1572437-.2 1.637-.9405132 1.3959466-2.1849764 2.5607505-3.64 3.407-1.5389714.8701627-3.3733361 1.0516751-5.053.5v-1.61c2.3163653-1.0836876 4.102048-3.0501716 4.958-5.46.0899116-.3619783.0047578-.7451704-.23-1.035-.5163703-.4431447-1.1978976-.6437438-1.872-.551-.5480224.0847798-.9254706.5951825-.846 1.144.0539254.3558422.2949091.6552579.631.784-.7267004 1.3354795-1.8310942 2.4270033-3.175 3.138-.5572512-.9511992-1.4694341-1.6421705-2.536-1.921 1-2.205 2.978-4.944 6.73-5.161.2085995-.0060515.4146167.0473604.594.154 2.1083521 1.0271087 3.7611511 2.7992627 4.639 4.974zm-14.694 1.868h1.6c1.1584638-.0515264 2.141213.841882 2.2 2v2.5c-.034066.3003243-.298456.5206493-.6.5h-1.86l-.01-.01v.01h-1.06v-.01c-.021 0-.039.009-.059.01h-1.812c-.301544.0206493-.565934-.1996757-.6-.5v-1.328c-.0419595-.5103632-.0275391-1.0237965.043-1.531.2369364-.9909941 1.139729-1.6775013 2.158-1.641zm-3.676.081c-1.342503-.7122136-2.4449003-1.8048705-3.169-3.141.4206145-.1657107.6777397-.5930067.6271735-1.0422501-.0505663-.4492434-.3962459-.8086886-.8431735-.8767499-.6825752-.097434-1.3733785.1111241-1.888.57-.2289242.2983097-.3031048.6873864-.2 1.049.8596051 2.3967063 2.6408917 4.3507936 4.948 5.428v1.108.5c-1.5424318.5188344-3.2280024.4018808-4.684-.325-1.6136429-.8345897-2.9897277-2.0641214-4-3.574-.3367551-.4802424-.4153061-1.0955583-.21-1.645.8821277-2.1818328 2.5427031-3.9585773 4.66-4.986.1860979-.1097724.4016935-.1590414.617-.141 3.715.214 5.69 2.951 6.686 5.155-1.0700246.2759113-1.9857287.9673686-2.544 1.921zm4.258 6.919h.434c.4646396.327927.893053.704381 1.278 1.123l-.266.284c-.3028056.3669862-.7537163.5795219-1.2295.5795219s-.9266944-.2125357-1.2295-.5795219l-.26-.278c.3831888-.4203177.8099129-.7987714 1.273-1.129zm25.212-26c.4822362.00325566.9563529.12444552 1.381.353l-12.265 13.2c-1.0866107-1.3021426-2.4206789-2.3758551-3.925-3.159-.5112514-.2897225-1.0969584-.4212717-1.683-.378-4.878.281-7.334 3.851-8.5 6.563-1.168-2.712-3.619-6.282-8.46-6.56-.5924143-.0523616-1.1868721.0748231-1.706.365-1.5135499.7864566-2.8558458 1.8656639-3.949 3.175l-12.274-13.206c.42464712-.22855448.89876382-.34974434 1.381-.353zm-50 44c-.36706839-.0020243-.73056734-.0722148-1.072-.207l14.046-12.1 3.481-1.393 1.622 4.067c.1513574.3800433.5189257.6295778.928.63h.081c.4389963-.033527.804418-.3502257.9-.78.4826301-1.9324948 1.2564858-3.780307 2.295-5.48l.033.035c.6776173.7779627 1.6588066 1.2245338 2.6905 1.2245338s2.0128827-.4465711 2.6905-1.2245338l.038-.04c1.0400598 1.7012832 1.8155774 3.550724 2.3 5.485.0963459.4289866.4615887.7447188.9.778.0266457.0014951.0533543.0014951.08 0 .4090743-.0004222.7766426-.2499567.928-.63l1.614-4.065 3.469 1.382 14.048 12.111c-.3414327.1347852-.7049316.2049757-1.072.207z"/><path id="Shape" d="m10 6h2c.5522847 0 1-.44771525 1-1s-.4477153-1-1-1h-2c-.55228475 0-1 .44771525-1 1s.44771525 1 1 1z"/><path id="Shape" d="m16 6h34c.5522847 0 1-.44771525 1-1s-.4477153-1-1-1h-34c-.5522847 0-1 .44771525-1 1s.4477153 1 1 1z"/><path id="Shape" d="m47 42h-34c-.5522847 0-1 .4477153-1 1s.4477153 1 1 1h34c.5522847 0 1-.4477153 1-1s-.4477153-1-1-1z"/></g></g></svg>