<svg id="Layer_1" data-name="Layer 1" xmlns="http://www.w3.org/2000/svg" viewBox="0 0 445.43 124.26"><title>logo</title><path d="M141.65,32.94a20.15,20.15,0,0,0-8.47-6.33A38,38,0,0,0,121.39,25H117V36.25h4.64a19.19,19.19,0,0,1,6.52.89,10.91,10.91,0,0,1,4.46,3.21,64.11,64.11,0,0,1,5.8,7.86h-5.28v0h-6.65L61.55,0,13,48.21H7.22V59.9H20.75l.15.21.21-.21h2.54v6.25H16.51q-6.69,0-10.62,3.12a10,10,0,0,0-3.84,8.3q0,6.62,6,10.27a17.47,17.47,0,0,0-6,6.51,19.94,19.94,0,0,0-2,9.2,21.39,21.39,0,0,0,2.68,10.89,17.82,17.82,0,0,0,7.58,7.23A25.19,25.19,0,0,0,22,124.26q8.92,0,14.64-4.65a16.84,16.84,0,0,0,6.51-12.22H29.72A7.2,7.2,0,0,1,27,111.22a8.14,8.14,0,0,1-5,1.52,7.91,7.91,0,0,1-6-2.41,9.19,9.19,0,0,1-2.23-6.51,8.87,8.87,0,0,1,2.32-6.43A7.8,7.8,0,0,1,22,95a7.78,7.78,0,0,1,5.17,1.7,6.82,6.82,0,0,1,2.59,3.83H43.11A18.15,18.15,0,0,0,37,88.46q-5.18-4.54-14.64-4.55a27.53,27.53,0,0,0-3.92.27A4.06,4.06,0,0,1,16,80.34a3.52,3.52,0,0,1,1.51-3.21,7.07,7.07,0,0,1,4-1.07H37V59.9h5.43V48.21H32.88L62.71,18.59l41.34,29.62H94.93V59.9H95V71.5H89.1q-8.84,0-14.46,4.56T69,89.09a16.28,16.28,0,0,0,9.28,15.35,23.24,23.24,0,0,0,10.18,2.14q9.1,0,14.1-5.44t5-14.64V82.75h12.5v8.48l-33,31h15.27l18.47-18.56v10.62h12.68V59.9h4.44v54.36h14V59.9h8.75V48.21h-9.11Q145.77,37.77,141.65,32.94ZM95,87.21A9.13,9.13,0,0,1,93.3,93a6,6,0,0,1-5,2.14,6.35,6.35,0,0,1-4.55-1.7A5.88,5.88,0,0,1,82,89a5.7,5.7,0,0,1,2-4.55,8,8,0,0,1,5.26-1.7H95ZM120.08,71.5h-12.5V59.9h12.5Z" transform="translate(0)" style="fill:#3bb761"/><path d="M208.13,55.53a36.43,36.43,0,0,0-17.32-3.93H167.34v62.66h23.47A36.23,36.23,0,0,0,208,110.33a27.51,27.51,0,0,0,11.51-11.07,32.13,32.13,0,0,0,4.11-16.33,31.88,31.88,0,0,0-4.11-16.34A27.62,27.62,0,0,0,208.13,55.53Zm-4.82,40.79q-4.83,4.73-13.48,4.73H182.6V64.63h7.23q8.65,0,13.48,4.82t4.82,13.48Q208.13,91.59,203.31,96.32Z" transform="translate(0)" style="fill:#2e3047"/><polygon points="232.19 114.26 270.57 114.26 270.57 102.03 247.45 102.03 247.45 88.28 267.89 88.28 267.89 76.5 247.45 76.5 247.45 63.83 270.57 63.83 270.57 51.6 232.19 51.6 232.19 114.26" style="fill:#2e3047"/><path d="M317.88,54.19A28.09,28.09,0,0,0,305.2,51.6H280.48v62.66h15.26V91.77h9.46A27.1,27.1,0,0,0,318.06,89a18.49,18.49,0,0,0,7.67-7.23,20.41,20.41,0,0,0,2.5-10,20.68,20.68,0,0,0-2.59-10.44A17.69,17.69,0,0,0,317.88,54.19Zm-7.32,23.38q-2.15,2.06-6.52,2.06h-8.3V63.92H304q4.38,0,6.52,2a7.65,7.65,0,0,1,2.14,5.8A7.63,7.63,0,0,1,310.56,77.57Z" transform="translate(0)" style="fill:#2e3047"/><polygon points="396.96 51.6 396.96 63.83 413.56 63.83 413.56 114.26 428.82 114.26 428.82 63.83 445.43 63.83 445.43 51.6 396.96 51.6" style="fill:#2e3047"/><rect x="48.43" y="60" width="15" height="55" style="fill:#2e3047"/><path d="M69.76,31.09v6.68h6.67A10.91,10.91,0,0,0,69.76,31.09Z" transform="translate(0)" style="fill:#3bb761"/><path d="M69.76,51.6a10.92,10.92,0,0,0,6.67-6.67H69.76Z" transform="translate(0)" style="fill:#2e3047"/><path d="M62.6,31.09a10.86,10.86,0,0,0-6.67,6.68H62.6Z" transform="translate(0)" style="fill:#2e3047"/><path d="M62.6,51.6V44.93H55.93A10.87,10.87,0,0,0,62.6,51.6Z" transform="translate(0)" style="fill:#3bb761"/><path d="M361.88,49.26a28.18,28.18,0,0,0-28.15,28.15,27.85,27.85,0,0,0,5.62,16.87l20.79,28c.06.07.13.09.19.15a2.09,2.09,0,0,0,3.28-.15c6-8,17-22.91,21.19-28.54h0l0,0a28.16,28.16,0,0,0-22.95-44.45Zm0,43.33a15.19,15.19,0,1,1,15.18-15.18A15.23,15.23,0,0,1,361.88,92.59Z" transform="translate(0)" style="fill:#3bb761"/></svg>