<?xml version="1.0" encoding="utf-8"?>
<!-- Generator: Adobe Illustrator 24.2.3, SVG Export Plug-In . SVG Version: 6.00 Build 0)  -->
<svg version="1.1" id="Layer_1" xmlns="http://www.w3.org/2000/svg" xmlns:xlink="http://www.w3.org/1999/xlink" x="0px" y="0px"
	 width="393.3px" height="167.9px" viewBox="0 0 393.3 167.9" style="enable-background:new 0 0 393.3 167.9;" xml:space="preserve"
	>
<style type="text/css">
	.st0{fill:#E31937;}
	.st1{fill:#FFFFFF;}
</style>
<polygon class="st0" points="221.6,92.6 221.3,99.8 216.2,95.4 209.7,97.6 212,90.9 208.2,85 214.9,85.2 219.1,79.5 220.8,86.2 
	227.3,88.4 "/>
<path class="st1" d="M50.1,35.1L50.1,35.1c0,1.2-0.5,3.7,0.5,7.7c0,0,2.7,20.3,23.2,20.5c5.9-0.5,8.4-1.5,11.4-3
	c11.4-5.7,13.3-18,13.3-18H87.9c-6.2,14.1-18.3,9.4-18.3,9.4l6.7-31.9C89.4,20,89.9,32.4,89.9,32.4h10.9c0,0,0.7-12.8-11.9-20.5
	C86.4,10.4,82,9.2,78,9.2C78.1,8.9,54.8,7.7,50.1,35.1"/>
<polygon class="st1" points="143.3,12.4 141.1,22.5 122.8,22.5 120.6,32.4 139.1,32.4 136.9,42.2 118.6,42.2 116.6,52.1 134.9,52.1 
	132.7,62 95.8,62 106.2,12.4 "/>
<polygon class="st1" points="0,62.3 27.2,62.3 21,30.6 "/>
<polygon class="st1" points="41.5,0 25.7,23.7 32.9,62.3 52.9,62.3 "/>
<path class="st1" d="M16.6,96.6h7.9c2.5,0,4.2-0.7,5.4-2c1.2-1.2,1.7-3,1.7-5.2s-0.5-4-1.7-5.2s-3-2-5.4-2h-7.9V96.6z M23.5,106.2
	h-6.9v18.5H4V72.6h20.5c6.2,0,11.1,1.5,14.6,4.2s5.2,6.7,5.2,11.6c0,3.7-0.7,6.7-2.2,9.1c-1.5,2.5-3.7,4.4-6.9,5.9l10.9,21v0.5H32.4
	L23.5,106.2z"/>
<polygon class="st1" points="93.1,102.5 73.4,102.5 73.4,115.1 96.8,115.1 96.8,124.8 60.8,124.8 60.8,72.6 96.8,72.6 96.8,82.3 
	73.4,82.3 73.4,93.4 93.1,93.4 "/>
<polygon class="st1" points="152.4,105.2 158.3,72.6 170.7,72.6 159.8,124.8 146.7,124.8 139.6,95.1 132.9,124.8 119.8,124.8 
	108.7,72.6 121,72.6 127.2,105.2 134.4,72.6 145,72.6 "/>
<path class="st1" d="M193.9,105.2H205l-5.7-18L193.9,105.2z M208.2,115.1H191l-3,9.9h-13.3L194,72.6h11.9l19,52.1h-13.6L208.2,115.1
	z"/>
<path class="st1" d="M251,96.6h7.9c2.5,0,4.2-0.7,5.4-2c1.2-1.2,1.7-3,1.7-5.2s-0.5-4-1.7-5.2s-3-2-5.4-2H251V96.6z M257.9,106.2
	H251v18.5h-12.6V72.6h20.5c6.2,0,11.1,1.5,14.6,4.2s5.2,6.7,5.2,11.6c0,3.7-0.7,6.7-2.2,9.1c-1.5,2.5-3.7,4.4-6.9,5.9l10.9,21v0.5
	h-13.6L257.9,106.2z"/>
<path class="st1" d="M306.8,82.3v32.9h4.4c3.7,0,6.4-1.2,8.4-4c2-2.5,3-6.4,3-11.4v-2.2c0-4.9-1-8.9-3-11.4s-4.7-4-8.4-4
	C311.3,82.3,306.8,82.3,306.8,82.3z M294.2,124.8V72.6H311c4.7,0,8.9,1,12.4,3.2c3.7,2,6.7,4.9,8.6,8.9c2,3.7,3.2,8.2,3.2,12.8v2.5
	c0,4.7-1,9.1-3,12.8c-2,3.7-4.9,6.7-8.6,8.9c-3.7,2.2-7.7,3.2-12.4,3.2L294.2,124.8L294.2,124.8z"/>
<path class="st1" d="M374,110.9c0-1.7-0.7-3.2-2-4.2c-1.2-1-3.7-2-6.9-3.2c-3.2-1-5.9-2.2-8.2-3.2c-6.7-3.2-10.1-7.9-10.1-13.8
	c0-3,0.7-5.4,2.5-7.7c1.7-2.2,4-4,7.2-5.2s6.7-1.7,10.4-1.7c3.7,0,7.2,0.7,10.1,2s5.2,3.2,6.9,5.7c1.7,2.5,2.5,5.2,2.5,8.4h-12.6
	c0-2.2-0.7-3.7-2-4.9s-3-1.7-5.2-1.7s-4,0.5-5.4,1.5c-1.2,1-2,2.2-2,3.7c0,1.2,0.7,2.5,2.2,3.7c1.5,1,4,2.2,7.7,3.5
	c3.7,1.2,6.7,2.5,8.9,3.7c5.7,3.2,8.4,7.7,8.4,13.3c0,4.7-1.7,8.2-5.2,10.9c-3.5,2.7-8.2,4-14.1,4c-4.2,0-8.2-0.7-11.6-2.2
	c-3.5-1.5-5.9-3.7-7.7-6.2c-1.7-2.7-2.7-5.7-2.7-9.1h12.6c0,2.7,0.7,4.9,2.2,6.2c1.5,1.2,3.7,2,7.2,2c2,0,3.7-0.5,4.9-1.2
	C373.5,113.9,374,112.4,374,110.9"/>
<polygon class="st0" points="219.9,65.7 216.2,75.6 225.8,72.6 233.4,79 233.7,68.7 242.1,62.7 233,59.5 230.5,49.4 224.3,57.6 
	214.4,57.1 "/>
<polygon class="st0" points="209.7,66.2 209.7,70.7 206.3,67.9 202.3,69.4 203.8,65.2 201.6,61.5 205.5,61.8 208.2,58.1 209.2,62.3 
	213.2,63.7 "/>
<path class="st1" d="M386.4,75.1c0-0.5,0.2-1.2,0.5-1.7c0.2-0.5,0.7-1,1.2-1.2s1-0.5,1.7-0.5c0.5,0,1.2,0.2,1.7,0.5s1,0.7,1.2,1.2
	s0.5,1,0.5,1.7s-0.2,1.2-0.5,1.7c-0.2,0.5-0.7,1-1.2,1.2s-1,0.5-1.7,0.5c-0.5,0-1.2-0.2-1.7-0.5c-0.5-0.2-1-0.7-1.2-1.2
	C386.4,76.3,386.4,75.8,386.4,75.1z M392.3,75.1c0-0.5,0-1-0.2-1.5s-0.5-0.7-1-1s-1-0.5-1.5-0.5s-1,0.2-1.2,0.5
	c-0.5,0.2-0.7,0.5-1,1c-0.2,0.5-0.2,1-0.2,1.5s0,1,0.2,1.5s0.5,0.7,1,1s1,0.5,1.2,0.5c0.5,0,1-0.2,1.2-0.5s0.7-0.5,1-1
	C392,76.1,392.3,75.6,392.3,75.1z M388.8,75.6v1.5h-0.7v-4h1.2c0.5,0,0.7,0,1,0.2c0.2,0.2,0.5,0.5,0.5,1c0,0.2-0.2,0.7-0.5,0.7
	c0.2,0,0.2,0.2,0.5,0.5c0,0.2,0,0.5,0,0.7s0,0.5,0,0.5v0.2l0,0h-0.5c0,0,0-0.5,0-1c0-0.2,0-0.5-0.2-0.5c0,0-0.2-0.2-0.5-0.2h-0.7
	L388.8,75.6L388.8,75.6z M388.8,74.9h0.7c0.2,0,0.5,0,0.5-0.2c0.2,0,0.2-0.2,0.2-0.5c0-0.2,0-0.2-0.2-0.5c0,0-0.2-0.2-0.5-0.2h-0.7
	V74.9z"/>
<g>
	<path class="st1" d="M175.9,145.2h-0.1l-8.1,22.3h-4.1l-8-22.2h-0.1l0.6,13.2v4.7l3.2,0.6v3.6h-12.5v-3.6l3.2-0.6v-21.6l-3.2-0.6
		v-3.6h3.2h7.9l7.7,22.2h0.1l7.7-22.2h11.1v3.6l-3.2,0.6v21.6l3.2,0.6v3.6H172v-3.6l3.2-0.6v-4.7L175.9,145.2z"/>
	<path class="st1" d="M210.4,154.2h-10.2v8.6h9.7l0.3-3.6h4.6v8.2H191v-3.6l3.2-0.6v-21.6L191,141v-3.6h3.2h20.6v8.2h-4.6l-0.3-3.6
		h-9.6v7.6h10.2L210.4,154.2L210.4,154.2z"/>
	<path class="st1" d="M251.3,145.2h-0.1l-8.1,22.3H239l-8-22.2h-0.1l0.6,13.2v4.7l3.2,0.6v3.6h-12.5v-3.6l3.2-0.6v-21.6l-3.2-0.6
		v-3.6h3.2h7.9l7.7,22.2h0.1l7.7-22.2H260v3.6l-3.2,0.6v21.6l3.2,0.6v3.6h-12.5v-3.6l3.2-0.6v-4.7L251.3,145.2z"/>
	<path class="st1" d="M279.8,137.4c3.5,0,6.3,0.7,8.3,2.1c2,1.4,3,3.4,3,6.2c0,1.4-0.4,2.6-1.1,3.7c-0.7,1.1-1.8,1.9-3.2,2.5
		c1.8,0.4,3.2,1.2,4.1,2.5s1.4,2.7,1.4,4.4c0,2.9-1,5.1-2.9,6.5c-1.9,1.5-4.6,2.2-8.1,2.2h-14.8v-3.6l3.2-0.6v-21.6l-3.2-0.6v-3.6
		h3.2L279.8,137.4L279.8,137.4z M275.6,150h4.3c1.6,0,2.9-0.3,3.7-1c0.9-0.7,1.3-1.6,1.3-2.9c0-1.4-0.4-2.4-1.3-3.1
		c-0.9-0.7-2.2-1-3.9-1h-4.1V150z M275.6,154.2v8.7h5.6c1.6,0,2.8-0.3,3.7-1c0.8-0.7,1.3-1.7,1.3-3.1c0-1.5-0.4-2.6-1.1-3.4
		c-0.7-0.8-1.8-1.2-3.4-1.2H275.6z"/>
	<path class="st1" d="M318,154.2h-10.2v8.6h9.7l0.3-3.6h4.6v8.2h-23.8v-3.6l3.2-0.6v-21.6l-3.2-0.6v-3.6h3.2h20.6v8.2h-4.6l-0.3-3.6
		h-9.6v7.6H318V154.2z"/>
	<path class="st1" d="M343.4,137.4c3.4,0,6.1,0.8,8,2.3c1.9,1.6,2.9,3.7,2.9,6.5c0,1.5-0.4,2.8-1.2,3.9c-0.8,1.1-2,2-3.6,2.7
		c1.8,0.5,3.1,1.4,3.8,2.6c0.8,1.2,1.2,2.7,1.2,4.5v1.5c0,0.7,0.1,1.2,0.4,1.5c0.3,0.4,0.7,0.6,1.3,0.7l0.7,0.1v3.6h-3.1
		c-2,0-3.4-0.5-4.2-1.6c-0.8-1.1-1.2-2.4-1.2-4.1v-1.7c0-1.5-0.4-2.6-1.2-3.4c-0.8-0.8-1.9-1.3-3.3-1.3H339v7.9l3.2,0.6v3.6h-12.5
		v-3.6l3.2-0.6v-21.6l-3.2-0.6v-3.6h3.2h10.5V137.4z M339.1,150.6h4.2c1.7,0,2.9-0.4,3.8-1.1c0.8-0.7,1.3-1.8,1.3-3.1
		s-0.4-2.4-1.3-3.2c-0.8-0.8-2.1-1.2-3.7-1.2h-4.3V150.6z"/>
	<path class="st1" d="M386.1,147h-4.5l-0.8-4.1c-0.5-0.3-1.3-0.6-2.3-0.9c-1-0.2-2.1-0.4-3.2-0.4c-1.7,0-2.9,0.3-3.8,1
		s-1.4,1.6-1.4,2.7c0,1,0.5,1.9,1.4,2.5c0.9,0.7,2.6,1.3,4.9,2.1c3.3,0.9,5.8,2.1,7.6,3.7c1.7,1.5,2.6,3.5,2.6,6
		c0,2.6-1,4.6-3.1,6.1c-2,1.5-4.7,2.2-8.1,2.2c-2.4,0-4.5-0.4-6.5-1.1c-1.9-0.8-3.5-1.8-4.8-3.1v-6.3h4.7l0.6,4.3
		c0.6,0.5,1.4,0.9,2.5,1.2c1,0.3,2.2,0.5,3.5,0.5c1.7,0,2.9-0.3,3.8-1s1.3-1.6,1.3-2.7c0-1.2-0.4-2.1-1.2-2.8
		c-0.8-0.7-2.3-1.4-4.3-2c-3.6-1-6.3-2.3-8.1-3.7c-1.8-1.4-2.8-3.4-2.8-5.8c0-2.4,1-4.4,3.1-6c2.1-1.5,4.7-2.3,7.8-2.4
		c2.3,0,4.4,0.3,6.3,1.1c1.9,0.7,3.5,1.6,4.8,2.8V147z"/>
</g>
</svg>
