<?xml version="1.0" encoding="utf-8"?>
<!-- Generator: Adobe Illustrator 24.2.3, SVG Export Plug-In . SVG Version: 6.00 Build 0)  -->
<svg version="1.1" id="Layer_1" xmlns="http://www.w3.org/2000/svg" xmlns:xlink="http://www.w3.org/1999/xlink" x="0px" y="0px"
	 width="114.4px" height="54.7px" viewBox="0 0 114.4 54.7" style="enable-background:new 0 0 114.4 54.7;" xml:space="preserve">
<style type="text/css">
	.st0{fill:#FFFFFF;}
	.st1{fill:#DE3642;}
	.st2{clip-path:url(#SVGID_2_);}
	.st3{fill:#E21936;}
</style>
<g>
	<path class="st0" d="M2.9,25.3v4H0V17.5h4.7c0.9,0,1.7,0.2,2.4,0.5s1.2,0.8,1.6,1.4s0.6,1.3,0.6,2.1c0,1.2-0.4,2.1-1.2,2.8
		c-0.8,0.7-2,1-3.4,1H2.9z M2.9,23.1h1.9c0.6,0,1-0.1,1.3-0.4s0.4-0.7,0.4-1.2c0-0.6-0.1-1-0.4-1.3s-0.7-0.5-1.2-0.5h-2V23.1z"/>
	<path class="st0" d="M15.2,25.2h-1.5v4.2h-2.9V17.5h4.7c1.4,0,2.5,0.3,3.3,0.9S20,19.9,20,21c0,0.8-0.2,1.5-0.5,2s-0.9,1-1.6,1.3
		l2.5,4.8v0.1h-3.1L15.2,25.2z M13.7,23h1.8c0.5,0,0.9-0.1,1.2-0.4c0.3-0.3,0.4-0.7,0.4-1.2s-0.1-0.9-0.4-1.2
		c-0.3-0.3-0.7-0.4-1.2-0.4h-1.8C13.7,19.8,13.7,23,13.7,23z"/>
	<path class="st0" d="M31.7,23.7c0,1.2-0.2,2.2-0.6,3.1s-1,1.6-1.8,2.1s-1.7,0.7-2.7,0.7s-1.9-0.2-2.7-0.7c-0.8-0.5-1.4-1.1-1.8-2
		s-0.7-1.8-0.7-3v-0.7c0-1.2,0.2-2.2,0.6-3.1s1-1.6,1.8-2.1s1.7-0.7,2.7-0.7s1.9,0.2,2.7,0.7c0.8,0.5,1.4,1.2,1.8,2
		c0.4,0.9,0.7,1.9,0.7,3V23.7z M28.8,23.2c0-1.2-0.2-2.1-0.6-2.7s-1-0.9-1.7-0.9c-1.4,0-2.2,1.1-2.3,3.2v0.9c0,1.2,0.2,2.1,0.6,2.7
		s1,0.9,1.7,0.9s1.3-0.3,1.7-0.9c0.4-0.6,0.6-1.5,0.6-2.6C28.8,23.8,28.8,23.2,28.8,23.2z"/>
	<path class="st0" d="M37.9,17.5h2.8v8.1c0,0.8-0.2,1.4-0.5,2s-0.8,1-1.5,1.4c-0.6,0.3-1.3,0.5-2.1,0.5c-1.3,0-2.3-0.3-3-1
		s-1.1-1.6-1.1-2.8h2.9c0,0.5,0.1,0.9,0.3,1.2c0.2,0.2,0.5,0.4,0.9,0.4s0.7-0.1,0.9-0.4s0.3-0.7,0.3-1.2L37.9,17.5L37.9,17.5z"/>
	<path class="st0" d="M49.9,24.3h-4.5v2.8h5.3v2.2h-8.1V17.5h8.2v2.2h-5.3v2.5H50L49.9,24.3L49.9,24.3z"/>
	<path class="st0" d="M61.4,25.3c0,0.8-0.3,1.6-0.7,2.2s-1,1.1-1.7,1.5c-0.7,0.3-1.6,0.5-2.5,0.5c-1.6,0-2.8-0.5-3.7-1.5
		s-1.3-2.4-1.3-4.3v-0.6c0-1.2,0.2-2.2,0.6-3c0.4-0.9,1-1.5,1.7-2c0.8-0.5,1.6-0.7,2.6-0.7c1.4,0,2.6,0.4,3.5,1.1s1.4,1.8,1.5,3.1
		h-2.8c0-0.7-0.2-1.2-0.5-1.6s-0.9-0.5-1.6-0.5c-0.7,0-1.2,0.3-1.6,0.8c-0.3,0.5-0.5,1.4-0.5,2.5v0.8c0,1.3,0.2,2.2,0.5,2.7
		s0.9,0.8,1.6,0.8c0.7,0,1.2-0.2,1.5-0.5s0.5-0.8,0.6-1.5h2.8V25.3z"/>
	<path class="st0" d="M71.8,19.7h-3.6v9.6h-2.9v-9.6h-3.5v-2.2h9.9L71.8,19.7L71.8,19.7z"/>
</g>
<g>
	<path class="st0" d="M48,10.1h-3.9l-0.7,2.2h-3l4.3-11.8h2.7l4.4,11.8h-3.1L48,10.1z M44.8,7.9h2.5L46,3.8L44.8,7.9z"/>
	<path class="st0" d="M62,8.3c0,0.8-0.3,1.6-0.7,2.2c-0.4,0.6-1,1.1-1.7,1.5c-0.7,0.3-1.6,0.5-2.5,0.5c-1.6,0-2.8-0.5-3.7-1.5
		s-1.3-2.4-1.3-4.3V6.1c0-1.2,0.2-2.2,0.6-3c0.4-0.9,1-1.5,1.7-2C55.2,0.6,56,0.4,57,0.4c1.4,0,2.6,0.4,3.5,1.1
		c0.9,0.8,1.4,1.8,1.5,3.1h-2.8c0-0.7-0.2-1.2-0.5-1.6c-0.3-0.3-0.9-0.5-1.6-0.5c-0.7,0-1.2,0.3-1.6,0.8C55.2,3.8,55,4.7,55,5.8v0.8
		c0,1.3,0.2,2.2,0.5,2.7s0.9,0.8,1.6,0.8c0.7,0,1.2-0.2,1.5-0.5C59,9.4,59.2,9,59.2,8.3H62z"/>
	<path class="st0" d="M70.7,7.3h-4.5v2.8h5.3v2.2h-8.1V0.5h8.2v2.2h-5.3v2.5h4.5L70.7,7.3L70.7,7.3z"/>
</g>
<g>
	<path class="st0" d="M24.2,42.4v4h-2.9V34.6H26c0.9,0,1.7,0.2,2.4,0.5c0.7,0.3,1.2,0.8,1.6,1.4c0.4,0.6,0.6,1.3,0.6,2.1
		c0,1.2-0.4,2.1-1.2,2.8c-0.8,0.7-2,1-3.4,1C26,42.4,24.2,42.4,24.2,42.4z M24.2,40.2H26c0.6,0,1-0.1,1.3-0.4
		c0.3-0.3,0.4-0.7,0.4-1.2c0-0.6-0.1-1-0.4-1.3s-0.7-0.5-1.2-0.5h-1.9C24.2,36.8,24.2,40.2,24.2,40.2z"/>
	<path class="st0" d="M35,44.2h5v2.2h-7.8V34.6H35V44.2z"/>
	<path class="st0" d="M48,44.2h-3.9l-0.7,2.2h-3l4.3-11.8h2.7l4.4,11.8h-3.1L48,44.2z M44.8,42h2.5L46,37.9L44.8,42z"/>
	<path class="st0" d="M62,42.4c0,0.8-0.3,1.6-0.7,2.2c-0.4,0.6-1,1.1-1.7,1.5c-0.7,0.3-1.6,0.5-2.5,0.5c-1.6,0-2.8-0.5-3.7-1.5
		s-1.3-2.4-1.3-4.3v-0.6c0-1.2,0.2-2.2,0.6-3c0.4-0.9,1-1.5,1.7-2c0.8-0.5,1.6-0.7,2.6-0.7c1.4,0,2.6,0.4,3.5,1.1
		c0.9,0.8,1.4,1.8,1.5,3.1h-2.8c0-0.7-0.2-1.2-0.5-1.6c-0.3-0.3-0.9-0.5-1.6-0.5c-0.7,0-1.2,0.3-1.6,0.8C55.2,38,55.1,38.8,55,40
		v0.8c0,1.3,0.2,2.2,0.5,2.7s0.9,0.8,1.6,0.8c0.7,0,1.2-0.2,1.5-0.5s0.5-0.8,0.6-1.5H62V42.4z"/>
	<path class="st0" d="M70.7,41.4h-4.5v2.8h5.3v2.2h-8.1V34.6h8.2v2.2h-5.3v2.5h4.5L70.7,41.4L70.7,41.4z"/>
</g>
<g>
	<g>
		<path class="st1" d="M77.6,0.4L114,22.6c0.5,0.3,0.5,1.1,0,1.4L77.6,46.3c-0.5,0.3-1.2-0.1-1.2-0.7V1.1C76.3,0.4,77,0,77.6,0.4z"
			/>
	</g>
	<g>
		<g>
			<defs>
				<path id="SVGID_1_" d="M78.5,0.8L112.6,0c0.8,0.5,1.5,24.1,0.6,24.6l-35,21.1c-0.9,0.5-2-0.1-2-1.1l0.3-42.7
					C76.5,0.8,77.6,0.2,78.5,0.8z"/>
			</defs>
			<clipPath id="SVGID_2_">
				<use xlink:href="#SVGID_1_"  style="overflow:visible;"/>
			</clipPath>
			<g class="st2">
				<polygon class="st0" points="98.1,1.8 100.9,14 112.6,18.6 101.8,25.1 101,37.6 91.5,29.4 79.4,32.5 84.3,21 77.6,10.4 
					90.1,11.5 				"/>
			</g>
		</g>
	</g>
	<g>
		<polygon points="83.2,13.6 85.1,16.6 88.6,16.7 86.4,19.4 87.4,22.8 84.1,21.6 81.2,23.6 81.4,20 78.6,17.9 82,16.9 		"/>
	</g>
	<g>
		<polygon class="st1" points="107.2,1.5 108.6,3.9 111.4,4.1 109.5,6.1 110.2,8.8 107.6,7.7 105.3,9.2 105.6,6.4 103.5,4.6 
			106.2,4 		"/>
	</g>
</g>
<g>
	<g>
		<path class="st0" d="M56.3,53.3h-1.1L55,54.1h1.3l-0.1,0.5h-1.9l0.5-3h1.9l-0.1,0.5h-1.3l-0.1,0.7h1.1L56.3,53.3z"/>
		<path class="st0" d="M57.6,53l0.5-0.7h0.6L58,53.5l0.4,1.1h-0.6l-0.3-0.7L57,54.6h-0.7l0.8-1.2l-0.4-1.1h0.6L57.6,53z"/>
		<path class="st0" d="M59.6,54.1c0.1,0,0.2,0,0.3-0.1s0.1-0.1,0.1-0.2h0.5c0,0.2-0.1,0.3-0.1,0.4c-0.1,0.1-0.2,0.2-0.4,0.3
			c-0.1,0.1-0.3,0.1-0.5,0.1c-0.3,0-0.5-0.1-0.6-0.3c-0.2-0.2-0.2-0.4-0.2-0.7v-0.1l0,0c0-0.4,0.2-0.6,0.4-0.9
			c0.2-0.2,0.5-0.3,0.8-0.3c0.2,0,0.4,0.1,0.6,0.2c0.1,0.2,0.2,0.4,0.2,0.6h-0.5c0-0.1,0-0.2-0.1-0.3s-0.1-0.1-0.2-0.1
			c-0.3,0-0.4,0.2-0.5,0.6c0,0.1,0,0.3,0,0.4C59.3,54,59.4,54.1,59.6,54.1z"/>
		<path class="st0" d="M61.4,54.6h-0.6l0.5-3.1h0.6L61.4,54.6z"/>
		<path class="st0" d="M63.2,54.3c-0.2,0.2-0.4,0.3-0.6,0.3c-0.2,0-0.4-0.1-0.5-0.2C62,54.2,62,54,62,53.8l0.2-1.4h0.6l-0.2,1.4v0.1
			c0,0.1,0.1,0.2,0.2,0.2c0.2,0,0.3-0.1,0.4-0.2l0.3-1.6h0.6l-0.4,2.2h-0.5L63.2,54.3z"/>
		<path class="st0" d="M65.4,53.9c0-0.1-0.1-0.2-0.2-0.2H65c-0.4-0.1-0.7-0.3-0.6-0.6c0-0.2,0.1-0.4,0.3-0.5
			c0.2-0.1,0.4-0.2,0.6-0.2s0.5,0.1,0.6,0.2c0.2,0.1,0.2,0.3,0.2,0.5h-0.6c0-0.2-0.1-0.3-0.3-0.3c-0.1,0-0.2,0-0.2,0.1
			c-0.1,0-0.1,0.1-0.1,0.2c0,0.1,0.1,0.2,0.2,0.2h0.1c0.2,0,0.3,0.1,0.4,0.2c0.1,0.1,0.2,0.1,0.2,0.2c0.1,0.1,0.1,0.2,0.1,0.3
			s0,0.3-0.1,0.4c-0.1,0.1-0.2,0.2-0.4,0.2c-0.2,0.1-0.3,0.1-0.5,0.1s-0.4-0.1-0.6-0.2c-0.2-0.1-0.2-0.3-0.2-0.5h0.5
			c0,0.2,0.1,0.3,0.3,0.3c0.1,0,0.2,0,0.3-0.1C65.4,54.1,65.4,54,65.4,53.9z"/>
		<path class="st0" d="M66.9,54.6h-0.6l0.4-2.2h0.6L66.9,54.6z M66.7,51.8c0-0.1,0-0.2,0.1-0.2c0.1-0.1,0.1-0.1,0.2-0.1
			s0.2,0,0.2,0.1c0.1,0.1,0.1,0.1,0.1,0.2c0,0.1,0,0.2-0.1,0.2c-0.1,0.1-0.1,0.1-0.2,0.1s-0.2,0-0.2-0.1
			C66.8,52,66.7,51.9,66.7,51.8z"/>
		<path class="st0" d="M68.3,53.8l0.6-1.5h0.6l-1.1,2.2h-0.6l-0.4-2.2H68L68.3,53.8z"/>
		<path class="st0" d="M70.4,54.6c-0.2,0-0.4,0-0.5-0.1s-0.3-0.2-0.3-0.4c-0.1-0.2-0.1-0.3-0.1-0.5v-0.1c0-0.2,0.1-0.4,0.2-0.6
			c0.1-0.2,0.2-0.3,0.4-0.4c0.2-0.1,0.3-0.1,0.5-0.1c0.3,0,0.5,0.1,0.6,0.3s0.2,0.5,0.2,0.8v0.3H70c0,0.1,0,0.3,0.1,0.3
			c0.1,0.1,0.2,0.1,0.3,0.1c0.2,0,0.4-0.1,0.6-0.2l0.3,0.3c-0.1,0.1-0.2,0.2-0.4,0.3C70.8,54.6,70.6,54.6,70.4,54.6z M70.6,52.8
			c-0.1,0-0.2,0-0.3,0.1s-0.2,0.2-0.2,0.4h0.8v-0.1c0-0.1,0-0.1,0-0.2c0-0.1,0-0.1-0.1-0.2C70.8,52.8,70.7,52.8,70.6,52.8z"/>
	</g>
</g>
<polygon class="st3" points="43.6,52.7 43.6,53.2 43.3,52.9 42.9,53 43.1,52.6 42.8,52.3 43.2,52.3 43.5,52 43.6,52.4 43.9,52.5 "/>
<g>
	<path class="st0" d="M24.3,53L24.3,53c0,0.1,0,0.2,0,0.5c0,0,0.2,1.2,1.4,1.2c0.4,0,0.5-0.1,0.7-0.2c0.7-0.3,0.8-1.1,0.8-1.1h-0.6
		c-0.4,0.8-1.1,0.6-1.1,0.6l0.4-1.9c0.8,0,0.8,0.8,0.8,0.8h0.7c0,0,0-0.8-0.7-1.2c-0.2-0.1-0.4-0.2-0.7-0.2
		C26,51.4,24.6,51.3,24.3,53"/>
	<polygon class="st0" points="29.9,51.6 29.7,52.2 28.6,52.2 28.5,52.8 29.6,52.8 29.5,53.4 28.4,53.4 28.3,54 29.4,54 29.2,54.6 
		27,54.6 27.6,51.6 	"/>
	<polygon class="st0" points="21.3,54.6 22.9,54.6 22.6,52.7 	"/>
	<polygon class="st0" points="23.8,50.8 22.8,52.3 23.3,54.6 24.5,54.6 	"/>
</g>
<path class="st0" d="M31.9,53h0.5c0.1,0,0.2,0,0.3-0.1c0.1-0.1,0.1-0.2,0.1-0.3c0-0.1,0-0.2-0.1-0.3c-0.1-0.1-0.2-0.1-0.3-0.1h-0.5
	V53z M32.3,53.5h-0.4v1.1h-0.7v-3h1.2c0.4,0,0.6,0.1,0.8,0.2c0.2,0.2,0.3,0.4,0.3,0.7c0,0.2,0,0.4-0.1,0.5c-0.1,0.1-0.2,0.3-0.4,0.3
	l0.6,1.2v0h-0.8L32.3,53.5z"/>
<polygon class="st0" points="36.3,53.3 35.1,53.3 35.1,54 36.5,54 36.5,54.6 34.4,54.6 34.4,51.6 36.5,51.6 36.5,52.1 35.1,52.1 
	35.1,52.8 36.3,52.8 "/>
<polygon class="st0" points="39.6,53.5 40,51.6 40.7,51.6 40.1,54.6 39.3,54.6 38.9,52.9 38.5,54.6 37.8,54.6 37.1,51.6 37.9,51.6 
	38.2,53.5 38.6,51.6 39.2,51.6 "/>
<path class="st0" d="M42,53.5h0.6l-0.3-1.1L42,53.5z M42.8,54h-1l-0.2,0.6h-0.8l1.1-3h0.7l1.1,3H43L42.8,54z"/>
<path class="st0" d="M45.3,53h0.5c0.1,0,0.2,0,0.3-0.1c0.1-0.1,0.1-0.2,0.1-0.3c0-0.1,0-0.2-0.1-0.3c-0.1-0.1-0.2-0.1-0.3-0.1h-0.5
	V53z M45.7,53.5h-0.4v1.1h-0.7v-3h1.2c0.4,0,0.6,0.1,0.8,0.2c0.2,0.2,0.3,0.4,0.3,0.7c0,0.2,0,0.4-0.1,0.5c-0.1,0.1-0.2,0.3-0.4,0.3
	l0.6,1.2v0h-0.8L45.7,53.5z"/>
<path class="st0" d="M48.5,52.1V54h0.3c0.2,0,0.4-0.1,0.5-0.2c0.1-0.1,0.2-0.4,0.2-0.7V53c0-0.3-0.1-0.5-0.2-0.7
	c-0.1-0.1-0.3-0.2-0.5-0.2H48.5z M47.8,54.6v-3h1c0.3,0,0.5,0.1,0.7,0.2c0.2,0.1,0.4,0.3,0.5,0.5c0.1,0.2,0.2,0.5,0.2,0.7v0.1
	c0,0.3-0.1,0.5-0.2,0.7c-0.1,0.2-0.3,0.4-0.5,0.5c-0.2,0.1-0.4,0.2-0.7,0.2H47.8z"/>
<path class="st0" d="M52.3,53.8c0-0.1,0-0.2-0.1-0.3c-0.1-0.1-0.2-0.1-0.4-0.2c-0.2-0.1-0.3-0.1-0.5-0.2c-0.4-0.2-0.6-0.5-0.6-0.8
	c0-0.2,0-0.3,0.1-0.4c0.1-0.1,0.2-0.2,0.4-0.3c0.2-0.1,0.4-0.1,0.6-0.1c0.2,0,0.4,0,0.6,0.1c0.2,0.1,0.3,0.2,0.4,0.3
	c0.1,0.1,0.1,0.3,0.1,0.5h-0.7c0-0.1,0-0.2-0.1-0.3c-0.1-0.1-0.2-0.1-0.3-0.1c-0.1,0-0.2,0-0.3,0.1c-0.1,0.1-0.1,0.1-0.1,0.2
	c0,0.1,0,0.1,0.1,0.2c0.1,0.1,0.2,0.1,0.4,0.2c0.2,0.1,0.4,0.1,0.5,0.2c0.3,0.2,0.5,0.5,0.5,0.8c0,0.3-0.1,0.5-0.3,0.6
	c-0.2,0.2-0.5,0.2-0.8,0.2c-0.2,0-0.5,0-0.7-0.1c-0.2-0.1-0.3-0.2-0.4-0.4c-0.1-0.2-0.1-0.3-0.1-0.5h0.7c0,0.2,0,0.3,0.1,0.4
	c0.1,0.1,0.2,0.1,0.4,0.1c0.1,0,0.2,0,0.3-0.1C52.3,54,52.3,53.9,52.3,53.8"/>
<polygon class="st3" points="43.5,51.2 43.3,51.7 43.9,51.6 44.3,51.9 44.3,51.3 44.8,51 44.3,50.8 44.1,50.2 43.8,50.7 43.2,50.7 
	"/>
<polygon class="st3" points="42.9,51.2 42.9,51.5 42.7,51.3 42.5,51.4 42.6,51.1 42.5,50.9 42.7,50.9 42.8,50.7 42.9,51 43.1,51.1 
	"/>
<path class="st0" d="M53,51.7C53,51.7,53.1,51.7,53,51.7c0-0.1,0.1-0.2,0.1-0.2c0,0,0.1,0,0.1,0c0,0,0.1,0,0.1,0c0,0,0.1,0,0.1,0.1
	c0,0,0,0.1,0,0.1c0,0,0,0.1,0,0.1c0,0,0,0.1-0.1,0.1c0,0-0.1,0-0.1,0c0,0-0.1,0-0.1,0C53.1,51.9,53.1,51.9,53,51.7
	C53.1,51.8,53,51.8,53,51.7z M53.4,51.7C53.4,51.7,53.4,51.7,53.4,51.7c0-0.1-0.1-0.1-0.1-0.1c0,0,0,0-0.1,0c0,0-0.1,0-0.1,0
	s0,0-0.1,0.1c0,0,0,0.1,0,0.1c0,0,0,0.1,0,0.1c0,0,0,0,0.1,0.1c0,0,0,0,0.1,0c0,0,0.1,0,0.1,0S53.4,51.8,53.4,51.7
	C53.4,51.8,53.4,51.8,53.4,51.7z M53.2,51.7L53.2,51.7L53.2,51.7l0-0.1h0.1c0,0,0,0,0.1,0c0,0,0,0,0,0.1
	C53.3,51.7,53.3,51.7,53.2,51.7c0.1,0,0.1,0,0.1,0c0,0,0,0,0,0c0,0,0,0,0,0c0,0,0,0,0,0v0L53.2,51.7C53.3,51.8,53.3,51.8,53.2,51.7
	C53.3,51.8,53.3,51.8,53.2,51.7C53.3,51.7,53.3,51.7,53.2,51.7L53.2,51.7z M53.2,51.7L53.2,51.7C53.2,51.7,53.3,51.7,53.2,51.7
	C53.3,51.7,53.3,51.7,53.2,51.7C53.3,51.7,53.3,51.7,53.2,51.7C53.3,51.6,53.2,51.6,53.2,51.7L53.2,51.7L53.2,51.7z"/>
</svg>
