<?xml version="1.0" encoding="utf-8"?>
<!-- Generator: Adobe Illustrator 25.2.1, SVG Export Plug-In . SVG Version: 6.00 Build 0)  -->
<svg version="1.1" id="Layer_1" xmlns="http://www.w3.org/2000/svg" xmlns:xlink="http://www.w3.org/1999/xlink" x="0px" y="0px"
	 width="628.4px" height="74.5px" viewBox="0 0 628.4 74.5" style="enable-background:new 0 0 628.4 74.5;" xml:space="preserve">
<style type="text/css">
	.st0{fill:#D41F2C;}
	.st1{fill:#D4202C;}
</style>
<g>
	<path class="st0" d="M53.1,38.9l-15.3-2.2L31,22.8c-1.2-2.5-4.8-2.5-6,0l-6.8,13.9L2.9,38.9C0.1,39.3-1,42.7,1,44.6l11.1,10.8
		L9.5,70.6c-0.5,2.7,2.4,4.8,4.8,3.5L28,66.9l13.7,7.2c2.4,1.3,5.3-0.8,4.8-3.5l-2.6-15.2l11.1-10.8C56.9,42.7,55.8,39.3,53.1,38.9
		 M38.5,53.6L41,68.1l-13-6.8l-13,6.8l2.5-14.5L6.9,43.4l14.5-2.1l6.5-13.2l6.5,13.2L49,43.4L38.5,53.6z"/>
	<path class="st0" d="M73.5,29.5l-5.3-0.8l-2.4-4.8c-0.4-0.9-1.7-0.9-2.1,0l-2.4,4.8l-5.3,0.8c-1,0.1-1.3,1.3-0.7,2l3.8,3.7
		l-0.9,5.3c-0.2,1,0.8,1.7,1.7,1.2l4.7-2.5l4.7,2.5c0.8,0.4,1.8-0.3,1.7-1.2l-0.9-5.3l3.8-3.7C74.8,30.8,74.5,29.6,73.5,29.5"/>
	<path class="st0" d="M59.4,7.8l-6.6-1l-3-6c-0.5-1.1-2.1-1.1-2.6,0l-3,6l-6.6,1c-1.2,0.2-1.7,1.6-0.8,2.5l4.8,4.7l-1.1,6.6
		c-0.2,1.2,1,2.1,2.1,1.5l5.9-3.1l5.9,3.1c1,0.6,2.3-0.3,2.1-1.5l-1.1-6.6l4.8-4.7C61.1,9.4,60.6,7.9,59.4,7.8"/>
</g>
<g>
	<path class="st1" d="M101.8,54.1h-9.1v18.1h-8.2V25.1h16.6c5.4,0,9.6,1.2,12.6,3.7c3,2.4,4.4,6,4.4,10.6c0,3.2-0.8,5.8-2.3,7.9
		c-1.5,2.1-3.6,3.8-6.4,4.9L120,71.8v0.4h-8.8L101.8,54.1z M92.7,47.5h8.4c2.8,0,4.9-0.7,6.5-2.1c1.6-1.4,2.3-3.3,2.3-5.7
		c0-2.5-0.7-4.5-2.2-5.9s-3.6-2.1-6.4-2.1h-8.6V47.5z"/>
	<path class="st1" d="M140.5,72.9c-5,0-9-1.6-12.1-4.7c-3.1-3.1-4.6-7.3-4.6-12.5v-1c0-3.5,0.7-6.6,2-9.4c1.3-2.8,3.2-4.9,5.7-6.4
		c2.4-1.5,5.2-2.3,8.2-2.3c4.8,0,8.5,1.5,11.1,4.6c2.6,3,3.9,7.3,3.9,12.9v3.2h-22.9c0.2,2.9,1.2,5.2,2.9,6.9s3.8,2.5,6.4,2.5
		c3.6,0,6.5-1.5,8.8-4.4l4.2,4c-1.4,2.1-3.3,3.7-5.6,4.9S143.4,72.9,140.5,72.9z M139.6,42.9c-2.2,0-3.9,0.8-5.2,2.3
		s-2.2,3.6-2.5,6.3h15v-0.6c-0.2-2.6-0.9-4.6-2.1-6C143.5,43.5,141.8,42.9,139.6,42.9z"/>
	<path class="st1" d="M191.5,61.4l5.6-24.2h7.7l-9.6,35h-6.5l-7.5-24.1l-7.4,24.1h-6.5l-9.6-35h7.7l5.7,23.9l7.2-23.9h5.9
		L191.5,61.4z"/>
	<path class="st1" d="M230.9,72.2c-0.3-0.7-0.6-1.8-0.9-3.3c-2.5,2.6-5.6,3.9-9.2,3.9c-3.5,0-6.4-1-8.6-3c-2.2-2-3.3-4.5-3.3-7.4
		c0-3.7,1.4-6.6,4.2-8.6c2.8-2,6.7-3,11.9-3h4.8v-2.3c0-1.8-0.5-3.3-1.5-4.4c-1-1.1-2.6-1.6-4.6-1.6c-1.8,0-3.3,0.4-4.4,1.3
		c-1.1,0.9-1.7,2-1.7,3.4h-7.9c0-1.9,0.6-3.7,1.9-5.4c1.3-1.7,3-3,5.2-3.9c2.2-0.9,4.6-1.4,7.3-1.4c4.1,0,7.4,1,9.8,3.1
		c2.4,2.1,3.7,5,3.8,8.7v15.8c0,3.2,0.4,5.7,1.3,7.5v0.6H230.9z M222.2,66.6c1.6,0,3-0.4,4.4-1.1c1.4-0.8,2.4-1.8,3.1-3v-6.6h-4.2
		c-2.9,0-5.1,0.5-6.6,1.5s-2.2,2.5-2.2,4.3c0,1.5,0.5,2.7,1.5,3.6S220.6,66.6,222.2,66.6z"/>
	<path class="st1" d="M264.2,44.4c-1-0.2-2.1-0.3-3.2-0.3c-3.6,0-6,1.4-7.3,4.1v24h-7.9v-35h7.5l0.2,3.9c1.9-3,4.5-4.6,7.9-4.6
		c1.1,0,2.1,0.2,2.8,0.5L264.2,44.4z"/>
	<path class="st1" d="M267.1,54.5c0-5.4,1.3-9.7,3.8-13c2.5-3.3,5.9-4.9,10.1-4.9c3.7,0,6.7,1.3,9,3.9V22.5h7.9v49.7h-7.1l-0.4-3.6
		c-2.4,2.8-5.5,4.3-9.4,4.3c-4.1,0-7.4-1.7-10-5C268.3,64.6,267.1,60.1,267.1,54.5z M274.9,55.1c0,3.6,0.7,6.3,2.1,8.3
		c1.4,2,3.3,3,5.8,3c3.2,0,5.6-1.4,7.1-4.3v-15c-1.4-2.8-3.8-4.2-7-4.2c-2.5,0-4.5,1-5.9,3C275.6,48,274.9,51.1,274.9,55.1z"/>
	<path class="st1" d="M325.6,62.7c0-1.4-0.6-2.5-1.7-3.2c-1.2-0.7-3.1-1.4-5.7-1.9c-2.7-0.6-4.9-1.3-6.7-2.1
		c-3.9-1.9-5.9-4.7-5.9-8.3c0-3,1.3-5.5,3.8-7.6c2.5-2,5.8-3,9.7-3c4.2,0,7.6,1,10.2,3.1c2.6,2.1,3.9,4.8,3.9,8.1h-7.9
		c0-1.5-0.6-2.8-1.7-3.8c-1.1-1-2.6-1.5-4.5-1.5c-1.7,0-3.1,0.4-4.2,1.2s-1.6,1.9-1.6,3.2c0,1.2,0.5,2.1,1.5,2.8s3.1,1.3,6.2,2
		c3.1,0.7,5.5,1.5,7.3,2.4c1.8,0.9,3.1,2.1,3.9,3.4s1.3,2.9,1.3,4.8c0,3.2-1.3,5.7-3.9,7.7s-6,2.9-10.3,2.9c-2.9,0-5.4-0.5-7.7-1.6
		c-2.2-1-4-2.5-5.2-4.3c-1.3-1.8-1.9-3.8-1.9-5.9h7.6c0.1,1.9,0.8,3.3,2.1,4.3s3,1.5,5.1,1.5c2.1,0,3.6-0.4,4.7-1.2
		C325,65,325.6,64,325.6,62.7z"/>
	<path class="st1" d="M385,51.2h-19.4v14.5h22.6v6.5h-30.8V25.1H388v6.6h-22.4v13H385V51.2z"/>
	<path class="st1" d="M406.8,48.7l6.7-11.5h8.7l-10.7,17.3l11.1,17.8h-8.7l-7-12l-7,12h-8.7l11.1-17.8l-10.7-17.3h8.7L406.8,48.7z"
		/>
	<path class="st1" d="M441.3,66.6c2,0,3.6-0.6,4.9-1.7c1.3-1.1,2-2.6,2.1-4.2h7.4c-0.1,2.2-0.8,4.2-2,6.1s-3,3.4-5.2,4.5
		s-4.5,1.7-7.1,1.7c-4.9,0-8.8-1.6-11.7-4.8s-4.3-7.6-4.3-13.1v-0.8c0-5.3,1.4-9.6,4.3-12.8c2.8-3.2,6.7-4.8,11.7-4.8
		c4.2,0,7.6,1.2,10.2,3.6s4,5.6,4.1,9.6h-7.4c-0.1-2-0.8-3.7-2.1-5s-2.9-1.9-4.9-1.9c-2.5,0-4.5,0.9-5.9,2.8
		c-1.4,1.8-2.1,4.6-2.1,8.4v1.3c0,3.8,0.7,6.6,2.1,8.5C436.7,65.7,438.7,66.6,441.3,66.6z"/>
	<path class="st1" d="M469.9,72.2h-7.9V22.5h7.9V72.2z"/>
	<path class="st1" d="M499.7,68.8c-2.3,2.7-5.6,4.1-9.8,4.1c-3.8,0-6.7-1.1-8.6-3.3c-2-2.2-2.9-5.4-2.9-9.6V37.2h7.9v22.6
		c0,4.4,1.8,6.7,5.5,6.7c3.8,0,6.4-1.4,7.7-4.1V37.2h7.9v35h-7.4L499.7,68.8z"/>
	<path class="st1" d="M535,62.7c0-1.4-0.6-2.5-1.7-3.2c-1.2-0.7-3.1-1.4-5.7-1.9c-2.7-0.6-4.9-1.3-6.7-2.1c-3.9-1.9-5.9-4.7-5.9-8.3
		c0-3,1.3-5.5,3.8-7.6c2.5-2,5.8-3,9.7-3c4.2,0,7.6,1,10.2,3.1c2.6,2.1,3.9,4.8,3.9,8.1h-7.9c0-1.5-0.6-2.8-1.7-3.8
		c-1.1-1-2.6-1.5-4.5-1.5c-1.7,0-3.1,0.4-4.2,1.2s-1.6,1.9-1.6,3.2c0,1.2,0.5,2.1,1.5,2.8s3.1,1.3,6.2,2c3.1,0.7,5.5,1.5,7.3,2.4
		c1.8,0.9,3.1,2.1,3.9,3.4s1.3,2.9,1.3,4.8c0,3.2-1.3,5.7-3.9,7.7s-6,2.9-10.3,2.9c-2.9,0-5.4-0.5-7.7-1.6c-2.2-1-4-2.5-5.2-4.3
		c-1.3-1.8-1.9-3.8-1.9-5.9h7.6c0.1,1.9,0.8,3.3,2.1,4.3s3,1.5,5.1,1.5c2.1,0,3.6-0.4,4.7-1.2C534.4,65,535,64,535,62.7z"/>
	<path class="st1" d="M549.6,28.1c0-1.2,0.4-2.2,1.1-3c0.8-0.8,1.9-1.2,3.3-1.2s2.5,0.4,3.3,1.2c0.8,0.8,1.2,1.8,1.2,3
		c0,1.2-0.4,2.2-1.2,3c-0.8,0.8-1.9,1.2-3.3,1.2s-2.5-0.4-3.3-1.2C550,30.3,549.6,29.3,549.6,28.1z M557.9,72.2h-7.9v-35h7.9V72.2z"
		/>
	<path class="st1" d="M578.9,62.3l7.4-25.1h8.1l-12.1,35h-6.8l-12.2-35h8.2L578.9,62.3z"/>
	<path class="st1" d="M614.3,72.9c-5,0-9-1.6-12.1-4.7c-3.1-3.1-4.6-7.3-4.6-12.5v-1c0-3.5,0.7-6.6,2-9.4c1.3-2.8,3.2-4.9,5.7-6.4
		c2.4-1.5,5.2-2.3,8.2-2.3c4.8,0,8.5,1.5,11.1,4.6c2.6,3,3.9,7.3,3.9,12.9v3.2h-22.9c0.2,2.9,1.2,5.2,2.9,6.9s3.8,2.5,6.4,2.5
		c3.6,0,6.5-1.5,8.8-4.4l4.2,4c-1.4,2.1-3.3,3.7-5.6,4.9S617.2,72.9,614.3,72.9z M613.4,42.9c-2.2,0-3.9,0.8-5.2,2.3
		s-2.2,3.6-2.5,6.3h15v-0.6c-0.2-2.6-0.9-4.6-2.1-6C617.3,43.5,615.5,42.9,613.4,42.9z"/>
</g>
</svg>
